G04 #@! TF.GenerationSoftware,KiCad,Pcbnew,6.0.6-3a73a75311~116~ubuntu22.04.1*
G04 #@! TF.CreationDate,2022-06-23T15:23:09-04:00*
G04 #@! TF.ProjectId,ltc4332_breakout,6c746334-3333-4325-9f62-7265616b6f75,0*
G04 #@! TF.SameCoordinates,Original*
G04 #@! TF.FileFunction,Copper,L1,Top*
G04 #@! TF.FilePolarity,Positive*
%FSLAX46Y46*%
G04 Gerber Fmt 4.6, Leading zero omitted, Abs format (unit mm)*
G04 Created by KiCad (PCBNEW 6.0.6-3a73a75311~116~ubuntu22.04.1) date 2022-06-23 15:23:09*
%MOMM*%
%LPD*%
G01*
G04 APERTURE LIST*
G04 #@! TA.AperFunction,ComponentPad*
%ADD10R,1.700000X1.700000*%
G04 #@! TD*
G04 #@! TA.AperFunction,ComponentPad*
%ADD11O,1.700000X1.700000*%
G04 #@! TD*
G04 #@! TA.AperFunction,ComponentPad*
%ADD12C,5.600000*%
G04 #@! TD*
G04 #@! TA.AperFunction,SMDPad,CuDef*
%ADD13R,3.650000X2.650000*%
G04 #@! TD*
G04 #@! TA.AperFunction,ViaPad*
%ADD14C,0.800000*%
G04 #@! TD*
G04 #@! TA.AperFunction,Conductor*
%ADD15C,0.400000*%
G04 #@! TD*
G04 #@! TA.AperFunction,Conductor*
%ADD16C,0.200000*%
G04 #@! TD*
G04 #@! TA.AperFunction,Conductor*
%ADD17C,0.300000*%
G04 #@! TD*
G04 APERTURE END LIST*
D10*
X141224000Y-90805000D03*
D11*
X141224000Y-93345000D03*
X141224000Y-95885000D03*
X141224000Y-98425000D03*
X141224000Y-100965000D03*
X141224000Y-103505000D03*
X141224000Y-106045000D03*
X141224000Y-108585000D03*
X141224000Y-111125000D03*
X141224000Y-113665000D03*
G04 #@! TA.AperFunction,SMDPad,CuDef*
G36*
G01*
X151696000Y-99535000D02*
X152596000Y-99535000D01*
G75*
G02*
X152846000Y-99785000I0J-250000D01*
G01*
X152846000Y-100310000D01*
G75*
G02*
X152596000Y-100560000I-250000J0D01*
G01*
X151696000Y-100560000D01*
G75*
G02*
X151446000Y-100310000I0J250000D01*
G01*
X151446000Y-99785000D01*
G75*
G02*
X151696000Y-99535000I250000J0D01*
G01*
G37*
G04 #@! TD.AperFunction*
G04 #@! TA.AperFunction,SMDPad,CuDef*
G36*
G01*
X151696000Y-101360000D02*
X152596000Y-101360000D01*
G75*
G02*
X152846000Y-101610000I0J-250000D01*
G01*
X152846000Y-102135000D01*
G75*
G02*
X152596000Y-102385000I-250000J0D01*
G01*
X151696000Y-102385000D01*
G75*
G02*
X151446000Y-102135000I0J250000D01*
G01*
X151446000Y-101610000D01*
G75*
G02*
X151696000Y-101360000I250000J0D01*
G01*
G37*
G04 #@! TD.AperFunction*
G04 #@! TA.AperFunction,SMDPad,CuDef*
G36*
G01*
X147394000Y-101440000D02*
X147394000Y-100490000D01*
G75*
G02*
X147644000Y-100240000I250000J0D01*
G01*
X148144000Y-100240000D01*
G75*
G02*
X148394000Y-100490000I0J-250000D01*
G01*
X148394000Y-101440000D01*
G75*
G02*
X148144000Y-101690000I-250000J0D01*
G01*
X147644000Y-101690000D01*
G75*
G02*
X147394000Y-101440000I0J250000D01*
G01*
G37*
G04 #@! TD.AperFunction*
G04 #@! TA.AperFunction,SMDPad,CuDef*
G36*
G01*
X149294000Y-101440000D02*
X149294000Y-100490000D01*
G75*
G02*
X149544000Y-100240000I250000J0D01*
G01*
X150044000Y-100240000D01*
G75*
G02*
X150294000Y-100490000I0J-250000D01*
G01*
X150294000Y-101440000D01*
G75*
G02*
X150044000Y-101690000I-250000J0D01*
G01*
X149544000Y-101690000D01*
G75*
G02*
X149294000Y-101440000I0J250000D01*
G01*
G37*
G04 #@! TD.AperFunction*
D10*
X155194000Y-90805000D03*
D11*
X155194000Y-93345000D03*
X155194000Y-95885000D03*
X155194000Y-98425000D03*
X155194000Y-100965000D03*
X155194000Y-103505000D03*
D12*
X147574000Y-118110000D03*
G04 #@! TA.AperFunction,SMDPad,CuDef*
G36*
G01*
X151696000Y-94714000D02*
X152596000Y-94714000D01*
G75*
G02*
X152846000Y-94964000I0J-250000D01*
G01*
X152846000Y-95489000D01*
G75*
G02*
X152596000Y-95739000I-250000J0D01*
G01*
X151696000Y-95739000D01*
G75*
G02*
X151446000Y-95489000I0J250000D01*
G01*
X151446000Y-94964000D01*
G75*
G02*
X151696000Y-94714000I250000J0D01*
G01*
G37*
G04 #@! TD.AperFunction*
G04 #@! TA.AperFunction,SMDPad,CuDef*
G36*
G01*
X151696000Y-96539000D02*
X152596000Y-96539000D01*
G75*
G02*
X152846000Y-96789000I0J-250000D01*
G01*
X152846000Y-97314000D01*
G75*
G02*
X152596000Y-97564000I-250000J0D01*
G01*
X151696000Y-97564000D01*
G75*
G02*
X151446000Y-97314000I0J250000D01*
G01*
X151446000Y-96789000D01*
G75*
G02*
X151696000Y-96539000I250000J0D01*
G01*
G37*
G04 #@! TD.AperFunction*
G04 #@! TA.AperFunction,SMDPad,CuDef*
G36*
G01*
X150231500Y-96705000D02*
X150231500Y-97605000D01*
G75*
G02*
X149981500Y-97855000I-250000J0D01*
G01*
X149456500Y-97855000D01*
G75*
G02*
X149206500Y-97605000I0J250000D01*
G01*
X149206500Y-96705000D01*
G75*
G02*
X149456500Y-96455000I250000J0D01*
G01*
X149981500Y-96455000D01*
G75*
G02*
X150231500Y-96705000I0J-250000D01*
G01*
G37*
G04 #@! TD.AperFunction*
G04 #@! TA.AperFunction,SMDPad,CuDef*
G36*
G01*
X148406500Y-96705000D02*
X148406500Y-97605000D01*
G75*
G02*
X148156500Y-97855000I-250000J0D01*
G01*
X147631500Y-97855000D01*
G75*
G02*
X147381500Y-97605000I0J250000D01*
G01*
X147381500Y-96705000D01*
G75*
G02*
X147631500Y-96455000I250000J0D01*
G01*
X148156500Y-96455000D01*
G75*
G02*
X148406500Y-96705000I0J-250000D01*
G01*
G37*
G04 #@! TD.AperFunction*
X148209000Y-86360000D03*
G04 #@! TA.AperFunction,SMDPad,CuDef*
G36*
G01*
X143596500Y-97611250D02*
X143596500Y-96698750D01*
G75*
G02*
X143840250Y-96455000I243750J0D01*
G01*
X144327750Y-96455000D01*
G75*
G02*
X144571500Y-96698750I0J-243750D01*
G01*
X144571500Y-97611250D01*
G75*
G02*
X144327750Y-97855000I-243750J0D01*
G01*
X143840250Y-97855000D01*
G75*
G02*
X143596500Y-97611250I0J243750D01*
G01*
G37*
G04 #@! TD.AperFunction*
G04 #@! TA.AperFunction,SMDPad,CuDef*
G36*
G01*
X145471500Y-97611250D02*
X145471500Y-96698750D01*
G75*
G02*
X145715250Y-96455000I243750J0D01*
G01*
X146202750Y-96455000D01*
G75*
G02*
X146446500Y-96698750I0J-243750D01*
G01*
X146446500Y-97611250D01*
G75*
G02*
X146202750Y-97855000I-243750J0D01*
G01*
X145715250Y-97855000D01*
G75*
G02*
X145471500Y-97611250I0J243750D01*
G01*
G37*
G04 #@! TD.AperFunction*
G04 #@! TA.AperFunction,SMDPad,CuDef*
G36*
G01*
X148175000Y-104432000D02*
X148300000Y-104432000D01*
G75*
G02*
X148362500Y-104494500I0J-62500D01*
G01*
X148362500Y-105219500D01*
G75*
G02*
X148300000Y-105282000I-62500J0D01*
G01*
X148175000Y-105282000D01*
G75*
G02*
X148112500Y-105219500I0J62500D01*
G01*
X148112500Y-104494500D01*
G75*
G02*
X148175000Y-104432000I62500J0D01*
G01*
G37*
G04 #@! TD.AperFunction*
G04 #@! TA.AperFunction,SMDPad,CuDef*
G36*
G01*
X147675000Y-104432000D02*
X147800000Y-104432000D01*
G75*
G02*
X147862500Y-104494500I0J-62500D01*
G01*
X147862500Y-105219500D01*
G75*
G02*
X147800000Y-105282000I-62500J0D01*
G01*
X147675000Y-105282000D01*
G75*
G02*
X147612500Y-105219500I0J62500D01*
G01*
X147612500Y-104494500D01*
G75*
G02*
X147675000Y-104432000I62500J0D01*
G01*
G37*
G04 #@! TD.AperFunction*
G04 #@! TA.AperFunction,SMDPad,CuDef*
G36*
G01*
X147175000Y-104432000D02*
X147300000Y-104432000D01*
G75*
G02*
X147362500Y-104494500I0J-62500D01*
G01*
X147362500Y-105219500D01*
G75*
G02*
X147300000Y-105282000I-62500J0D01*
G01*
X147175000Y-105282000D01*
G75*
G02*
X147112500Y-105219500I0J62500D01*
G01*
X147112500Y-104494500D01*
G75*
G02*
X147175000Y-104432000I62500J0D01*
G01*
G37*
G04 #@! TD.AperFunction*
G04 #@! TA.AperFunction,SMDPad,CuDef*
G36*
G01*
X146675000Y-104432000D02*
X146800000Y-104432000D01*
G75*
G02*
X146862500Y-104494500I0J-62500D01*
G01*
X146862500Y-105219500D01*
G75*
G02*
X146800000Y-105282000I-62500J0D01*
G01*
X146675000Y-105282000D01*
G75*
G02*
X146612500Y-105219500I0J62500D01*
G01*
X146612500Y-104494500D01*
G75*
G02*
X146675000Y-104432000I62500J0D01*
G01*
G37*
G04 #@! TD.AperFunction*
G04 #@! TA.AperFunction,SMDPad,CuDef*
G36*
G01*
X146175000Y-104432000D02*
X146300000Y-104432000D01*
G75*
G02*
X146362500Y-104494500I0J-62500D01*
G01*
X146362500Y-105219500D01*
G75*
G02*
X146300000Y-105282000I-62500J0D01*
G01*
X146175000Y-105282000D01*
G75*
G02*
X146112500Y-105219500I0J62500D01*
G01*
X146112500Y-104494500D01*
G75*
G02*
X146175000Y-104432000I62500J0D01*
G01*
G37*
G04 #@! TD.AperFunction*
G04 #@! TA.AperFunction,SMDPad,CuDef*
G36*
G01*
X145675000Y-104432000D02*
X145800000Y-104432000D01*
G75*
G02*
X145862500Y-104494500I0J-62500D01*
G01*
X145862500Y-105219500D01*
G75*
G02*
X145800000Y-105282000I-62500J0D01*
G01*
X145675000Y-105282000D01*
G75*
G02*
X145612500Y-105219500I0J62500D01*
G01*
X145612500Y-104494500D01*
G75*
G02*
X145675000Y-104432000I62500J0D01*
G01*
G37*
G04 #@! TD.AperFunction*
G04 #@! TA.AperFunction,SMDPad,CuDef*
G36*
G01*
X144175000Y-105932000D02*
X144900000Y-105932000D01*
G75*
G02*
X144962500Y-105994500I0J-62500D01*
G01*
X144962500Y-106119500D01*
G75*
G02*
X144900000Y-106182000I-62500J0D01*
G01*
X144175000Y-106182000D01*
G75*
G02*
X144112500Y-106119500I0J62500D01*
G01*
X144112500Y-105994500D01*
G75*
G02*
X144175000Y-105932000I62500J0D01*
G01*
G37*
G04 #@! TD.AperFunction*
G04 #@! TA.AperFunction,SMDPad,CuDef*
G36*
G01*
X144175000Y-106432000D02*
X144900000Y-106432000D01*
G75*
G02*
X144962500Y-106494500I0J-62500D01*
G01*
X144962500Y-106619500D01*
G75*
G02*
X144900000Y-106682000I-62500J0D01*
G01*
X144175000Y-106682000D01*
G75*
G02*
X144112500Y-106619500I0J62500D01*
G01*
X144112500Y-106494500D01*
G75*
G02*
X144175000Y-106432000I62500J0D01*
G01*
G37*
G04 #@! TD.AperFunction*
G04 #@! TA.AperFunction,SMDPad,CuDef*
G36*
G01*
X144175000Y-106932000D02*
X144900000Y-106932000D01*
G75*
G02*
X144962500Y-106994500I0J-62500D01*
G01*
X144962500Y-107119500D01*
G75*
G02*
X144900000Y-107182000I-62500J0D01*
G01*
X144175000Y-107182000D01*
G75*
G02*
X144112500Y-107119500I0J62500D01*
G01*
X144112500Y-106994500D01*
G75*
G02*
X144175000Y-106932000I62500J0D01*
G01*
G37*
G04 #@! TD.AperFunction*
G04 #@! TA.AperFunction,SMDPad,CuDef*
G36*
G01*
X144175000Y-107432000D02*
X144900000Y-107432000D01*
G75*
G02*
X144962500Y-107494500I0J-62500D01*
G01*
X144962500Y-107619500D01*
G75*
G02*
X144900000Y-107682000I-62500J0D01*
G01*
X144175000Y-107682000D01*
G75*
G02*
X144112500Y-107619500I0J62500D01*
G01*
X144112500Y-107494500D01*
G75*
G02*
X144175000Y-107432000I62500J0D01*
G01*
G37*
G04 #@! TD.AperFunction*
G04 #@! TA.AperFunction,SMDPad,CuDef*
G36*
G01*
X145675000Y-108332000D02*
X145800000Y-108332000D01*
G75*
G02*
X145862500Y-108394500I0J-62500D01*
G01*
X145862500Y-109119500D01*
G75*
G02*
X145800000Y-109182000I-62500J0D01*
G01*
X145675000Y-109182000D01*
G75*
G02*
X145612500Y-109119500I0J62500D01*
G01*
X145612500Y-108394500D01*
G75*
G02*
X145675000Y-108332000I62500J0D01*
G01*
G37*
G04 #@! TD.AperFunction*
G04 #@! TA.AperFunction,SMDPad,CuDef*
G36*
G01*
X146175000Y-108332000D02*
X146300000Y-108332000D01*
G75*
G02*
X146362500Y-108394500I0J-62500D01*
G01*
X146362500Y-109119500D01*
G75*
G02*
X146300000Y-109182000I-62500J0D01*
G01*
X146175000Y-109182000D01*
G75*
G02*
X146112500Y-109119500I0J62500D01*
G01*
X146112500Y-108394500D01*
G75*
G02*
X146175000Y-108332000I62500J0D01*
G01*
G37*
G04 #@! TD.AperFunction*
G04 #@! TA.AperFunction,SMDPad,CuDef*
G36*
G01*
X146675000Y-108332000D02*
X146800000Y-108332000D01*
G75*
G02*
X146862500Y-108394500I0J-62500D01*
G01*
X146862500Y-109119500D01*
G75*
G02*
X146800000Y-109182000I-62500J0D01*
G01*
X146675000Y-109182000D01*
G75*
G02*
X146612500Y-109119500I0J62500D01*
G01*
X146612500Y-108394500D01*
G75*
G02*
X146675000Y-108332000I62500J0D01*
G01*
G37*
G04 #@! TD.AperFunction*
G04 #@! TA.AperFunction,SMDPad,CuDef*
G36*
G01*
X147175000Y-108332000D02*
X147300000Y-108332000D01*
G75*
G02*
X147362500Y-108394500I0J-62500D01*
G01*
X147362500Y-109119500D01*
G75*
G02*
X147300000Y-109182000I-62500J0D01*
G01*
X147175000Y-109182000D01*
G75*
G02*
X147112500Y-109119500I0J62500D01*
G01*
X147112500Y-108394500D01*
G75*
G02*
X147175000Y-108332000I62500J0D01*
G01*
G37*
G04 #@! TD.AperFunction*
G04 #@! TA.AperFunction,SMDPad,CuDef*
G36*
G01*
X147675000Y-108332000D02*
X147800000Y-108332000D01*
G75*
G02*
X147862500Y-108394500I0J-62500D01*
G01*
X147862500Y-109119500D01*
G75*
G02*
X147800000Y-109182000I-62500J0D01*
G01*
X147675000Y-109182000D01*
G75*
G02*
X147612500Y-109119500I0J62500D01*
G01*
X147612500Y-108394500D01*
G75*
G02*
X147675000Y-108332000I62500J0D01*
G01*
G37*
G04 #@! TD.AperFunction*
G04 #@! TA.AperFunction,SMDPad,CuDef*
G36*
G01*
X148175000Y-108332000D02*
X148300000Y-108332000D01*
G75*
G02*
X148362500Y-108394500I0J-62500D01*
G01*
X148362500Y-109119500D01*
G75*
G02*
X148300000Y-109182000I-62500J0D01*
G01*
X148175000Y-109182000D01*
G75*
G02*
X148112500Y-109119500I0J62500D01*
G01*
X148112500Y-108394500D01*
G75*
G02*
X148175000Y-108332000I62500J0D01*
G01*
G37*
G04 #@! TD.AperFunction*
G04 #@! TA.AperFunction,SMDPad,CuDef*
G36*
G01*
X149075000Y-107432000D02*
X149800000Y-107432000D01*
G75*
G02*
X149862500Y-107494500I0J-62500D01*
G01*
X149862500Y-107619500D01*
G75*
G02*
X149800000Y-107682000I-62500J0D01*
G01*
X149075000Y-107682000D01*
G75*
G02*
X149012500Y-107619500I0J62500D01*
G01*
X149012500Y-107494500D01*
G75*
G02*
X149075000Y-107432000I62500J0D01*
G01*
G37*
G04 #@! TD.AperFunction*
G04 #@! TA.AperFunction,SMDPad,CuDef*
G36*
G01*
X149075000Y-106932000D02*
X149800000Y-106932000D01*
G75*
G02*
X149862500Y-106994500I0J-62500D01*
G01*
X149862500Y-107119500D01*
G75*
G02*
X149800000Y-107182000I-62500J0D01*
G01*
X149075000Y-107182000D01*
G75*
G02*
X149012500Y-107119500I0J62500D01*
G01*
X149012500Y-106994500D01*
G75*
G02*
X149075000Y-106932000I62500J0D01*
G01*
G37*
G04 #@! TD.AperFunction*
G04 #@! TA.AperFunction,SMDPad,CuDef*
G36*
G01*
X149075000Y-106432000D02*
X149800000Y-106432000D01*
G75*
G02*
X149862500Y-106494500I0J-62500D01*
G01*
X149862500Y-106619500D01*
G75*
G02*
X149800000Y-106682000I-62500J0D01*
G01*
X149075000Y-106682000D01*
G75*
G02*
X149012500Y-106619500I0J62500D01*
G01*
X149012500Y-106494500D01*
G75*
G02*
X149075000Y-106432000I62500J0D01*
G01*
G37*
G04 #@! TD.AperFunction*
G04 #@! TA.AperFunction,SMDPad,CuDef*
G36*
G01*
X149075000Y-105932000D02*
X149800000Y-105932000D01*
G75*
G02*
X149862500Y-105994500I0J-62500D01*
G01*
X149862500Y-106119500D01*
G75*
G02*
X149800000Y-106182000I-62500J0D01*
G01*
X149075000Y-106182000D01*
G75*
G02*
X149012500Y-106119500I0J62500D01*
G01*
X149012500Y-105994500D01*
G75*
G02*
X149075000Y-105932000I62500J0D01*
G01*
G37*
G04 #@! TD.AperFunction*
D13*
X146987500Y-106807000D03*
G04 #@! TA.AperFunction,SMDPad,CuDef*
G36*
G01*
X146484000Y-100490000D02*
X146484000Y-101440000D01*
G75*
G02*
X146234000Y-101690000I-250000J0D01*
G01*
X145734000Y-101690000D01*
G75*
G02*
X145484000Y-101440000I0J250000D01*
G01*
X145484000Y-100490000D01*
G75*
G02*
X145734000Y-100240000I250000J0D01*
G01*
X146234000Y-100240000D01*
G75*
G02*
X146484000Y-100490000I0J-250000D01*
G01*
G37*
G04 #@! TD.AperFunction*
G04 #@! TA.AperFunction,SMDPad,CuDef*
G36*
G01*
X144584000Y-100490000D02*
X144584000Y-101440000D01*
G75*
G02*
X144334000Y-101690000I-250000J0D01*
G01*
X143834000Y-101690000D01*
G75*
G02*
X143584000Y-101440000I0J250000D01*
G01*
X143584000Y-100490000D01*
G75*
G02*
X143834000Y-100240000I250000J0D01*
G01*
X144334000Y-100240000D01*
G75*
G02*
X144584000Y-100490000I0J-250000D01*
G01*
G37*
G04 #@! TD.AperFunction*
G04 #@! TA.AperFunction,SMDPad,CuDef*
G36*
G01*
X152596000Y-107216000D02*
X151696000Y-107216000D01*
G75*
G02*
X151446000Y-106966000I0J250000D01*
G01*
X151446000Y-106441000D01*
G75*
G02*
X151696000Y-106191000I250000J0D01*
G01*
X152596000Y-106191000D01*
G75*
G02*
X152846000Y-106441000I0J-250000D01*
G01*
X152846000Y-106966000D01*
G75*
G02*
X152596000Y-107216000I-250000J0D01*
G01*
G37*
G04 #@! TD.AperFunction*
G04 #@! TA.AperFunction,SMDPad,CuDef*
G36*
G01*
X152596000Y-105391000D02*
X151696000Y-105391000D01*
G75*
G02*
X151446000Y-105141000I0J250000D01*
G01*
X151446000Y-104616000D01*
G75*
G02*
X151696000Y-104366000I250000J0D01*
G01*
X152596000Y-104366000D01*
G75*
G02*
X152846000Y-104616000I0J-250000D01*
G01*
X152846000Y-105141000D01*
G75*
G02*
X152596000Y-105391000I-250000J0D01*
G01*
G37*
G04 #@! TD.AperFunction*
G04 #@! TA.AperFunction,SMDPad,CuDef*
G36*
G01*
X143596500Y-91255000D02*
X143596500Y-90355000D01*
G75*
G02*
X143846500Y-90105000I250000J0D01*
G01*
X144371500Y-90105000D01*
G75*
G02*
X144621500Y-90355000I0J-250000D01*
G01*
X144621500Y-91255000D01*
G75*
G02*
X144371500Y-91505000I-250000J0D01*
G01*
X143846500Y-91505000D01*
G75*
G02*
X143596500Y-91255000I0J250000D01*
G01*
G37*
G04 #@! TD.AperFunction*
G04 #@! TA.AperFunction,SMDPad,CuDef*
G36*
G01*
X145421500Y-91255000D02*
X145421500Y-90355000D01*
G75*
G02*
X145671500Y-90105000I250000J0D01*
G01*
X146196500Y-90105000D01*
G75*
G02*
X146446500Y-90355000I0J-250000D01*
G01*
X146446500Y-91255000D01*
G75*
G02*
X146196500Y-91505000I-250000J0D01*
G01*
X145671500Y-91505000D01*
G75*
G02*
X145421500Y-91255000I0J250000D01*
G01*
G37*
G04 #@! TD.AperFunction*
G04 #@! TA.AperFunction,SMDPad,CuDef*
G36*
X148066000Y-112649000D02*
G01*
X147566000Y-113399000D01*
X146566000Y-113399000D01*
X146566000Y-111899000D01*
X147566000Y-111899000D01*
X148066000Y-112649000D01*
G37*
G04 #@! TD.AperFunction*
G04 #@! TA.AperFunction,SMDPad,CuDef*
G36*
X149016000Y-113399000D02*
G01*
X147866000Y-113399000D01*
X148366000Y-112649000D01*
X147866000Y-111899000D01*
X149016000Y-111899000D01*
X149016000Y-113399000D01*
G37*
G04 #@! TD.AperFunction*
G04 #@! TA.AperFunction,SMDPad,CuDef*
G36*
G01*
X150213000Y-113099000D02*
X150213000Y-112199000D01*
G75*
G02*
X150463000Y-111949000I250000J0D01*
G01*
X150988000Y-111949000D01*
G75*
G02*
X151238000Y-112199000I0J-250000D01*
G01*
X151238000Y-113099000D01*
G75*
G02*
X150988000Y-113349000I-250000J0D01*
G01*
X150463000Y-113349000D01*
G75*
G02*
X150213000Y-113099000I0J250000D01*
G01*
G37*
G04 #@! TD.AperFunction*
G04 #@! TA.AperFunction,SMDPad,CuDef*
G36*
G01*
X152038000Y-113099000D02*
X152038000Y-112199000D01*
G75*
G02*
X152288000Y-111949000I250000J0D01*
G01*
X152813000Y-111949000D01*
G75*
G02*
X153063000Y-112199000I0J-250000D01*
G01*
X153063000Y-113099000D01*
G75*
G02*
X152813000Y-113349000I-250000J0D01*
G01*
X152288000Y-113349000D01*
G75*
G02*
X152038000Y-113099000I0J250000D01*
G01*
G37*
G04 #@! TD.AperFunction*
D14*
X150723600Y-99695000D03*
X147472400Y-110820200D03*
X148082000Y-99847400D03*
X149606000Y-102184200D03*
X150114000Y-109855000D03*
X143129000Y-99695000D03*
X148285200Y-106807000D03*
X145669000Y-107315000D03*
X143131454Y-107312546D03*
X140411200Y-107315000D03*
X145186400Y-104775000D03*
X147574000Y-102489000D03*
X148470201Y-110878500D03*
D15*
X155194000Y-90805000D02*
X154094480Y-89705480D01*
D16*
X147472400Y-112242600D02*
X147066000Y-112649000D01*
D17*
X148323501Y-103672999D02*
X148323501Y-101394501D01*
D15*
X147894000Y-100965000D02*
X147894000Y-99425800D01*
D16*
X147737500Y-104857000D02*
X147737500Y-103849500D01*
D15*
X145208520Y-89705480D02*
X144109000Y-90805000D01*
X145984000Y-100965000D02*
X146964400Y-100965000D01*
D16*
X147828000Y-103759000D02*
X148237500Y-103759000D01*
D15*
X147998480Y-89705480D02*
X145208520Y-89705480D01*
X149719000Y-97155000D02*
X149719000Y-89902000D01*
D17*
X148237500Y-103759000D02*
X148323501Y-103672999D01*
D16*
X151793500Y-99695000D02*
X150723600Y-99695000D01*
X148237500Y-103759000D02*
X148237500Y-104857000D01*
D15*
X149719000Y-89902000D02*
X149522480Y-89705480D01*
X141224000Y-90805000D02*
X144109000Y-90805000D01*
D16*
X152146000Y-100047500D02*
X151793500Y-99695000D01*
X147472400Y-110820200D02*
X147472400Y-112242600D01*
D15*
X147894000Y-100035400D02*
X148082000Y-99847400D01*
D17*
X148323501Y-101394501D02*
X147894000Y-100965000D01*
D16*
X147320000Y-103759000D02*
X147828000Y-103759000D01*
D15*
X147894000Y-100965000D02*
X148179339Y-101250339D01*
D16*
X147737500Y-103849500D02*
X147828000Y-103759000D01*
D15*
X146964400Y-100965000D02*
X148082000Y-99847400D01*
X147894000Y-100965000D02*
X147894000Y-100035400D01*
D16*
X147237500Y-103841500D02*
X147320000Y-103759000D01*
D15*
X154094480Y-89705480D02*
X149522480Y-89705480D01*
X149522480Y-89705480D02*
X147998480Y-89705480D01*
X149719000Y-97600800D02*
X149719000Y-97155000D01*
D16*
X147237500Y-104857000D02*
X147237500Y-103841500D01*
D15*
X147894000Y-99425800D02*
X149719000Y-97600800D01*
D17*
X143129000Y-100010000D02*
X143129000Y-99695000D01*
X149606000Y-102184200D02*
X149606000Y-101153000D01*
D16*
X150114000Y-109855000D02*
X148336000Y-109855000D01*
X147320000Y-109855000D02*
X147237500Y-109772500D01*
X148237500Y-108757000D02*
X148237500Y-109756500D01*
X147237500Y-109772500D02*
X147237500Y-108757000D01*
X147828000Y-109855000D02*
X147320000Y-109855000D01*
D17*
X144084000Y-100965000D02*
X143129000Y-100010000D01*
D16*
X147737500Y-108757000D02*
X147737500Y-109764500D01*
X148237500Y-109756500D02*
X148336000Y-109855000D01*
X147737500Y-109764500D02*
X147828000Y-109855000D01*
X148336000Y-109855000D02*
X147828000Y-109855000D01*
D17*
X149606000Y-101153000D02*
X149794000Y-100965000D01*
D16*
X146237500Y-104857000D02*
X146237500Y-102903745D01*
X145034000Y-101700245D02*
X145034000Y-98105000D01*
X146237500Y-102903745D02*
X145034000Y-101700245D01*
X145034000Y-98105000D02*
X144084000Y-97155000D01*
X147894000Y-97155000D02*
X145959000Y-97155000D01*
X139674969Y-94894031D02*
X139674969Y-106578769D01*
X144537500Y-107557000D02*
X143375908Y-107557000D01*
X145934000Y-90805000D02*
X143394000Y-93345000D01*
X143375908Y-107557000D02*
X143131454Y-107312546D01*
X139674969Y-106578769D02*
X140411200Y-107315000D01*
X143394000Y-93345000D02*
X141224000Y-93345000D01*
X141224000Y-93345000D02*
X139674969Y-94894031D01*
X142429499Y-101891099D02*
X142429499Y-97090499D01*
X143586200Y-105486200D02*
X143586200Y-103047800D01*
X142429499Y-97090499D02*
X141224000Y-95885000D01*
X144537500Y-106057000D02*
X144157000Y-106057000D01*
X144157000Y-106057000D02*
X143586200Y-105486200D01*
X143586200Y-103047800D02*
X142429499Y-101891099D01*
X140074489Y-99574511D02*
X141224000Y-98425000D01*
X141630455Y-102285800D02*
X140614400Y-102285800D01*
X140614400Y-102285800D02*
X140074489Y-101745889D01*
X142773400Y-105816400D02*
X142773400Y-103428745D01*
X142773400Y-103428745D02*
X141630455Y-102285800D01*
X144537500Y-107057000D02*
X144014000Y-107057000D01*
X144014000Y-107057000D02*
X142773400Y-105816400D01*
X140074489Y-101745889D02*
X140074489Y-99574511D01*
X144092007Y-106557000D02*
X143179800Y-105644793D01*
X144537500Y-106557000D02*
X144092007Y-106557000D01*
X143179800Y-103251000D02*
X141224000Y-101295200D01*
X141224000Y-101295200D02*
X141224000Y-100965000D01*
X143179800Y-105644793D02*
X143179800Y-103251000D01*
X143586649Y-108757000D02*
X142373889Y-107544240D01*
X145737500Y-108757000D02*
X143586649Y-108757000D01*
X142373889Y-104654889D02*
X141224000Y-103505000D01*
X142373889Y-107544240D02*
X142373889Y-104654889D01*
X146237500Y-108757000D02*
X146237500Y-109193973D01*
X143865655Y-109601000D02*
X141224000Y-106959345D01*
X146237500Y-109193973D02*
X145830473Y-109601000D01*
X145830473Y-109601000D02*
X143865655Y-109601000D01*
X141224000Y-106959345D02*
X141224000Y-106045000D01*
X146737500Y-109281022D02*
X145909522Y-110109000D01*
X142748000Y-110109000D02*
X141224000Y-108585000D01*
X145909522Y-110109000D02*
X142748000Y-110109000D01*
X146737500Y-108757000D02*
X146737500Y-109281022D01*
X145268400Y-104857000D02*
X145186400Y-104775000D01*
X145737500Y-104857000D02*
X145268400Y-104857000D01*
X148844000Y-100101400D02*
X151146480Y-97798920D01*
X148844000Y-104736222D02*
X148844000Y-100101400D01*
X151146480Y-96226020D02*
X152146000Y-95226500D01*
X155194000Y-93345000D02*
X153312500Y-95226500D01*
X151146480Y-97798920D02*
X151146480Y-96226020D01*
X149437500Y-105329722D02*
X148844000Y-104736222D01*
X153312500Y-95226500D02*
X152146000Y-95226500D01*
X149437500Y-106057000D02*
X149437500Y-105329722D01*
X149437500Y-106557000D02*
X149874473Y-106557000D01*
X154027500Y-97051500D02*
X155194000Y-95885000D01*
X153145520Y-98051020D02*
X152146000Y-97051500D01*
X153145520Y-100537618D02*
X153145520Y-98051020D01*
X150347459Y-106084014D02*
X150347459Y-105862341D01*
X152146000Y-97051500D02*
X154027500Y-97051500D01*
X151563862Y-100965000D02*
X152718138Y-100965000D01*
X149874473Y-106557000D02*
X150347459Y-106084014D01*
X151146480Y-101382382D02*
X151563862Y-100965000D01*
X151146480Y-105063320D02*
X151146480Y-101382382D01*
X150347459Y-105862341D02*
X151146480Y-105063320D01*
X152718138Y-100965000D02*
X153145520Y-100537618D01*
X149437500Y-107557000D02*
X150122523Y-107557000D01*
X154958834Y-102114511D02*
X155670144Y-102114511D01*
X151146480Y-106213382D02*
X151568862Y-105791000D01*
X155194000Y-99054132D02*
X155194000Y-98425000D01*
X154044489Y-104469649D02*
X154044489Y-103028856D01*
X156343511Y-99574511D02*
X155194000Y-98425000D01*
X156343511Y-101441144D02*
X156343511Y-99574511D01*
X154044489Y-103028856D02*
X154958834Y-102114511D01*
X152146000Y-101872500D02*
X152375632Y-101872500D01*
X155670144Y-102114511D02*
X156343511Y-101441144D01*
X152375632Y-101872500D02*
X155194000Y-99054132D01*
X152723138Y-105791000D02*
X154044489Y-104469649D01*
X150122523Y-107557000D02*
X151146480Y-106533043D01*
X151146480Y-106533043D02*
X151146480Y-106213382D01*
X151568862Y-105791000D02*
X152723138Y-105791000D01*
X150746969Y-106367560D02*
X150746969Y-106047899D01*
X149437500Y-107057000D02*
X150057529Y-107057000D01*
X150057529Y-107057000D02*
X150746969Y-106367560D01*
X152146000Y-104878500D02*
X152146000Y-104013000D01*
X151916368Y-104878500D02*
X152146000Y-104878500D01*
X150746969Y-106047899D02*
X151916368Y-104878500D01*
X152146000Y-104013000D02*
X155194000Y-100965000D01*
X148470201Y-112603201D02*
X148516000Y-112649000D01*
X150725500Y-112649000D02*
X148516000Y-112649000D01*
X146737500Y-103325500D02*
X147574000Y-102489000D01*
X148470201Y-110878500D02*
X148470201Y-112603201D01*
X146737500Y-104857000D02*
X146737500Y-103325500D01*
G04 #@! TA.AperFunction,Conductor*
G36*
X152624018Y-83060000D02*
G01*
X152638851Y-83062310D01*
X152638855Y-83062310D01*
X152647724Y-83063691D01*
X152668183Y-83061016D01*
X152690008Y-83060072D01*
X153046937Y-83075656D01*
X153057885Y-83076614D01*
X153168162Y-83091132D01*
X153442379Y-83127233D01*
X153453205Y-83129142D01*
X153831822Y-83213080D01*
X153842439Y-83215925D01*
X153956738Y-83251963D01*
X154212302Y-83332542D01*
X154222615Y-83336295D01*
X154580932Y-83484715D01*
X154590876Y-83489353D01*
X154837669Y-83617825D01*
X154934867Y-83668423D01*
X154944387Y-83673919D01*
X155271468Y-83882292D01*
X155280472Y-83888597D01*
X155588138Y-84124678D01*
X155596558Y-84131743D01*
X155842107Y-84356746D01*
X155882483Y-84393744D01*
X155890256Y-84401517D01*
X156152257Y-84687442D01*
X156159322Y-84695862D01*
X156395403Y-85003528D01*
X156401708Y-85012532D01*
X156610081Y-85339613D01*
X156615576Y-85349132D01*
X156763836Y-85633935D01*
X156794643Y-85693115D01*
X156799285Y-85703068D01*
X156923173Y-86002159D01*
X156947702Y-86061377D01*
X156951461Y-86071706D01*
X157068075Y-86441561D01*
X157070920Y-86452178D01*
X157154858Y-86830795D01*
X157156767Y-86841621D01*
X157207386Y-87226114D01*
X157208344Y-87237063D01*
X157217006Y-87435446D01*
X157223603Y-87586552D01*
X157222223Y-87611429D01*
X157220309Y-87623724D01*
X157221473Y-87632626D01*
X157221473Y-87632628D01*
X157224436Y-87655283D01*
X157225500Y-87671621D01*
X157225500Y-116790633D01*
X157224000Y-116810018D01*
X157221690Y-116824851D01*
X157221690Y-116824855D01*
X157220309Y-116833724D01*
X157222984Y-116854183D01*
X157223928Y-116876012D01*
X157208344Y-117232936D01*
X157207386Y-117243886D01*
X157156767Y-117628379D01*
X157154858Y-117639205D01*
X157070920Y-118017822D01*
X157068075Y-118028439D01*
X156951461Y-118398294D01*
X156947705Y-118408615D01*
X156913652Y-118490828D01*
X156799289Y-118766923D01*
X156794647Y-118776876D01*
X156688764Y-118980276D01*
X156615577Y-119120867D01*
X156610081Y-119130387D01*
X156401708Y-119457468D01*
X156395403Y-119466472D01*
X156159322Y-119774138D01*
X156152257Y-119782558D01*
X155890256Y-120068483D01*
X155882487Y-120076252D01*
X155819228Y-120134218D01*
X155596558Y-120338257D01*
X155588138Y-120345322D01*
X155280472Y-120581403D01*
X155271468Y-120587708D01*
X154944387Y-120796081D01*
X154934868Y-120801576D01*
X154590876Y-120980647D01*
X154580932Y-120985285D01*
X154222615Y-121133705D01*
X154212302Y-121137458D01*
X154070738Y-121182093D01*
X153842439Y-121254075D01*
X153831822Y-121256920D01*
X153453205Y-121340858D01*
X153442379Y-121342767D01*
X153057886Y-121393386D01*
X153046937Y-121394344D01*
X152697446Y-121409603D01*
X152672571Y-121408223D01*
X152660276Y-121406309D01*
X152651374Y-121407473D01*
X152651372Y-121407473D01*
X152636323Y-121409441D01*
X152628714Y-121410436D01*
X152612379Y-121411500D01*
X148888051Y-121411500D01*
X148819930Y-121391498D01*
X148773437Y-121337842D01*
X148763333Y-121267568D01*
X148792827Y-121202988D01*
X148835800Y-121170845D01*
X148909055Y-121137461D01*
X149109066Y-121046311D01*
X149211839Y-120985289D01*
X149414262Y-120865099D01*
X149414267Y-120865096D01*
X149417207Y-120863350D01*
X149703786Y-120648180D01*
X149965451Y-120403319D01*
X150199140Y-120131630D01*
X150305750Y-119976512D01*
X150400190Y-119839101D01*
X150400195Y-119839094D01*
X150402120Y-119836292D01*
X150403732Y-119833298D01*
X150403737Y-119833290D01*
X150570395Y-119523772D01*
X150572017Y-119520760D01*
X150706842Y-119188724D01*
X150717142Y-119152568D01*
X150766220Y-118980276D01*
X150805020Y-118844070D01*
X150865401Y-118490828D01*
X150867511Y-118456340D01*
X150887168Y-118134928D01*
X150887278Y-118133131D01*
X150887359Y-118110000D01*
X150867979Y-117752159D01*
X150810066Y-117398505D01*
X150714297Y-117053173D01*
X150711243Y-117045497D01*
X150583052Y-116723369D01*
X150581793Y-116720205D01*
X150551768Y-116663498D01*
X150415702Y-116406513D01*
X150415698Y-116406506D01*
X150414103Y-116403494D01*
X150213190Y-116106746D01*
X149981403Y-115833432D01*
X149721454Y-115586750D01*
X149436384Y-115369585D01*
X149433472Y-115367828D01*
X149433467Y-115367825D01*
X149132443Y-115186236D01*
X149132437Y-115186233D01*
X149129528Y-115184478D01*
X148804475Y-115033593D01*
X148513758Y-114935191D01*
X148468255Y-114919789D01*
X148468250Y-114919788D01*
X148465028Y-114918697D01*
X148266681Y-114874724D01*
X148118493Y-114841871D01*
X148118487Y-114841870D01*
X148115158Y-114841132D01*
X148111769Y-114840758D01*
X148111764Y-114840757D01*
X147762338Y-114802180D01*
X147762333Y-114802180D01*
X147758957Y-114801807D01*
X147755558Y-114801801D01*
X147755557Y-114801801D01*
X147586080Y-114801505D01*
X147400592Y-114801182D01*
X147287413Y-114813277D01*
X147047639Y-114838901D01*
X147047631Y-114838902D01*
X147044256Y-114839263D01*
X146694117Y-114915606D01*
X146354271Y-115029317D01*
X146351178Y-115030739D01*
X146351177Y-115030740D01*
X146344974Y-115033593D01*
X146028694Y-115179066D01*
X145721193Y-115363101D01*
X145718467Y-115365163D01*
X145718465Y-115365164D01*
X145712620Y-115369585D01*
X145435367Y-115579270D01*
X145174559Y-115825043D01*
X144941819Y-116097546D01*
X144939900Y-116100358D01*
X144939897Y-116100363D01*
X144846624Y-116237097D01*
X144739871Y-116393591D01*
X144571077Y-116709714D01*
X144437411Y-117042218D01*
X144436491Y-117045492D01*
X144436489Y-117045497D01*
X144370909Y-117278807D01*
X144340437Y-117387213D01*
X144281290Y-117740663D01*
X144260661Y-118098434D01*
X144278792Y-118456340D01*
X144279329Y-118459695D01*
X144279330Y-118459701D01*
X144284316Y-118490828D01*
X144335470Y-118810195D01*
X144430033Y-119155859D01*
X144431282Y-119159029D01*
X144552387Y-119466472D01*
X144561374Y-119489288D01*
X144592151Y-119547909D01*
X144713216Y-119778504D01*
X144727957Y-119806582D01*
X144729858Y-119809411D01*
X144729864Y-119809421D01*
X144909171Y-120076256D01*
X144927834Y-120104029D01*
X145158665Y-120378150D01*
X145417751Y-120625738D01*
X145702061Y-120843897D01*
X145734056Y-120863350D01*
X146005355Y-121028303D01*
X146005360Y-121028306D01*
X146008270Y-121030075D01*
X146229491Y-121133702D01*
X146309963Y-121171398D01*
X146363166Y-121218408D01*
X146382508Y-121286719D01*
X146361848Y-121354643D01*
X146307745Y-121400615D01*
X146256514Y-121411500D01*
X143813367Y-121411500D01*
X143793982Y-121410000D01*
X143779149Y-121407690D01*
X143779145Y-121407690D01*
X143770276Y-121406309D01*
X143749817Y-121408984D01*
X143727992Y-121409928D01*
X143371063Y-121394344D01*
X143360114Y-121393386D01*
X142975621Y-121342767D01*
X142964795Y-121340858D01*
X142586178Y-121256920D01*
X142575561Y-121254075D01*
X142347262Y-121182093D01*
X142205698Y-121137458D01*
X142195385Y-121133705D01*
X141837068Y-120985285D01*
X141827124Y-120980647D01*
X141483132Y-120801576D01*
X141473613Y-120796081D01*
X141146532Y-120587708D01*
X141137528Y-120581403D01*
X140829862Y-120345322D01*
X140821442Y-120338257D01*
X140598772Y-120134218D01*
X140535513Y-120076252D01*
X140527744Y-120068483D01*
X140265743Y-119782558D01*
X140258678Y-119774138D01*
X140022597Y-119466472D01*
X140016292Y-119457468D01*
X139807919Y-119130387D01*
X139802423Y-119120867D01*
X139729236Y-118980276D01*
X139623353Y-118776876D01*
X139618711Y-118766923D01*
X139504349Y-118490828D01*
X139470295Y-118408615D01*
X139466539Y-118398294D01*
X139349925Y-118028439D01*
X139347080Y-118017822D01*
X139263142Y-117639205D01*
X139261233Y-117628379D01*
X139210614Y-117243886D01*
X139209656Y-117232936D01*
X139194561Y-116887208D01*
X139196188Y-116860805D01*
X139196769Y-116857352D01*
X139196770Y-116857345D01*
X139197576Y-116852552D01*
X139197729Y-116840000D01*
X139193773Y-116812376D01*
X139192500Y-116794514D01*
X139192500Y-113932966D01*
X139892257Y-113932966D01*
X139922565Y-114067446D01*
X139925645Y-114077275D01*
X140005770Y-114274603D01*
X140010413Y-114283794D01*
X140121694Y-114465388D01*
X140127777Y-114473699D01*
X140267213Y-114634667D01*
X140274580Y-114641883D01*
X140438434Y-114777916D01*
X140446881Y-114783831D01*
X140630756Y-114891279D01*
X140640042Y-114895729D01*
X140839001Y-114971703D01*
X140848899Y-114974579D01*
X140952250Y-114995606D01*
X140966299Y-114994410D01*
X140970000Y-114984065D01*
X140970000Y-114983517D01*
X141478000Y-114983517D01*
X141482064Y-114997359D01*
X141495478Y-114999393D01*
X141502184Y-114998534D01*
X141512262Y-114996392D01*
X141716255Y-114935191D01*
X141725842Y-114931433D01*
X141917095Y-114837739D01*
X141925945Y-114832464D01*
X142099328Y-114708792D01*
X142107200Y-114702139D01*
X142258052Y-114551812D01*
X142264730Y-114543965D01*
X142389003Y-114371020D01*
X142394313Y-114362183D01*
X142488670Y-114171267D01*
X142492469Y-114161672D01*
X142554377Y-113957910D01*
X142556555Y-113947837D01*
X142557986Y-113936962D01*
X142555775Y-113922778D01*
X142542617Y-113919000D01*
X141496115Y-113919000D01*
X141480876Y-113923475D01*
X141479671Y-113924865D01*
X141478000Y-113932548D01*
X141478000Y-114983517D01*
X140970000Y-114983517D01*
X140970000Y-113937115D01*
X140965525Y-113921876D01*
X140964135Y-113920671D01*
X140956452Y-113919000D01*
X139907225Y-113919000D01*
X139893694Y-113922973D01*
X139892257Y-113932966D01*
X139192500Y-113932966D01*
X139192500Y-107261039D01*
X139212502Y-107192918D01*
X139266158Y-107146425D01*
X139336432Y-107136321D01*
X139401012Y-107165815D01*
X139407595Y-107171944D01*
X139461481Y-107225830D01*
X139495507Y-107288142D01*
X139498041Y-107311716D01*
X139497696Y-107315000D01*
X139498386Y-107321565D01*
X139516729Y-107496086D01*
X139517658Y-107504928D01*
X139576673Y-107686556D01*
X139672160Y-107851944D01*
X139676578Y-107856851D01*
X139676579Y-107856852D01*
X139793997Y-107987258D01*
X139799947Y-107993866D01*
X139805289Y-107997747D01*
X139805291Y-107997749D01*
X139877499Y-108050211D01*
X139920853Y-108106433D01*
X139926928Y-108177170D01*
X139924855Y-108185819D01*
X139884989Y-108329570D01*
X139861251Y-108551695D01*
X139861548Y-108556848D01*
X139861548Y-108556851D01*
X139868189Y-108672030D01*
X139874110Y-108774715D01*
X139875247Y-108779761D01*
X139875248Y-108779767D01*
X139899304Y-108886508D01*
X139923222Y-108992639D01*
X140007266Y-109199616D01*
X140123987Y-109390088D01*
X140270250Y-109558938D01*
X140442126Y-109701632D01*
X140465018Y-109715009D01*
X140515445Y-109744476D01*
X140564169Y-109796114D01*
X140577240Y-109865897D01*
X140550509Y-109931669D01*
X140510055Y-109965027D01*
X140497607Y-109971507D01*
X140493474Y-109974610D01*
X140493471Y-109974612D01*
X140323100Y-110102530D01*
X140318965Y-110105635D01*
X140164629Y-110267138D01*
X140038743Y-110451680D01*
X140011173Y-110511074D01*
X139952794Y-110636843D01*
X139944688Y-110654305D01*
X139884989Y-110869570D01*
X139861251Y-111091695D01*
X139861548Y-111096848D01*
X139861548Y-111096851D01*
X139870019Y-111243771D01*
X139874110Y-111314715D01*
X139875247Y-111319761D01*
X139875248Y-111319767D01*
X139891189Y-111390500D01*
X139923222Y-111532639D01*
X139961461Y-111626811D01*
X139999927Y-111721541D01*
X140007266Y-111739616D01*
X140009965Y-111744020D01*
X140107698Y-111903506D01*
X140123987Y-111930088D01*
X140270250Y-112098938D01*
X140442126Y-112241632D01*
X140515955Y-112284774D01*
X140564679Y-112336412D01*
X140577750Y-112406195D01*
X140551019Y-112471967D01*
X140510562Y-112505327D01*
X140502457Y-112509546D01*
X140493738Y-112515036D01*
X140323433Y-112642905D01*
X140315726Y-112649748D01*
X140168590Y-112803717D01*
X140162104Y-112811727D01*
X140042098Y-112987649D01*
X140037000Y-112996623D01*
X139947338Y-113189783D01*
X139943775Y-113199470D01*
X139888389Y-113399183D01*
X139889912Y-113407607D01*
X139902292Y-113411000D01*
X142542344Y-113411000D01*
X142555875Y-113407027D01*
X142557180Y-113397947D01*
X142515214Y-113230875D01*
X142511894Y-113221124D01*
X142426972Y-113025814D01*
X142422105Y-113016739D01*
X142306426Y-112837926D01*
X142300136Y-112829757D01*
X142156806Y-112672240D01*
X142149273Y-112665215D01*
X141982139Y-112533222D01*
X141973556Y-112527520D01*
X141936602Y-112507120D01*
X141886631Y-112456687D01*
X141871859Y-112387245D01*
X141896975Y-112320839D01*
X141924327Y-112294232D01*
X141947797Y-112277491D01*
X142103860Y-112166173D01*
X142262096Y-112008489D01*
X142321594Y-111925689D01*
X142389435Y-111831277D01*
X142392453Y-111827077D01*
X142439479Y-111731928D01*
X142489136Y-111631453D01*
X142489137Y-111631451D01*
X142491430Y-111626811D01*
X142528172Y-111505878D01*
X142554865Y-111418023D01*
X142554865Y-111418021D01*
X142556370Y-111413069D01*
X142585529Y-111191590D01*
X142587156Y-111125000D01*
X142568852Y-110902361D01*
X142561234Y-110872033D01*
X142564038Y-110801094D01*
X142604750Y-110742930D01*
X142670445Y-110716010D01*
X142699889Y-110716417D01*
X142708115Y-110717500D01*
X142708120Y-110717500D01*
X142708129Y-110717501D01*
X142739812Y-110721672D01*
X142748000Y-110722750D01*
X142779693Y-110718578D01*
X142796136Y-110717500D01*
X145861386Y-110717500D01*
X145877829Y-110718578D01*
X145909522Y-110722750D01*
X145917711Y-110721672D01*
X145949396Y-110717501D01*
X145949406Y-110717500D01*
X145949407Y-110717500D01*
X145957634Y-110716417D01*
X146048979Y-110704391D01*
X146060186Y-110702916D01*
X146060188Y-110702915D01*
X146068373Y-110701838D01*
X146216398Y-110640524D01*
X146311594Y-110567477D01*
X146311597Y-110567474D01*
X146343509Y-110542987D01*
X146348535Y-110536437D01*
X146348538Y-110536434D01*
X146356687Y-110525814D01*
X146414025Y-110483948D01*
X146484897Y-110479727D01*
X146546799Y-110514493D01*
X146580079Y-110577206D01*
X146579900Y-110627065D01*
X146578858Y-110630272D01*
X146578168Y-110636840D01*
X146578167Y-110636843D01*
X146569138Y-110722750D01*
X146558896Y-110820200D01*
X146559586Y-110826765D01*
X146565714Y-110885065D01*
X146578858Y-111010128D01*
X146637873Y-111191756D01*
X146641176Y-111197477D01*
X146641674Y-111198339D01*
X146641810Y-111198901D01*
X146643861Y-111203507D01*
X146643019Y-111203882D01*
X146658413Y-111267334D01*
X146635194Y-111334426D01*
X146579387Y-111378315D01*
X146541545Y-111387020D01*
X146499627Y-111390018D01*
X146499626Y-111390018D01*
X146492889Y-111390500D01*
X146433498Y-111407939D01*
X146361235Y-111429157D01*
X146361233Y-111429158D01*
X146352589Y-111431696D01*
X146322922Y-111450762D01*
X146237159Y-111505878D01*
X146237156Y-111505880D01*
X146229579Y-111510750D01*
X146223678Y-111517560D01*
X146139726Y-111614445D01*
X146139724Y-111614448D01*
X146133824Y-111621257D01*
X146073081Y-111754266D01*
X146052271Y-111899000D01*
X146052271Y-113399000D01*
X146057500Y-113472111D01*
X146078531Y-113543734D01*
X146088349Y-113577171D01*
X146098696Y-113612411D01*
X146103567Y-113619990D01*
X146172878Y-113727841D01*
X146172880Y-113727844D01*
X146177750Y-113735421D01*
X146184560Y-113741322D01*
X146281445Y-113825274D01*
X146281448Y-113825276D01*
X146288257Y-113831176D01*
X146296454Y-113834920D01*
X146296455Y-113834920D01*
X146321869Y-113846526D01*
X146421266Y-113891919D01*
X146566000Y-113912729D01*
X147566000Y-113912729D01*
X147567964Y-113912605D01*
X147567968Y-113912605D01*
X147624080Y-113909066D01*
X147624084Y-113909065D01*
X147630557Y-113908657D01*
X147676232Y-113896075D01*
X147727624Y-113892833D01*
X147866000Y-113912729D01*
X149016000Y-113912729D01*
X149047986Y-113910441D01*
X149082373Y-113907982D01*
X149082374Y-113907982D01*
X149089111Y-113907500D01*
X149168618Y-113884155D01*
X149220765Y-113868843D01*
X149220767Y-113868842D01*
X149229411Y-113866304D01*
X149293255Y-113825274D01*
X149344841Y-113792122D01*
X149344844Y-113792120D01*
X149352421Y-113787250D01*
X149397331Y-113735421D01*
X149442274Y-113683555D01*
X149442276Y-113683552D01*
X149448176Y-113676743D01*
X149508919Y-113543734D01*
X149524359Y-113436348D01*
X149553852Y-113371767D01*
X149613578Y-113333384D01*
X149684575Y-113333384D01*
X149744301Y-113371768D01*
X149765794Y-113409479D01*
X149766027Y-113409370D01*
X149767393Y-113412286D01*
X149768599Y-113414402D01*
X149769130Y-113415995D01*
X149769133Y-113416002D01*
X149771450Y-113422946D01*
X149864522Y-113573348D01*
X149989697Y-113698305D01*
X149995927Y-113702145D01*
X149995928Y-113702146D01*
X150133992Y-113787250D01*
X150140262Y-113791115D01*
X150220005Y-113817564D01*
X150301611Y-113844632D01*
X150301613Y-113844632D01*
X150308139Y-113846797D01*
X150314975Y-113847497D01*
X150314978Y-113847498D01*
X150358031Y-113851909D01*
X150412600Y-113857500D01*
X151038400Y-113857500D01*
X151041646Y-113857163D01*
X151041650Y-113857163D01*
X151137308Y-113847238D01*
X151137312Y-113847237D01*
X151144166Y-113846526D01*
X151150702Y-113844345D01*
X151150704Y-113844345D01*
X151282806Y-113800272D01*
X151311946Y-113790550D01*
X151462348Y-113697478D01*
X151549137Y-113610537D01*
X151611421Y-113576458D01*
X151682241Y-113581461D01*
X151727329Y-113610382D01*
X151809829Y-113692739D01*
X151821240Y-113701751D01*
X151959243Y-113786816D01*
X151972424Y-113792963D01*
X152126710Y-113844138D01*
X152140086Y-113847005D01*
X152234438Y-113856672D01*
X152240854Y-113857000D01*
X152278385Y-113857000D01*
X152293624Y-113852525D01*
X152294829Y-113851135D01*
X152296500Y-113843452D01*
X152296500Y-113838884D01*
X152804500Y-113838884D01*
X152808975Y-113854123D01*
X152810365Y-113855328D01*
X152818048Y-113856999D01*
X152860095Y-113856999D01*
X152866614Y-113856662D01*
X152962206Y-113846743D01*
X152975600Y-113843851D01*
X153129784Y-113792412D01*
X153142962Y-113786239D01*
X153280807Y-113700937D01*
X153292208Y-113691901D01*
X153406739Y-113577171D01*
X153415751Y-113565760D01*
X153500816Y-113427757D01*
X153506963Y-113414576D01*
X153558138Y-113260290D01*
X153561005Y-113246914D01*
X153570672Y-113152562D01*
X153571000Y-113146146D01*
X153571000Y-112921115D01*
X153566525Y-112905876D01*
X153565135Y-112904671D01*
X153557452Y-112903000D01*
X152822615Y-112903000D01*
X152807376Y-112907475D01*
X152806171Y-112908865D01*
X152804500Y-112916548D01*
X152804500Y-113838884D01*
X152296500Y-113838884D01*
X152296500Y-112376885D01*
X152804500Y-112376885D01*
X152808975Y-112392124D01*
X152810365Y-112393329D01*
X152818048Y-112395000D01*
X153552884Y-112395000D01*
X153568123Y-112390525D01*
X153569328Y-112389135D01*
X153570999Y-112381452D01*
X153570999Y-112151905D01*
X153570662Y-112145386D01*
X153560743Y-112049794D01*
X153557851Y-112036400D01*
X153506412Y-111882216D01*
X153500239Y-111869038D01*
X153414937Y-111731193D01*
X153405901Y-111719792D01*
X153291171Y-111605261D01*
X153279760Y-111596249D01*
X153141757Y-111511184D01*
X153128576Y-111505037D01*
X152974290Y-111453862D01*
X152960914Y-111450995D01*
X152866562Y-111441328D01*
X152860145Y-111441000D01*
X152822615Y-111441000D01*
X152807376Y-111445475D01*
X152806171Y-111446865D01*
X152804500Y-111454548D01*
X152804500Y-112376885D01*
X152296500Y-112376885D01*
X152296500Y-111459116D01*
X152292025Y-111443877D01*
X152290635Y-111442672D01*
X152282952Y-111441001D01*
X152240905Y-111441001D01*
X152234386Y-111441338D01*
X152138794Y-111451257D01*
X152125400Y-111454149D01*
X151971216Y-111505588D01*
X151958038Y-111511761D01*
X151820193Y-111597063D01*
X151808792Y-111606099D01*
X151727570Y-111687462D01*
X151665287Y-111721541D01*
X151594467Y-111716538D01*
X151549380Y-111687617D01*
X151466488Y-111604870D01*
X151466483Y-111604866D01*
X151461303Y-111599695D01*
X151352519Y-111532639D01*
X151316968Y-111510725D01*
X151316966Y-111510724D01*
X151310738Y-111506885D01*
X151189957Y-111466824D01*
X151149389Y-111453368D01*
X151149387Y-111453368D01*
X151142861Y-111451203D01*
X151136025Y-111450503D01*
X151136022Y-111450502D01*
X151092969Y-111446091D01*
X151038400Y-111440500D01*
X150412600Y-111440500D01*
X150409354Y-111440837D01*
X150409350Y-111440837D01*
X150313692Y-111450762D01*
X150313688Y-111450763D01*
X150306834Y-111451474D01*
X150300298Y-111453655D01*
X150300296Y-111453655D01*
X150254263Y-111469013D01*
X150139054Y-111507450D01*
X149988652Y-111600522D01*
X149863695Y-111725697D01*
X149770885Y-111876262D01*
X149768580Y-111883211D01*
X149765743Y-111889295D01*
X149718825Y-111942580D01*
X149650548Y-111962041D01*
X149582588Y-111941499D01*
X149536523Y-111887476D01*
X149525869Y-111845032D01*
X149524982Y-111832628D01*
X149524500Y-111825889D01*
X149497762Y-111734829D01*
X149485843Y-111694235D01*
X149485842Y-111694233D01*
X149483304Y-111685589D01*
X149441960Y-111621257D01*
X149409122Y-111570159D01*
X149409120Y-111570156D01*
X149404250Y-111562579D01*
X149375221Y-111537425D01*
X149296270Y-111469013D01*
X149257887Y-111409287D01*
X149257887Y-111338290D01*
X149269664Y-111310789D01*
X149301424Y-111255779D01*
X149301425Y-111255778D01*
X149304728Y-111250056D01*
X149363743Y-111068428D01*
X149383705Y-110878500D01*
X149382243Y-110864588D01*
X149364433Y-110695135D01*
X149364433Y-110695133D01*
X149363743Y-110688572D01*
X149304728Y-110506944D01*
X149209241Y-110341556D01*
X149081454Y-110199634D01*
X148952076Y-110105635D01*
X148932295Y-110091263D01*
X148932294Y-110091262D01*
X148926953Y-110087382D01*
X148920925Y-110084698D01*
X148920923Y-110084697D01*
X148758520Y-110012391D01*
X148758519Y-110012391D01*
X148752489Y-110009706D01*
X148659088Y-109989853D01*
X148572145Y-109971372D01*
X148572140Y-109971372D01*
X148565688Y-109970000D01*
X148374714Y-109970000D01*
X148368262Y-109971372D01*
X148368257Y-109971372D01*
X148281314Y-109989853D01*
X148187913Y-110009706D01*
X148181883Y-110012391D01*
X148181882Y-110012391D01*
X148077392Y-110058913D01*
X148007025Y-110068347D01*
X147952081Y-110045741D01*
X147934495Y-110032964D01*
X147929152Y-110029082D01*
X147923124Y-110026398D01*
X147923122Y-110026397D01*
X147760719Y-109954091D01*
X147760718Y-109954091D01*
X147754688Y-109951406D01*
X147697485Y-109939247D01*
X147635011Y-109905518D01*
X147600690Y-109843369D01*
X147605418Y-109772530D01*
X147647694Y-109715492D01*
X147714095Y-109690365D01*
X147723682Y-109690000D01*
X147833272Y-109690000D01*
X147841481Y-109689462D01*
X147940739Y-109676394D01*
X147954889Y-109672603D01*
X148020111Y-109672603D01*
X148034261Y-109676394D01*
X148133519Y-109689462D01*
X148141728Y-109690000D01*
X148333272Y-109690000D01*
X148341481Y-109689462D01*
X148440742Y-109676394D01*
X148456560Y-109672156D01*
X148580082Y-109620991D01*
X148594263Y-109612804D01*
X148700335Y-109531413D01*
X148711914Y-109519833D01*
X148793302Y-109413765D01*
X148801492Y-109399579D01*
X148852656Y-109276059D01*
X148856894Y-109260242D01*
X148869962Y-109160981D01*
X148870500Y-109152772D01*
X148870500Y-108740151D01*
X148890502Y-108672030D01*
X148944158Y-108625537D01*
X148952271Y-108622169D01*
X149050552Y-108585325D01*
X149066149Y-108576786D01*
X149168224Y-108500285D01*
X149180785Y-108487724D01*
X149257286Y-108385649D01*
X149265824Y-108370054D01*
X149302482Y-108272270D01*
X149345124Y-108215506D01*
X149411685Y-108190806D01*
X149420464Y-108190500D01*
X149828903Y-108190499D01*
X149837424Y-108190499D01*
X149841508Y-108189961D01*
X149841514Y-108189961D01*
X149940874Y-108176881D01*
X149940876Y-108176880D01*
X149949061Y-108175803D01*
X149956690Y-108172643D01*
X149964668Y-108170505D01*
X149965132Y-108172238D01*
X149998996Y-108165500D01*
X150074387Y-108165500D01*
X150090830Y-108166578D01*
X150122523Y-108170750D01*
X150130712Y-108169672D01*
X150162397Y-108165501D01*
X150162407Y-108165500D01*
X150162408Y-108165500D01*
X150261980Y-108152391D01*
X150273187Y-108150916D01*
X150273189Y-108150915D01*
X150281374Y-108149838D01*
X150429399Y-108088524D01*
X150524595Y-108015477D01*
X150524598Y-108015474D01*
X150556510Y-107990987D01*
X150561540Y-107984432D01*
X150575975Y-107965621D01*
X150586842Y-107953230D01*
X151009960Y-107530112D01*
X151072272Y-107496086D01*
X151143087Y-107501151D01*
X151188074Y-107530035D01*
X151217829Y-107559739D01*
X151229240Y-107568751D01*
X151367243Y-107653816D01*
X151380424Y-107659963D01*
X151534710Y-107711138D01*
X151548086Y-107714005D01*
X151642438Y-107723672D01*
X151648854Y-107724000D01*
X151873885Y-107724000D01*
X151889124Y-107719525D01*
X151890329Y-107718135D01*
X151892000Y-107710452D01*
X151892000Y-107705884D01*
X152400000Y-107705884D01*
X152404475Y-107721123D01*
X152405865Y-107722328D01*
X152413548Y-107723999D01*
X152643095Y-107723999D01*
X152649614Y-107723662D01*
X152745206Y-107713743D01*
X152758600Y-107710851D01*
X152912784Y-107659412D01*
X152925962Y-107653239D01*
X153063807Y-107567937D01*
X153075208Y-107558901D01*
X153189739Y-107444171D01*
X153198751Y-107432760D01*
X153283816Y-107294757D01*
X153289963Y-107281576D01*
X153341138Y-107127290D01*
X153344005Y-107113914D01*
X153353672Y-107019562D01*
X153354000Y-107013146D01*
X153354000Y-106975615D01*
X153349525Y-106960376D01*
X153348135Y-106959171D01*
X153340452Y-106957500D01*
X152418115Y-106957500D01*
X152402876Y-106961975D01*
X152401671Y-106963365D01*
X152400000Y-106971048D01*
X152400000Y-107705884D01*
X151892000Y-107705884D01*
X151892000Y-106575500D01*
X151912002Y-106507379D01*
X151965658Y-106460886D01*
X152018000Y-106449500D01*
X153335884Y-106449500D01*
X153351123Y-106445025D01*
X153352328Y-106443635D01*
X153353999Y-106435952D01*
X153353999Y-106393905D01*
X153353662Y-106387386D01*
X153343743Y-106291794D01*
X153340851Y-106278400D01*
X153304322Y-106168907D01*
X153301738Y-106097957D01*
X153334751Y-106039936D01*
X154440723Y-104933964D01*
X154453114Y-104923097D01*
X154471926Y-104908662D01*
X154478476Y-104903636D01*
X154502963Y-104871724D01*
X154502967Y-104871720D01*
X154507815Y-104865403D01*
X154527772Y-104839393D01*
X154550762Y-104809432D01*
X154608098Y-104767566D01*
X154678969Y-104763344D01*
X154695672Y-104768427D01*
X154809001Y-104811703D01*
X154818899Y-104814579D01*
X154922250Y-104835606D01*
X154936299Y-104834410D01*
X154940000Y-104824065D01*
X154940000Y-104823517D01*
X155448000Y-104823517D01*
X155452064Y-104837359D01*
X155465478Y-104839393D01*
X155472184Y-104838534D01*
X155482262Y-104836392D01*
X155686255Y-104775191D01*
X155695842Y-104771433D01*
X155887095Y-104677739D01*
X155895945Y-104672464D01*
X156069328Y-104548792D01*
X156077200Y-104542139D01*
X156228052Y-104391812D01*
X156234730Y-104383965D01*
X156359003Y-104211020D01*
X156364313Y-104202183D01*
X156458670Y-104011267D01*
X156462469Y-104001672D01*
X156524377Y-103797910D01*
X156526555Y-103787837D01*
X156527986Y-103776962D01*
X156525775Y-103762778D01*
X156512617Y-103759000D01*
X155466115Y-103759000D01*
X155450876Y-103763475D01*
X155449671Y-103764865D01*
X155448000Y-103772548D01*
X155448000Y-104823517D01*
X154940000Y-104823517D01*
X154940000Y-103377000D01*
X154960002Y-103308879D01*
X155013658Y-103262386D01*
X155066000Y-103251000D01*
X156512344Y-103251000D01*
X156525875Y-103247027D01*
X156527180Y-103237947D01*
X156485214Y-103070875D01*
X156481894Y-103061124D01*
X156396972Y-102865814D01*
X156392105Y-102856739D01*
X156276425Y-102677923D01*
X156270136Y-102669756D01*
X156210635Y-102604366D01*
X156179583Y-102540520D01*
X156187977Y-102470022D01*
X156214733Y-102430471D01*
X156739745Y-101905459D01*
X156752136Y-101894592D01*
X156770948Y-101880157D01*
X156777498Y-101875131D01*
X156801985Y-101843219D01*
X156801989Y-101843215D01*
X156875035Y-101748020D01*
X156936349Y-101599995D01*
X156942234Y-101555291D01*
X156952011Y-101481029D01*
X156952011Y-101481024D01*
X156957261Y-101441144D01*
X156953089Y-101409451D01*
X156952011Y-101393006D01*
X156952011Y-99622647D01*
X156953089Y-99606201D01*
X156956183Y-99582699D01*
X156957261Y-99574511D01*
X156952011Y-99534631D01*
X156952011Y-99534626D01*
X156936349Y-99415661D01*
X156933990Y-99409966D01*
X156875035Y-99267635D01*
X156801988Y-99172439D01*
X156801985Y-99172436D01*
X156777498Y-99140524D01*
X156770943Y-99135494D01*
X156752132Y-99121059D01*
X156739741Y-99110192D01*
X156536979Y-98907430D01*
X156502953Y-98845118D01*
X156505516Y-98781706D01*
X156524865Y-98718022D01*
X156526370Y-98713069D01*
X156555529Y-98491590D01*
X156557156Y-98425000D01*
X156538852Y-98202361D01*
X156484431Y-97985702D01*
X156395354Y-97780840D01*
X156355906Y-97719862D01*
X156276822Y-97597617D01*
X156276820Y-97597614D01*
X156274014Y-97593277D01*
X156123670Y-97428051D01*
X156119619Y-97424852D01*
X156119615Y-97424848D01*
X155952414Y-97292800D01*
X155952410Y-97292798D01*
X155948359Y-97289598D01*
X155907053Y-97266796D01*
X155857084Y-97216364D01*
X155842312Y-97146921D01*
X155867428Y-97080516D01*
X155894780Y-97053909D01*
X155968070Y-97001632D01*
X156073860Y-96926173D01*
X156112093Y-96888074D01*
X156228435Y-96772137D01*
X156232096Y-96768489D01*
X156330156Y-96632024D01*
X156359435Y-96591277D01*
X156362453Y-96587077D01*
X156386397Y-96538631D01*
X156459136Y-96391453D01*
X156459137Y-96391451D01*
X156461430Y-96386811D01*
X156526370Y-96173069D01*
X156555529Y-95951590D01*
X156557156Y-95885000D01*
X156538852Y-95662361D01*
X156484431Y-95445702D01*
X156395354Y-95240840D01*
X156274014Y-95053277D01*
X156123670Y-94888051D01*
X156119619Y-94884852D01*
X156119615Y-94884848D01*
X155952414Y-94752800D01*
X155952410Y-94752798D01*
X155948359Y-94749598D01*
X155907053Y-94726796D01*
X155857084Y-94676364D01*
X155842312Y-94606921D01*
X155867428Y-94540516D01*
X155894780Y-94513909D01*
X155970296Y-94460044D01*
X156073860Y-94386173D01*
X156232096Y-94228489D01*
X156362453Y-94047077D01*
X156408702Y-93953500D01*
X156459136Y-93851453D01*
X156459137Y-93851451D01*
X156461430Y-93846811D01*
X156526370Y-93633069D01*
X156555529Y-93411590D01*
X156557156Y-93345000D01*
X156538852Y-93122361D01*
X156484431Y-92905702D01*
X156395354Y-92700840D01*
X156274014Y-92513277D01*
X156270532Y-92509450D01*
X156126798Y-92351488D01*
X156095746Y-92287642D01*
X156104141Y-92217143D01*
X156149317Y-92162375D01*
X156175761Y-92148706D01*
X156282297Y-92108767D01*
X156290705Y-92105615D01*
X156407261Y-92018261D01*
X156494615Y-91901705D01*
X156545745Y-91765316D01*
X156552500Y-91703134D01*
X156552500Y-89906866D01*
X156545745Y-89844684D01*
X156494615Y-89708295D01*
X156407261Y-89591739D01*
X156290705Y-89504385D01*
X156154316Y-89453255D01*
X156092134Y-89446500D01*
X154889660Y-89446500D01*
X154821539Y-89426498D01*
X154800565Y-89409595D01*
X154615930Y-89224960D01*
X154610076Y-89218695D01*
X154608292Y-89216650D01*
X154572041Y-89175095D01*
X154519760Y-89138351D01*
X154514466Y-89134419D01*
X154470173Y-89099689D01*
X154464198Y-89095004D01*
X154457282Y-89091881D01*
X154454996Y-89090497D01*
X154440315Y-89082123D01*
X154437955Y-89080858D01*
X154431741Y-89076490D01*
X154424662Y-89073730D01*
X154424660Y-89073729D01*
X154372205Y-89053278D01*
X154366136Y-89050727D01*
X154307907Y-89024435D01*
X154300440Y-89023051D01*
X154297885Y-89022250D01*
X154281632Y-89017621D01*
X154279052Y-89016958D01*
X154271971Y-89014198D01*
X154264440Y-89013207D01*
X154264438Y-89013206D01*
X154234819Y-89009307D01*
X154208619Y-89005858D01*
X154202121Y-89004828D01*
X154139294Y-88993184D01*
X154131714Y-88993621D01*
X154131713Y-88993621D01*
X154077088Y-88996771D01*
X154069834Y-88996980D01*
X150552259Y-88996980D01*
X150484138Y-88976978D01*
X150437645Y-88923322D01*
X150427541Y-88853048D01*
X150457035Y-88788468D01*
X150466167Y-88778979D01*
X150600451Y-88653319D01*
X150834140Y-88381630D01*
X150940750Y-88226512D01*
X151035190Y-88089101D01*
X151035195Y-88089094D01*
X151037120Y-88086292D01*
X151038732Y-88083298D01*
X151038737Y-88083290D01*
X151205395Y-87773772D01*
X151207017Y-87770760D01*
X151341842Y-87438724D01*
X151352142Y-87402568D01*
X151402406Y-87226114D01*
X151440020Y-87094070D01*
X151500401Y-86740828D01*
X151502511Y-86706340D01*
X151522168Y-86384928D01*
X151522278Y-86383131D01*
X151522359Y-86360000D01*
X151502979Y-86002159D01*
X151445066Y-85648505D01*
X151349297Y-85303173D01*
X151346243Y-85295497D01*
X151218052Y-84973369D01*
X151216793Y-84970205D01*
X151067078Y-84687442D01*
X151050702Y-84656513D01*
X151050698Y-84656506D01*
X151049103Y-84653494D01*
X150848190Y-84356746D01*
X150616403Y-84083432D01*
X150356454Y-83836750D01*
X150071384Y-83619585D01*
X150068472Y-83617828D01*
X150068467Y-83617825D01*
X149767443Y-83436236D01*
X149767437Y-83436233D01*
X149764528Y-83434478D01*
X149553018Y-83336298D01*
X149472208Y-83298787D01*
X149418841Y-83251963D01*
X149399261Y-83183720D01*
X149419685Y-83115724D01*
X149473627Y-83069565D01*
X149525259Y-83058500D01*
X152604633Y-83058500D01*
X152624018Y-83060000D01*
G37*
G04 #@! TD.AperFunction*
M02*
