%FSLAX45Y45*%
G04 Gerber Fmt 4.5, Leading zero omitted, Abs format (unit mm)*
G04 Created by KiCad (PCBNEW 6.0.6-3a73a75311~116~ubuntu22.04.1) date 2022-07-16 09:42:50*
%MOMM*%
%LPD*%
G01*
G04 APERTURE LIST*
%TA.AperFunction,Profile*%
%ADD10C,0.100000*%
%TD*%
%ADD11C,0.200000*%
%ADD12C,0.040000*%
%ADD13C,0.100000*%
%ADD14C,0.320000*%
G04 APERTURE END LIST*
D10*
X15684500Y-8763000D02*
G75*
G03*
X15176500Y-8255000I-508000J0D01*
G01*
X14287500Y-8255000D02*
X15176500Y-8255000D01*
X15176500Y-12192000D02*
X14287500Y-12192000D01*
X15684500Y-8763000D02*
X15684500Y-11684000D01*
X15176500Y-12192000D02*
G75*
G03*
X15684500Y-11684000I0J508000D01*
G01*
X13779500Y-11684000D02*
X13779500Y-8763000D01*
X14287500Y-8255000D02*
G75*
G03*
X13779500Y-8763000I0J-508000D01*
G01*
X13779500Y-11684000D02*
G75*
G03*
X14287500Y-12192000I508000J0D01*
G01*
D11*
D12*
X13932220Y-10711500D02*
X13972220Y-10751500D01*
X13972220Y-10711500D02*
X13932220Y-10751500D01*
X14204000Y-9949500D02*
X14244000Y-9989500D01*
X14244000Y-9949500D02*
X14204000Y-9989500D01*
X14204245Y-10711255D02*
X14244245Y-10751255D01*
X14244245Y-10711255D02*
X14204245Y-10751255D01*
X14409740Y-10457500D02*
X14449740Y-10497500D01*
X14449740Y-10457500D02*
X14409740Y-10497500D01*
X14458000Y-10711500D02*
X14498000Y-10751500D01*
X14498000Y-10711500D02*
X14458000Y-10751500D01*
X14638340Y-11062020D02*
X14678340Y-11102020D01*
X14678340Y-11062020D02*
X14638340Y-11102020D01*
X14648500Y-10228900D02*
X14688500Y-10268900D01*
X14688500Y-10228900D02*
X14648500Y-10268900D01*
X14699300Y-9964740D02*
X14739300Y-10004740D01*
X14739300Y-9964740D02*
X14699300Y-10004740D01*
X14719620Y-10660700D02*
X14759620Y-10700700D01*
X14759620Y-10660700D02*
X14719620Y-10700700D01*
X14738120Y-11067850D02*
X14778120Y-11107850D01*
X14778120Y-11067850D02*
X14738120Y-11107850D01*
X14851700Y-10198420D02*
X14891700Y-10238420D01*
X14891700Y-10198420D02*
X14851700Y-10238420D01*
X14902500Y-10965500D02*
X14942500Y-11005500D01*
X14942500Y-10965500D02*
X14902500Y-11005500D01*
X14963460Y-9949500D02*
X15003460Y-9989500D01*
X15003460Y-9949500D02*
X14963460Y-9989500D01*
D13*
X14083500Y-9080500D02*
G75*
G03*
X14083500Y-9080500I-50000J0D01*
G01*
X14083500Y-9334500D02*
G75*
G03*
X14083500Y-9334500I-50000J0D01*
G01*
X14083500Y-9588500D02*
G75*
G03*
X14083500Y-9588500I-50000J0D01*
G01*
X14083500Y-9842500D02*
G75*
G03*
X14083500Y-9842500I-50000J0D01*
G01*
X14083500Y-10096500D02*
G75*
G03*
X14083500Y-10096500I-50000J0D01*
G01*
X14083500Y-10350500D02*
G75*
G03*
X14083500Y-10350500I-50000J0D01*
G01*
X14083500Y-10604500D02*
G75*
G03*
X14083500Y-10604500I-50000J0D01*
G01*
X14083500Y-10858500D02*
G75*
G03*
X14083500Y-10858500I-50000J0D01*
G01*
X14083500Y-11112500D02*
G75*
G03*
X14083500Y-11112500I-50000J0D01*
G01*
X14083500Y-11366500D02*
G75*
G03*
X14083500Y-11366500I-50000J0D01*
G01*
X15480500Y-9080500D02*
G75*
G03*
X15480500Y-9080500I-50000J0D01*
G01*
X15480500Y-9334500D02*
G75*
G03*
X15480500Y-9334500I-50000J0D01*
G01*
X15480500Y-9588500D02*
G75*
G03*
X15480500Y-9588500I-50000J0D01*
G01*
X15480500Y-9842500D02*
G75*
G03*
X15480500Y-9842500I-50000J0D01*
G01*
X15480500Y-10096500D02*
G75*
G03*
X15480500Y-10096500I-50000J0D01*
G01*
X15480500Y-10350500D02*
G75*
G03*
X15480500Y-10350500I-50000J0D01*
G01*
D14*
X14732000Y-8476000D02*
X14732000Y-8796000D01*
X14572000Y-8636000D02*
X14892000Y-8636000D01*
X14732000Y-11651000D02*
X14732000Y-11971000D01*
X14572000Y-11811000D02*
X14892000Y-11811000D01*
D11*
X14032119Y-12507476D02*
X14032119Y-12307476D01*
X14079738Y-12307476D01*
X14108309Y-12317000D01*
X14127357Y-12336048D01*
X14136881Y-12355095D01*
X14146405Y-12393190D01*
X14146405Y-12421762D01*
X14136881Y-12459857D01*
X14127357Y-12478905D01*
X14108309Y-12497952D01*
X14079738Y-12507476D01*
X14032119Y-12507476D01*
X14232119Y-12507476D02*
X14232119Y-12374143D01*
X14232119Y-12412238D02*
X14241643Y-12393190D01*
X14251167Y-12383667D01*
X14270214Y-12374143D01*
X14289262Y-12374143D01*
X14355928Y-12507476D02*
X14355928Y-12374143D01*
X14355928Y-12307476D02*
X14346405Y-12317000D01*
X14355928Y-12326524D01*
X14365452Y-12317000D01*
X14355928Y-12307476D01*
X14355928Y-12326524D01*
X14479738Y-12507476D02*
X14460690Y-12497952D01*
X14451167Y-12478905D01*
X14451167Y-12307476D01*
X14584500Y-12507476D02*
X14565452Y-12497952D01*
X14555928Y-12478905D01*
X14555928Y-12307476D01*
X14813071Y-12507476D02*
X14813071Y-12307476D01*
X14879738Y-12450333D01*
X14946405Y-12307476D01*
X14946405Y-12507476D01*
X15127357Y-12507476D02*
X15127357Y-12402714D01*
X15117833Y-12383667D01*
X15098786Y-12374143D01*
X15060690Y-12374143D01*
X15041643Y-12383667D01*
X15127357Y-12497952D02*
X15108309Y-12507476D01*
X15060690Y-12507476D01*
X15041643Y-12497952D01*
X15032119Y-12478905D01*
X15032119Y-12459857D01*
X15041643Y-12440809D01*
X15060690Y-12431286D01*
X15108309Y-12431286D01*
X15127357Y-12421762D01*
X15222595Y-12374143D02*
X15222595Y-12574143D01*
X15222595Y-12383667D02*
X15241643Y-12374143D01*
X15279738Y-12374143D01*
X15298786Y-12383667D01*
X15308309Y-12393190D01*
X15317833Y-12412238D01*
X15317833Y-12469381D01*
X15308309Y-12488428D01*
X15298786Y-12497952D01*
X15279738Y-12507476D01*
X15241643Y-12507476D01*
X15222595Y-12497952D01*
X15403548Y-12488428D02*
X15413071Y-12497952D01*
X15403548Y-12507476D01*
X15394024Y-12497952D01*
X15403548Y-12488428D01*
X15403548Y-12507476D01*
X15403548Y-12383667D02*
X15413071Y-12393190D01*
X15403548Y-12402714D01*
X15394024Y-12393190D01*
X15403548Y-12383667D01*
X15403548Y-12402714D01*
D12*
X13734500Y-12817000D02*
X13774500Y-12857000D01*
X13774500Y-12817000D02*
X13734500Y-12857000D01*
D11*
X14070214Y-12727476D02*
X14089262Y-12727476D01*
X14108309Y-12737000D01*
X14117833Y-12746524D01*
X14127357Y-12765571D01*
X14136881Y-12803667D01*
X14136881Y-12851286D01*
X14127357Y-12889381D01*
X14117833Y-12908428D01*
X14108309Y-12917952D01*
X14089262Y-12927476D01*
X14070214Y-12927476D01*
X14051167Y-12917952D01*
X14041643Y-12908428D01*
X14032119Y-12889381D01*
X14022595Y-12851286D01*
X14022595Y-12803667D01*
X14032119Y-12765571D01*
X14041643Y-12746524D01*
X14051167Y-12737000D01*
X14070214Y-12727476D01*
X14222595Y-12908428D02*
X14232119Y-12917952D01*
X14222595Y-12927476D01*
X14213071Y-12917952D01*
X14222595Y-12908428D01*
X14222595Y-12927476D01*
X14403548Y-12794143D02*
X14403548Y-12927476D01*
X14355928Y-12717952D02*
X14308309Y-12860809D01*
X14432119Y-12860809D01*
X14546405Y-12727476D02*
X14565452Y-12727476D01*
X14584500Y-12737000D01*
X14594024Y-12746524D01*
X14603548Y-12765571D01*
X14613071Y-12803667D01*
X14613071Y-12851286D01*
X14603548Y-12889381D01*
X14594024Y-12908428D01*
X14584500Y-12917952D01*
X14565452Y-12927476D01*
X14546405Y-12927476D01*
X14527357Y-12917952D01*
X14517833Y-12908428D01*
X14508309Y-12889381D01*
X14498786Y-12851286D01*
X14498786Y-12803667D01*
X14508309Y-12765571D01*
X14517833Y-12746524D01*
X14527357Y-12737000D01*
X14546405Y-12727476D01*
X14736881Y-12727476D02*
X14755928Y-12727476D01*
X14774976Y-12737000D01*
X14784500Y-12746524D01*
X14794024Y-12765571D01*
X14803548Y-12803667D01*
X14803548Y-12851286D01*
X14794024Y-12889381D01*
X14784500Y-12908428D01*
X14774976Y-12917952D01*
X14755928Y-12927476D01*
X14736881Y-12927476D01*
X14717833Y-12917952D01*
X14708309Y-12908428D01*
X14698786Y-12889381D01*
X14689262Y-12851286D01*
X14689262Y-12803667D01*
X14698786Y-12765571D01*
X14708309Y-12746524D01*
X14717833Y-12737000D01*
X14736881Y-12727476D01*
X14889262Y-12927476D02*
X14889262Y-12794143D01*
X14889262Y-12813190D02*
X14898786Y-12803667D01*
X14917833Y-12794143D01*
X14946405Y-12794143D01*
X14965452Y-12803667D01*
X14974976Y-12822714D01*
X14974976Y-12927476D01*
X14974976Y-12822714D02*
X14984500Y-12803667D01*
X15003548Y-12794143D01*
X15032119Y-12794143D01*
X15051167Y-12803667D01*
X15060690Y-12822714D01*
X15060690Y-12927476D01*
X15155928Y-12927476D02*
X15155928Y-12794143D01*
X15155928Y-12813190D02*
X15165452Y-12803667D01*
X15184500Y-12794143D01*
X15213071Y-12794143D01*
X15232119Y-12803667D01*
X15241643Y-12822714D01*
X15241643Y-12927476D01*
X15241643Y-12822714D02*
X15251167Y-12803667D01*
X15270214Y-12794143D01*
X15298786Y-12794143D01*
X15317833Y-12803667D01*
X15327357Y-12822714D01*
X15327357Y-12927476D01*
X15717833Y-12717952D02*
X15546405Y-12975095D01*
X15974976Y-12727476D02*
X15994024Y-12727476D01*
X16013071Y-12737000D01*
X16022595Y-12746524D01*
X16032119Y-12765571D01*
X16041643Y-12803667D01*
X16041643Y-12851286D01*
X16032119Y-12889381D01*
X16022595Y-12908428D01*
X16013071Y-12917952D01*
X15994024Y-12927476D01*
X15974976Y-12927476D01*
X15955928Y-12917952D01*
X15946405Y-12908428D01*
X15936881Y-12889381D01*
X15927357Y-12851286D01*
X15927357Y-12803667D01*
X15936881Y-12765571D01*
X15946405Y-12746524D01*
X15955928Y-12737000D01*
X15974976Y-12727476D01*
X16127357Y-12908428D02*
X16136881Y-12917952D01*
X16127357Y-12927476D01*
X16117833Y-12917952D01*
X16127357Y-12908428D01*
X16127357Y-12927476D01*
X16260690Y-12727476D02*
X16279738Y-12727476D01*
X16298786Y-12737000D01*
X16308309Y-12746524D01*
X16317833Y-12765571D01*
X16327357Y-12803667D01*
X16327357Y-12851286D01*
X16317833Y-12889381D01*
X16308309Y-12908428D01*
X16298786Y-12917952D01*
X16279738Y-12927476D01*
X16260690Y-12927476D01*
X16241643Y-12917952D01*
X16232119Y-12908428D01*
X16222595Y-12889381D01*
X16213071Y-12851286D01*
X16213071Y-12803667D01*
X16222595Y-12765571D01*
X16232119Y-12746524D01*
X16241643Y-12737000D01*
X16260690Y-12727476D01*
X16517833Y-12927476D02*
X16403548Y-12927476D01*
X16460690Y-12927476D02*
X16460690Y-12727476D01*
X16441643Y-12756048D01*
X16422595Y-12775095D01*
X16403548Y-12784619D01*
X16698786Y-12727476D02*
X16603548Y-12727476D01*
X16594024Y-12822714D01*
X16603548Y-12813190D01*
X16622595Y-12803667D01*
X16670214Y-12803667D01*
X16689262Y-12813190D01*
X16698786Y-12822714D01*
X16708309Y-12841762D01*
X16708309Y-12889381D01*
X16698786Y-12908428D01*
X16689262Y-12917952D01*
X16670214Y-12927476D01*
X16622595Y-12927476D01*
X16603548Y-12917952D01*
X16594024Y-12908428D01*
X16774976Y-12727476D02*
X16908310Y-12727476D01*
X16822595Y-12927476D01*
X16974976Y-12727476D02*
X16974976Y-12765571D01*
X17051167Y-12727476D02*
X17051167Y-12765571D01*
X17346405Y-13003667D02*
X17336881Y-12994143D01*
X17317833Y-12965571D01*
X17308310Y-12946524D01*
X17298786Y-12917952D01*
X17289262Y-12870333D01*
X17289262Y-12832238D01*
X17298786Y-12784619D01*
X17308310Y-12756048D01*
X17317833Y-12737000D01*
X17336881Y-12708428D01*
X17346405Y-12698905D01*
X17527357Y-12927476D02*
X17413071Y-12927476D01*
X17470214Y-12927476D02*
X17470214Y-12727476D01*
X17451167Y-12756048D01*
X17432119Y-12775095D01*
X17413071Y-12784619D01*
X17594024Y-12727476D02*
X17717833Y-12727476D01*
X17651167Y-12803667D01*
X17679738Y-12803667D01*
X17698786Y-12813190D01*
X17708310Y-12822714D01*
X17717833Y-12841762D01*
X17717833Y-12889381D01*
X17708310Y-12908428D01*
X17698786Y-12917952D01*
X17679738Y-12927476D01*
X17622595Y-12927476D01*
X17603548Y-12917952D01*
X17594024Y-12908428D01*
X17955929Y-12927476D02*
X17955929Y-12727476D01*
X18041643Y-12927476D02*
X18041643Y-12822714D01*
X18032119Y-12803667D01*
X18013071Y-12794143D01*
X17984500Y-12794143D01*
X17965452Y-12803667D01*
X17955929Y-12813190D01*
X18165452Y-12927476D02*
X18146405Y-12917952D01*
X18136881Y-12908428D01*
X18127357Y-12889381D01*
X18127357Y-12832238D01*
X18136881Y-12813190D01*
X18146405Y-12803667D01*
X18165452Y-12794143D01*
X18194024Y-12794143D01*
X18213071Y-12803667D01*
X18222595Y-12813190D01*
X18232119Y-12832238D01*
X18232119Y-12889381D01*
X18222595Y-12908428D01*
X18213071Y-12917952D01*
X18194024Y-12927476D01*
X18165452Y-12927476D01*
X18346405Y-12927476D02*
X18327357Y-12917952D01*
X18317833Y-12898905D01*
X18317833Y-12727476D01*
X18498786Y-12917952D02*
X18479738Y-12927476D01*
X18441643Y-12927476D01*
X18422595Y-12917952D01*
X18413071Y-12898905D01*
X18413071Y-12822714D01*
X18422595Y-12803667D01*
X18441643Y-12794143D01*
X18479738Y-12794143D01*
X18498786Y-12803667D01*
X18508310Y-12822714D01*
X18508310Y-12841762D01*
X18413071Y-12860809D01*
X18584500Y-12917952D02*
X18603548Y-12927476D01*
X18641643Y-12927476D01*
X18660690Y-12917952D01*
X18670214Y-12898905D01*
X18670214Y-12889381D01*
X18660690Y-12870333D01*
X18641643Y-12860809D01*
X18613071Y-12860809D01*
X18594024Y-12851286D01*
X18584500Y-12832238D01*
X18584500Y-12822714D01*
X18594024Y-12803667D01*
X18613071Y-12794143D01*
X18641643Y-12794143D01*
X18660690Y-12803667D01*
X18736881Y-13003667D02*
X18746405Y-12994143D01*
X18765452Y-12965571D01*
X18774976Y-12946524D01*
X18784500Y-12917952D01*
X18794024Y-12870333D01*
X18794024Y-12832238D01*
X18784500Y-12784619D01*
X18774976Y-12756048D01*
X18765452Y-12737000D01*
X18746405Y-12708428D01*
X18736881Y-12698905D01*
D13*
X13774500Y-13101000D02*
G75*
G03*
X13774500Y-13101000I-50000J0D01*
G01*
D11*
X14136881Y-13191476D02*
X14022595Y-13191476D01*
X14079738Y-13191476D02*
X14079738Y-12991476D01*
X14060690Y-13020048D01*
X14041643Y-13039095D01*
X14022595Y-13048619D01*
X14222595Y-13172428D02*
X14232119Y-13181952D01*
X14222595Y-13191476D01*
X14213071Y-13181952D01*
X14222595Y-13172428D01*
X14222595Y-13191476D01*
X14355928Y-12991476D02*
X14374976Y-12991476D01*
X14394024Y-13001000D01*
X14403548Y-13010524D01*
X14413071Y-13029571D01*
X14422595Y-13067667D01*
X14422595Y-13115286D01*
X14413071Y-13153381D01*
X14403548Y-13172428D01*
X14394024Y-13181952D01*
X14374976Y-13191476D01*
X14355928Y-13191476D01*
X14336881Y-13181952D01*
X14327357Y-13172428D01*
X14317833Y-13153381D01*
X14308309Y-13115286D01*
X14308309Y-13067667D01*
X14317833Y-13029571D01*
X14327357Y-13010524D01*
X14336881Y-13001000D01*
X14355928Y-12991476D01*
X14546405Y-12991476D02*
X14565452Y-12991476D01*
X14584500Y-13001000D01*
X14594024Y-13010524D01*
X14603548Y-13029571D01*
X14613071Y-13067667D01*
X14613071Y-13115286D01*
X14603548Y-13153381D01*
X14594024Y-13172428D01*
X14584500Y-13181952D01*
X14565452Y-13191476D01*
X14546405Y-13191476D01*
X14527357Y-13181952D01*
X14517833Y-13172428D01*
X14508309Y-13153381D01*
X14498786Y-13115286D01*
X14498786Y-13067667D01*
X14508309Y-13029571D01*
X14517833Y-13010524D01*
X14527357Y-13001000D01*
X14546405Y-12991476D01*
X14736881Y-12991476D02*
X14755928Y-12991476D01*
X14774976Y-13001000D01*
X14784500Y-13010524D01*
X14794024Y-13029571D01*
X14803548Y-13067667D01*
X14803548Y-13115286D01*
X14794024Y-13153381D01*
X14784500Y-13172428D01*
X14774976Y-13181952D01*
X14755928Y-13191476D01*
X14736881Y-13191476D01*
X14717833Y-13181952D01*
X14708309Y-13172428D01*
X14698786Y-13153381D01*
X14689262Y-13115286D01*
X14689262Y-13067667D01*
X14698786Y-13029571D01*
X14708309Y-13010524D01*
X14717833Y-13001000D01*
X14736881Y-12991476D01*
X14889262Y-13191476D02*
X14889262Y-13058143D01*
X14889262Y-13077190D02*
X14898786Y-13067667D01*
X14917833Y-13058143D01*
X14946405Y-13058143D01*
X14965452Y-13067667D01*
X14974976Y-13086714D01*
X14974976Y-13191476D01*
X14974976Y-13086714D02*
X14984500Y-13067667D01*
X15003548Y-13058143D01*
X15032119Y-13058143D01*
X15051167Y-13067667D01*
X15060690Y-13086714D01*
X15060690Y-13191476D01*
X15155928Y-13191476D02*
X15155928Y-13058143D01*
X15155928Y-13077190D02*
X15165452Y-13067667D01*
X15184500Y-13058143D01*
X15213071Y-13058143D01*
X15232119Y-13067667D01*
X15241643Y-13086714D01*
X15241643Y-13191476D01*
X15241643Y-13086714D02*
X15251167Y-13067667D01*
X15270214Y-13058143D01*
X15298786Y-13058143D01*
X15317833Y-13067667D01*
X15327357Y-13086714D01*
X15327357Y-13191476D01*
X15717833Y-12981952D02*
X15546405Y-13239095D01*
X15974976Y-12991476D02*
X15994024Y-12991476D01*
X16013071Y-13001000D01*
X16022595Y-13010524D01*
X16032119Y-13029571D01*
X16041643Y-13067667D01*
X16041643Y-13115286D01*
X16032119Y-13153381D01*
X16022595Y-13172428D01*
X16013071Y-13181952D01*
X15994024Y-13191476D01*
X15974976Y-13191476D01*
X15955928Y-13181952D01*
X15946405Y-13172428D01*
X15936881Y-13153381D01*
X15927357Y-13115286D01*
X15927357Y-13067667D01*
X15936881Y-13029571D01*
X15946405Y-13010524D01*
X15955928Y-13001000D01*
X15974976Y-12991476D01*
X16127357Y-13172428D02*
X16136881Y-13181952D01*
X16127357Y-13191476D01*
X16117833Y-13181952D01*
X16127357Y-13172428D01*
X16127357Y-13191476D01*
X16260690Y-12991476D02*
X16279738Y-12991476D01*
X16298786Y-13001000D01*
X16308309Y-13010524D01*
X16317833Y-13029571D01*
X16327357Y-13067667D01*
X16327357Y-13115286D01*
X16317833Y-13153381D01*
X16308309Y-13172428D01*
X16298786Y-13181952D01*
X16279738Y-13191476D01*
X16260690Y-13191476D01*
X16241643Y-13181952D01*
X16232119Y-13172428D01*
X16222595Y-13153381D01*
X16213071Y-13115286D01*
X16213071Y-13067667D01*
X16222595Y-13029571D01*
X16232119Y-13010524D01*
X16241643Y-13001000D01*
X16260690Y-12991476D01*
X16394024Y-12991476D02*
X16517833Y-12991476D01*
X16451167Y-13067667D01*
X16479738Y-13067667D01*
X16498786Y-13077190D01*
X16508309Y-13086714D01*
X16517833Y-13105762D01*
X16517833Y-13153381D01*
X16508309Y-13172428D01*
X16498786Y-13181952D01*
X16479738Y-13191476D01*
X16422595Y-13191476D01*
X16403548Y-13181952D01*
X16394024Y-13172428D01*
X16613071Y-13191476D02*
X16651167Y-13191476D01*
X16670214Y-13181952D01*
X16679738Y-13172428D01*
X16698786Y-13143857D01*
X16708309Y-13105762D01*
X16708309Y-13029571D01*
X16698786Y-13010524D01*
X16689262Y-13001000D01*
X16670214Y-12991476D01*
X16632119Y-12991476D01*
X16613071Y-13001000D01*
X16603548Y-13010524D01*
X16594024Y-13029571D01*
X16594024Y-13077190D01*
X16603548Y-13096238D01*
X16613071Y-13105762D01*
X16632119Y-13115286D01*
X16670214Y-13115286D01*
X16689262Y-13105762D01*
X16698786Y-13096238D01*
X16708309Y-13077190D01*
X16879738Y-13058143D02*
X16879738Y-13191476D01*
X16832119Y-12981952D02*
X16784500Y-13124809D01*
X16908310Y-13124809D01*
X16974976Y-12991476D02*
X16974976Y-13029571D01*
X17051167Y-12991476D02*
X17051167Y-13029571D01*
X17346405Y-13267667D02*
X17336881Y-13258143D01*
X17317833Y-13229571D01*
X17308310Y-13210524D01*
X17298786Y-13181952D01*
X17289262Y-13134333D01*
X17289262Y-13096238D01*
X17298786Y-13048619D01*
X17308310Y-13020048D01*
X17317833Y-13001000D01*
X17336881Y-12972428D01*
X17346405Y-12962905D01*
X17527357Y-13191476D02*
X17413071Y-13191476D01*
X17470214Y-13191476D02*
X17470214Y-12991476D01*
X17451167Y-13020048D01*
X17432119Y-13039095D01*
X17413071Y-13048619D01*
X17698786Y-12991476D02*
X17660690Y-12991476D01*
X17641643Y-13001000D01*
X17632119Y-13010524D01*
X17613071Y-13039095D01*
X17603548Y-13077190D01*
X17603548Y-13153381D01*
X17613071Y-13172428D01*
X17622595Y-13181952D01*
X17641643Y-13191476D01*
X17679738Y-13191476D01*
X17698786Y-13181952D01*
X17708310Y-13172428D01*
X17717833Y-13153381D01*
X17717833Y-13105762D01*
X17708310Y-13086714D01*
X17698786Y-13077190D01*
X17679738Y-13067667D01*
X17641643Y-13067667D01*
X17622595Y-13077190D01*
X17613071Y-13086714D01*
X17603548Y-13105762D01*
X17955929Y-13191476D02*
X17955929Y-12991476D01*
X18041643Y-13191476D02*
X18041643Y-13086714D01*
X18032119Y-13067667D01*
X18013071Y-13058143D01*
X17984500Y-13058143D01*
X17965452Y-13067667D01*
X17955929Y-13077190D01*
X18165452Y-13191476D02*
X18146405Y-13181952D01*
X18136881Y-13172428D01*
X18127357Y-13153381D01*
X18127357Y-13096238D01*
X18136881Y-13077190D01*
X18146405Y-13067667D01*
X18165452Y-13058143D01*
X18194024Y-13058143D01*
X18213071Y-13067667D01*
X18222595Y-13077190D01*
X18232119Y-13096238D01*
X18232119Y-13153381D01*
X18222595Y-13172428D01*
X18213071Y-13181952D01*
X18194024Y-13191476D01*
X18165452Y-13191476D01*
X18346405Y-13191476D02*
X18327357Y-13181952D01*
X18317833Y-13162905D01*
X18317833Y-12991476D01*
X18498786Y-13181952D02*
X18479738Y-13191476D01*
X18441643Y-13191476D01*
X18422595Y-13181952D01*
X18413071Y-13162905D01*
X18413071Y-13086714D01*
X18422595Y-13067667D01*
X18441643Y-13058143D01*
X18479738Y-13058143D01*
X18498786Y-13067667D01*
X18508310Y-13086714D01*
X18508310Y-13105762D01*
X18413071Y-13124809D01*
X18584500Y-13181952D02*
X18603548Y-13191476D01*
X18641643Y-13191476D01*
X18660690Y-13181952D01*
X18670214Y-13162905D01*
X18670214Y-13153381D01*
X18660690Y-13134333D01*
X18641643Y-13124809D01*
X18613071Y-13124809D01*
X18594024Y-13115286D01*
X18584500Y-13096238D01*
X18584500Y-13086714D01*
X18594024Y-13067667D01*
X18613071Y-13058143D01*
X18641643Y-13058143D01*
X18660690Y-13067667D01*
X18736881Y-13267667D02*
X18746405Y-13258143D01*
X18765452Y-13229571D01*
X18774976Y-13210524D01*
X18784500Y-13181952D01*
X18794024Y-13134333D01*
X18794024Y-13096238D01*
X18784500Y-13048619D01*
X18774976Y-13020048D01*
X18765452Y-13001000D01*
X18746405Y-12972428D01*
X18736881Y-12962905D01*
X13674500Y-13265000D02*
X13674500Y-13465000D01*
X13574500Y-13365000D02*
X13774500Y-13365000D01*
X14013071Y-13255476D02*
X14136881Y-13255476D01*
X14070214Y-13331667D01*
X14098786Y-13331667D01*
X14117833Y-13341190D01*
X14127357Y-13350714D01*
X14136881Y-13369762D01*
X14136881Y-13417381D01*
X14127357Y-13436428D01*
X14117833Y-13445952D01*
X14098786Y-13455476D01*
X14041643Y-13455476D01*
X14022595Y-13445952D01*
X14013071Y-13436428D01*
X14222595Y-13436428D02*
X14232119Y-13445952D01*
X14222595Y-13455476D01*
X14213071Y-13445952D01*
X14222595Y-13436428D01*
X14222595Y-13455476D01*
X14308309Y-13274524D02*
X14317833Y-13265000D01*
X14336881Y-13255476D01*
X14384500Y-13255476D01*
X14403548Y-13265000D01*
X14413071Y-13274524D01*
X14422595Y-13293571D01*
X14422595Y-13312619D01*
X14413071Y-13341190D01*
X14298786Y-13455476D01*
X14422595Y-13455476D01*
X14546405Y-13255476D02*
X14565452Y-13255476D01*
X14584500Y-13265000D01*
X14594024Y-13274524D01*
X14603548Y-13293571D01*
X14613071Y-13331667D01*
X14613071Y-13379286D01*
X14603548Y-13417381D01*
X14594024Y-13436428D01*
X14584500Y-13445952D01*
X14565452Y-13455476D01*
X14546405Y-13455476D01*
X14527357Y-13445952D01*
X14517833Y-13436428D01*
X14508309Y-13417381D01*
X14498786Y-13379286D01*
X14498786Y-13331667D01*
X14508309Y-13293571D01*
X14517833Y-13274524D01*
X14527357Y-13265000D01*
X14546405Y-13255476D01*
X14736881Y-13255476D02*
X14755928Y-13255476D01*
X14774976Y-13265000D01*
X14784500Y-13274524D01*
X14794024Y-13293571D01*
X14803548Y-13331667D01*
X14803548Y-13379286D01*
X14794024Y-13417381D01*
X14784500Y-13436428D01*
X14774976Y-13445952D01*
X14755928Y-13455476D01*
X14736881Y-13455476D01*
X14717833Y-13445952D01*
X14708309Y-13436428D01*
X14698786Y-13417381D01*
X14689262Y-13379286D01*
X14689262Y-13331667D01*
X14698786Y-13293571D01*
X14708309Y-13274524D01*
X14717833Y-13265000D01*
X14736881Y-13255476D01*
X14889262Y-13455476D02*
X14889262Y-13322143D01*
X14889262Y-13341190D02*
X14898786Y-13331667D01*
X14917833Y-13322143D01*
X14946405Y-13322143D01*
X14965452Y-13331667D01*
X14974976Y-13350714D01*
X14974976Y-13455476D01*
X14974976Y-13350714D02*
X14984500Y-13331667D01*
X15003548Y-13322143D01*
X15032119Y-13322143D01*
X15051167Y-13331667D01*
X15060690Y-13350714D01*
X15060690Y-13455476D01*
X15155928Y-13455476D02*
X15155928Y-13322143D01*
X15155928Y-13341190D02*
X15165452Y-13331667D01*
X15184500Y-13322143D01*
X15213071Y-13322143D01*
X15232119Y-13331667D01*
X15241643Y-13350714D01*
X15241643Y-13455476D01*
X15241643Y-13350714D02*
X15251167Y-13331667D01*
X15270214Y-13322143D01*
X15298786Y-13322143D01*
X15317833Y-13331667D01*
X15327357Y-13350714D01*
X15327357Y-13455476D01*
X15717833Y-13245952D02*
X15546405Y-13503095D01*
X15974976Y-13255476D02*
X15994024Y-13255476D01*
X16013071Y-13265000D01*
X16022595Y-13274524D01*
X16032119Y-13293571D01*
X16041643Y-13331667D01*
X16041643Y-13379286D01*
X16032119Y-13417381D01*
X16022595Y-13436428D01*
X16013071Y-13445952D01*
X15994024Y-13455476D01*
X15974976Y-13455476D01*
X15955928Y-13445952D01*
X15946405Y-13436428D01*
X15936881Y-13417381D01*
X15927357Y-13379286D01*
X15927357Y-13331667D01*
X15936881Y-13293571D01*
X15946405Y-13274524D01*
X15955928Y-13265000D01*
X15974976Y-13255476D01*
X16127357Y-13436428D02*
X16136881Y-13445952D01*
X16127357Y-13455476D01*
X16117833Y-13445952D01*
X16127357Y-13436428D01*
X16127357Y-13455476D01*
X16327357Y-13455476D02*
X16213071Y-13455476D01*
X16270214Y-13455476D02*
X16270214Y-13255476D01*
X16251167Y-13284048D01*
X16232119Y-13303095D01*
X16213071Y-13312619D01*
X16403548Y-13274524D02*
X16413071Y-13265000D01*
X16432119Y-13255476D01*
X16479738Y-13255476D01*
X16498786Y-13265000D01*
X16508309Y-13274524D01*
X16517833Y-13293571D01*
X16517833Y-13312619D01*
X16508309Y-13341190D01*
X16394024Y-13455476D01*
X16517833Y-13455476D01*
X16689262Y-13255476D02*
X16651167Y-13255476D01*
X16632119Y-13265000D01*
X16622595Y-13274524D01*
X16603548Y-13303095D01*
X16594024Y-13341190D01*
X16594024Y-13417381D01*
X16603548Y-13436428D01*
X16613071Y-13445952D01*
X16632119Y-13455476D01*
X16670214Y-13455476D01*
X16689262Y-13445952D01*
X16698786Y-13436428D01*
X16708309Y-13417381D01*
X16708309Y-13369762D01*
X16698786Y-13350714D01*
X16689262Y-13341190D01*
X16670214Y-13331667D01*
X16632119Y-13331667D01*
X16613071Y-13341190D01*
X16603548Y-13350714D01*
X16594024Y-13369762D01*
X16832119Y-13255476D02*
X16851167Y-13255476D01*
X16870214Y-13265000D01*
X16879738Y-13274524D01*
X16889262Y-13293571D01*
X16898786Y-13331667D01*
X16898786Y-13379286D01*
X16889262Y-13417381D01*
X16879738Y-13436428D01*
X16870214Y-13445952D01*
X16851167Y-13455476D01*
X16832119Y-13455476D01*
X16813071Y-13445952D01*
X16803548Y-13436428D01*
X16794024Y-13417381D01*
X16784500Y-13379286D01*
X16784500Y-13331667D01*
X16794024Y-13293571D01*
X16803548Y-13274524D01*
X16813071Y-13265000D01*
X16832119Y-13255476D01*
X16974976Y-13255476D02*
X16974976Y-13293571D01*
X17051167Y-13255476D02*
X17051167Y-13293571D01*
X17346405Y-13531667D02*
X17336881Y-13522143D01*
X17317833Y-13493571D01*
X17308310Y-13474524D01*
X17298786Y-13445952D01*
X17289262Y-13398333D01*
X17289262Y-13360238D01*
X17298786Y-13312619D01*
X17308310Y-13284048D01*
X17317833Y-13265000D01*
X17336881Y-13236428D01*
X17346405Y-13226905D01*
X17413071Y-13274524D02*
X17422595Y-13265000D01*
X17441643Y-13255476D01*
X17489262Y-13255476D01*
X17508310Y-13265000D01*
X17517833Y-13274524D01*
X17527357Y-13293571D01*
X17527357Y-13312619D01*
X17517833Y-13341190D01*
X17403548Y-13455476D01*
X17527357Y-13455476D01*
X17765452Y-13455476D02*
X17765452Y-13255476D01*
X17851167Y-13455476D02*
X17851167Y-13350714D01*
X17841643Y-13331667D01*
X17822595Y-13322143D01*
X17794024Y-13322143D01*
X17774976Y-13331667D01*
X17765452Y-13341190D01*
X17974976Y-13455476D02*
X17955929Y-13445952D01*
X17946405Y-13436428D01*
X17936881Y-13417381D01*
X17936881Y-13360238D01*
X17946405Y-13341190D01*
X17955929Y-13331667D01*
X17974976Y-13322143D01*
X18003548Y-13322143D01*
X18022595Y-13331667D01*
X18032119Y-13341190D01*
X18041643Y-13360238D01*
X18041643Y-13417381D01*
X18032119Y-13436428D01*
X18022595Y-13445952D01*
X18003548Y-13455476D01*
X17974976Y-13455476D01*
X18155929Y-13455476D02*
X18136881Y-13445952D01*
X18127357Y-13426905D01*
X18127357Y-13255476D01*
X18308310Y-13445952D02*
X18289262Y-13455476D01*
X18251167Y-13455476D01*
X18232119Y-13445952D01*
X18222595Y-13426905D01*
X18222595Y-13350714D01*
X18232119Y-13331667D01*
X18251167Y-13322143D01*
X18289262Y-13322143D01*
X18308310Y-13331667D01*
X18317833Y-13350714D01*
X18317833Y-13369762D01*
X18222595Y-13388809D01*
X18394024Y-13445952D02*
X18413071Y-13455476D01*
X18451167Y-13455476D01*
X18470214Y-13445952D01*
X18479738Y-13426905D01*
X18479738Y-13417381D01*
X18470214Y-13398333D01*
X18451167Y-13388809D01*
X18422595Y-13388809D01*
X18403548Y-13379286D01*
X18394024Y-13360238D01*
X18394024Y-13350714D01*
X18403548Y-13331667D01*
X18422595Y-13322143D01*
X18451167Y-13322143D01*
X18470214Y-13331667D01*
X18546405Y-13531667D02*
X18555929Y-13522143D01*
X18574976Y-13493571D01*
X18584500Y-13474524D01*
X18594024Y-13445952D01*
X18603548Y-13398333D01*
X18603548Y-13360238D01*
X18594024Y-13312619D01*
X18584500Y-13284048D01*
X18574976Y-13265000D01*
X18555929Y-13236428D01*
X18546405Y-13226905D01*
M02*
