G04 #@! TF.GenerationSoftware,KiCad,Pcbnew,6.0.6-3a73a75311~116~ubuntu22.04.1*
G04 #@! TF.CreationDate,2022-06-23T15:23:09-04:00*
G04 #@! TF.ProjectId,ltc4332_breakout,6c746334-3333-4325-9f62-7265616b6f75,0*
G04 #@! TF.SameCoordinates,Original*
G04 #@! TF.FileFunction,Copper,L2,Bot*
G04 #@! TF.FilePolarity,Positive*
%FSLAX46Y46*%
G04 Gerber Fmt 4.6, Leading zero omitted, Abs format (unit mm)*
G04 Created by KiCad (PCBNEW 6.0.6-3a73a75311~116~ubuntu22.04.1) date 2022-06-23 15:23:09*
%MOMM*%
%LPD*%
G01*
G04 APERTURE LIST*
G04 #@! TA.AperFunction,ComponentPad*
%ADD10R,1.700000X1.700000*%
G04 #@! TD*
G04 #@! TA.AperFunction,ComponentPad*
%ADD11O,1.700000X1.700000*%
G04 #@! TD*
G04 #@! TA.AperFunction,ComponentPad*
%ADD12C,5.600000*%
G04 #@! TD*
G04 #@! TA.AperFunction,ViaPad*
%ADD13C,0.800000*%
G04 #@! TD*
G04 #@! TA.AperFunction,Conductor*
%ADD14C,0.200000*%
G04 #@! TD*
G04 APERTURE END LIST*
D10*
X141224000Y-90805000D03*
D11*
X141224000Y-93345000D03*
X141224000Y-95885000D03*
X141224000Y-98425000D03*
X141224000Y-100965000D03*
X141224000Y-103505000D03*
X141224000Y-106045000D03*
X141224000Y-108585000D03*
X141224000Y-111125000D03*
X141224000Y-113665000D03*
D10*
X155194000Y-90805000D03*
D11*
X155194000Y-93345000D03*
X155194000Y-95885000D03*
X155194000Y-98425000D03*
X155194000Y-100965000D03*
X155194000Y-103505000D03*
D12*
X147574000Y-118110000D03*
X148209000Y-86360000D03*
D13*
X150723600Y-99695000D03*
X147472400Y-110820200D03*
X148082000Y-99847400D03*
X149606000Y-102184200D03*
X150114000Y-109855000D03*
X143129000Y-99695000D03*
X148285200Y-106807000D03*
X145669000Y-107315000D03*
X143131454Y-107312546D03*
X140411200Y-107315000D03*
X145186400Y-104775000D03*
X147574000Y-102489000D03*
X148470201Y-110878500D03*
D14*
X147472400Y-110820200D02*
X146761200Y-110109000D01*
X150723600Y-99695000D02*
X150571200Y-99847400D01*
X150571200Y-99847400D02*
X148082000Y-99847400D01*
X146761200Y-101168200D02*
X148082000Y-99847400D01*
X146761200Y-110109000D02*
X146761200Y-101168200D01*
X140411200Y-107315000D02*
X143129000Y-107315000D01*
X143129000Y-107315000D02*
X143131454Y-107312546D01*
X143916400Y-108432600D02*
X143916400Y-106045000D01*
X141224000Y-111125000D02*
X143916400Y-108432600D01*
X143916400Y-106045000D02*
X145186400Y-104775000D01*
X148470201Y-110878500D02*
X148470201Y-110828756D01*
X148470201Y-110828756D02*
X147167600Y-109526155D01*
X147167600Y-102895400D02*
X147574000Y-102489000D01*
X147167600Y-109526155D02*
X147167600Y-102895400D01*
G04 #@! TA.AperFunction,Conductor*
G36*
X146962008Y-83078502D02*
G01*
X147008501Y-83132158D01*
X147018605Y-83202432D01*
X146989111Y-83267012D01*
X146946538Y-83298972D01*
X146663694Y-83429066D01*
X146660760Y-83430822D01*
X146660758Y-83430823D01*
X146562955Y-83489357D01*
X146356193Y-83613101D01*
X146353467Y-83615163D01*
X146353465Y-83615164D01*
X146347620Y-83619585D01*
X146070367Y-83829270D01*
X145809559Y-84075043D01*
X145807347Y-84077633D01*
X145807345Y-84077635D01*
X145748874Y-84146096D01*
X145576819Y-84347546D01*
X145574900Y-84350358D01*
X145574897Y-84350363D01*
X145481624Y-84487097D01*
X145374871Y-84643591D01*
X145206077Y-84959714D01*
X145072411Y-85292218D01*
X145071491Y-85295492D01*
X145071489Y-85295497D01*
X145069332Y-85303173D01*
X144975437Y-85637213D01*
X144916290Y-85990663D01*
X144895661Y-86348434D01*
X144895833Y-86351829D01*
X144895833Y-86351830D01*
X144913620Y-86702945D01*
X144913792Y-86706340D01*
X144914329Y-86709695D01*
X144914330Y-86709701D01*
X144933726Y-86830795D01*
X144970470Y-87060195D01*
X145065033Y-87405859D01*
X145196374Y-87739288D01*
X145362957Y-88056582D01*
X145364858Y-88059411D01*
X145364864Y-88059421D01*
X145548569Y-88332800D01*
X145562834Y-88354029D01*
X145793665Y-88628150D01*
X146052751Y-88875738D01*
X146337061Y-89093897D01*
X146369056Y-89113350D01*
X146640355Y-89278303D01*
X146640360Y-89278306D01*
X146643270Y-89280075D01*
X146646358Y-89281521D01*
X146646357Y-89281521D01*
X146964710Y-89430649D01*
X146964720Y-89430653D01*
X146967794Y-89432093D01*
X146971012Y-89433195D01*
X146971015Y-89433196D01*
X147303615Y-89547071D01*
X147303623Y-89547073D01*
X147306838Y-89548174D01*
X147656435Y-89626959D01*
X147708728Y-89632917D01*
X148009114Y-89667142D01*
X148009122Y-89667142D01*
X148012497Y-89667527D01*
X148015901Y-89667545D01*
X148015904Y-89667545D01*
X148210227Y-89668562D01*
X148370857Y-89669403D01*
X148374243Y-89669053D01*
X148374245Y-89669053D01*
X148723932Y-89632917D01*
X148723941Y-89632916D01*
X148727324Y-89632566D01*
X148730657Y-89631852D01*
X148730660Y-89631851D01*
X148942865Y-89586358D01*
X149077727Y-89557446D01*
X149417968Y-89444922D01*
X149744066Y-89296311D01*
X149838052Y-89240506D01*
X150049262Y-89115099D01*
X150049267Y-89115096D01*
X150052207Y-89113350D01*
X150338786Y-88898180D01*
X150600451Y-88653319D01*
X150834140Y-88381630D01*
X150940750Y-88226512D01*
X151035190Y-88089101D01*
X151035195Y-88089094D01*
X151037120Y-88086292D01*
X151038732Y-88083298D01*
X151038737Y-88083290D01*
X151205395Y-87773772D01*
X151207017Y-87770760D01*
X151341842Y-87438724D01*
X151352142Y-87402568D01*
X151402406Y-87226114D01*
X151440020Y-87094070D01*
X151500401Y-86740828D01*
X151502511Y-86706340D01*
X151522168Y-86384928D01*
X151522278Y-86383131D01*
X151522359Y-86360000D01*
X151502979Y-86002159D01*
X151445066Y-85648505D01*
X151349297Y-85303173D01*
X151346243Y-85295497D01*
X151218052Y-84973369D01*
X151216793Y-84970205D01*
X151067078Y-84687442D01*
X151050702Y-84656513D01*
X151050698Y-84656506D01*
X151049103Y-84653494D01*
X150848190Y-84356746D01*
X150616403Y-84083432D01*
X150356454Y-83836750D01*
X150071384Y-83619585D01*
X150068472Y-83617828D01*
X150068467Y-83617825D01*
X149767443Y-83436236D01*
X149767437Y-83436233D01*
X149764528Y-83434478D01*
X149553018Y-83336298D01*
X149472208Y-83298787D01*
X149418841Y-83251963D01*
X149399261Y-83183720D01*
X149419685Y-83115724D01*
X149473627Y-83069565D01*
X149525259Y-83058500D01*
X152604633Y-83058500D01*
X152624018Y-83060000D01*
X152638851Y-83062310D01*
X152638855Y-83062310D01*
X152647724Y-83063691D01*
X152668183Y-83061016D01*
X152690008Y-83060072D01*
X153046937Y-83075656D01*
X153057885Y-83076614D01*
X153168162Y-83091132D01*
X153442379Y-83127233D01*
X153453205Y-83129142D01*
X153831822Y-83213080D01*
X153842439Y-83215925D01*
X153956738Y-83251963D01*
X154212302Y-83332542D01*
X154222615Y-83336295D01*
X154580932Y-83484715D01*
X154590876Y-83489353D01*
X154837669Y-83617825D01*
X154934867Y-83668423D01*
X154944387Y-83673919D01*
X155271468Y-83882292D01*
X155280472Y-83888597D01*
X155588138Y-84124678D01*
X155596558Y-84131743D01*
X155842107Y-84356746D01*
X155882483Y-84393744D01*
X155890256Y-84401517D01*
X156152257Y-84687442D01*
X156159322Y-84695862D01*
X156395403Y-85003528D01*
X156401708Y-85012532D01*
X156610081Y-85339613D01*
X156615576Y-85349132D01*
X156763836Y-85633935D01*
X156794643Y-85693115D01*
X156799285Y-85703068D01*
X156923173Y-86002159D01*
X156947702Y-86061377D01*
X156951461Y-86071706D01*
X157068075Y-86441561D01*
X157070920Y-86452178D01*
X157154858Y-86830795D01*
X157156767Y-86841621D01*
X157207386Y-87226114D01*
X157208344Y-87237063D01*
X157217006Y-87435446D01*
X157223603Y-87586552D01*
X157222223Y-87611429D01*
X157220309Y-87623724D01*
X157221473Y-87632626D01*
X157221473Y-87632628D01*
X157224436Y-87655283D01*
X157225500Y-87671621D01*
X157225500Y-116790633D01*
X157224000Y-116810018D01*
X157221690Y-116824851D01*
X157221690Y-116824855D01*
X157220309Y-116833724D01*
X157222984Y-116854183D01*
X157223928Y-116876012D01*
X157208344Y-117232936D01*
X157207386Y-117243886D01*
X157156767Y-117628379D01*
X157154858Y-117639205D01*
X157070920Y-118017822D01*
X157068075Y-118028439D01*
X156951461Y-118398294D01*
X156947705Y-118408615D01*
X156913652Y-118490828D01*
X156799289Y-118766923D01*
X156794647Y-118776876D01*
X156688764Y-118980276D01*
X156615577Y-119120867D01*
X156610081Y-119130387D01*
X156401708Y-119457468D01*
X156395403Y-119466472D01*
X156159322Y-119774138D01*
X156152257Y-119782558D01*
X155890256Y-120068483D01*
X155882487Y-120076252D01*
X155819228Y-120134218D01*
X155596558Y-120338257D01*
X155588138Y-120345322D01*
X155280472Y-120581403D01*
X155271468Y-120587708D01*
X154944387Y-120796081D01*
X154934868Y-120801576D01*
X154590876Y-120980647D01*
X154580932Y-120985285D01*
X154222615Y-121133705D01*
X154212302Y-121137458D01*
X154070738Y-121182093D01*
X153842439Y-121254075D01*
X153831822Y-121256920D01*
X153453205Y-121340858D01*
X153442379Y-121342767D01*
X153057886Y-121393386D01*
X153046937Y-121394344D01*
X152697446Y-121409603D01*
X152672571Y-121408223D01*
X152660276Y-121406309D01*
X152651374Y-121407473D01*
X152651372Y-121407473D01*
X152636323Y-121409441D01*
X152628714Y-121410436D01*
X152612379Y-121411500D01*
X148888051Y-121411500D01*
X148819930Y-121391498D01*
X148773437Y-121337842D01*
X148763333Y-121267568D01*
X148792827Y-121202988D01*
X148835800Y-121170845D01*
X148909055Y-121137461D01*
X149109066Y-121046311D01*
X149211839Y-120985289D01*
X149414262Y-120865099D01*
X149414267Y-120865096D01*
X149417207Y-120863350D01*
X149703786Y-120648180D01*
X149965451Y-120403319D01*
X150199140Y-120131630D01*
X150305750Y-119976512D01*
X150400190Y-119839101D01*
X150400195Y-119839094D01*
X150402120Y-119836292D01*
X150403732Y-119833298D01*
X150403737Y-119833290D01*
X150570395Y-119523772D01*
X150572017Y-119520760D01*
X150706842Y-119188724D01*
X150717142Y-119152568D01*
X150766220Y-118980276D01*
X150805020Y-118844070D01*
X150865401Y-118490828D01*
X150867511Y-118456340D01*
X150887168Y-118134928D01*
X150887278Y-118133131D01*
X150887359Y-118110000D01*
X150867979Y-117752159D01*
X150810066Y-117398505D01*
X150714297Y-117053173D01*
X150711243Y-117045497D01*
X150583052Y-116723369D01*
X150581793Y-116720205D01*
X150551768Y-116663498D01*
X150415702Y-116406513D01*
X150415698Y-116406506D01*
X150414103Y-116403494D01*
X150213190Y-116106746D01*
X149981403Y-115833432D01*
X149721454Y-115586750D01*
X149436384Y-115369585D01*
X149433472Y-115367828D01*
X149433467Y-115367825D01*
X149132443Y-115186236D01*
X149132437Y-115186233D01*
X149129528Y-115184478D01*
X148804475Y-115033593D01*
X148513758Y-114935191D01*
X148468255Y-114919789D01*
X148468250Y-114919788D01*
X148465028Y-114918697D01*
X148266681Y-114874724D01*
X148118493Y-114841871D01*
X148118487Y-114841870D01*
X148115158Y-114841132D01*
X148111769Y-114840758D01*
X148111764Y-114840757D01*
X147762338Y-114802180D01*
X147762333Y-114802180D01*
X147758957Y-114801807D01*
X147755558Y-114801801D01*
X147755557Y-114801801D01*
X147586080Y-114801505D01*
X147400592Y-114801182D01*
X147287413Y-114813277D01*
X147047639Y-114838901D01*
X147047631Y-114838902D01*
X147044256Y-114839263D01*
X146694117Y-114915606D01*
X146354271Y-115029317D01*
X146351178Y-115030739D01*
X146351177Y-115030740D01*
X146344974Y-115033593D01*
X146028694Y-115179066D01*
X145721193Y-115363101D01*
X145718467Y-115365163D01*
X145718465Y-115365164D01*
X145712620Y-115369585D01*
X145435367Y-115579270D01*
X145174559Y-115825043D01*
X144941819Y-116097546D01*
X144939900Y-116100358D01*
X144939897Y-116100363D01*
X144846624Y-116237097D01*
X144739871Y-116393591D01*
X144571077Y-116709714D01*
X144437411Y-117042218D01*
X144436491Y-117045492D01*
X144436489Y-117045497D01*
X144370909Y-117278807D01*
X144340437Y-117387213D01*
X144281290Y-117740663D01*
X144260661Y-118098434D01*
X144278792Y-118456340D01*
X144279329Y-118459695D01*
X144279330Y-118459701D01*
X144284316Y-118490828D01*
X144335470Y-118810195D01*
X144430033Y-119155859D01*
X144431282Y-119159029D01*
X144552387Y-119466472D01*
X144561374Y-119489288D01*
X144592151Y-119547909D01*
X144713216Y-119778504D01*
X144727957Y-119806582D01*
X144729858Y-119809411D01*
X144729864Y-119809421D01*
X144909171Y-120076256D01*
X144927834Y-120104029D01*
X145158665Y-120378150D01*
X145417751Y-120625738D01*
X145702061Y-120843897D01*
X145734056Y-120863350D01*
X146005355Y-121028303D01*
X146005360Y-121028306D01*
X146008270Y-121030075D01*
X146229491Y-121133702D01*
X146309963Y-121171398D01*
X146363166Y-121218408D01*
X146382508Y-121286719D01*
X146361848Y-121354643D01*
X146307745Y-121400615D01*
X146256514Y-121411500D01*
X143813367Y-121411500D01*
X143793982Y-121410000D01*
X143779149Y-121407690D01*
X143779145Y-121407690D01*
X143770276Y-121406309D01*
X143749817Y-121408984D01*
X143727992Y-121409928D01*
X143371063Y-121394344D01*
X143360114Y-121393386D01*
X142975621Y-121342767D01*
X142964795Y-121340858D01*
X142586178Y-121256920D01*
X142575561Y-121254075D01*
X142347262Y-121182093D01*
X142205698Y-121137458D01*
X142195385Y-121133705D01*
X141837068Y-120985285D01*
X141827124Y-120980647D01*
X141483132Y-120801576D01*
X141473613Y-120796081D01*
X141146532Y-120587708D01*
X141137528Y-120581403D01*
X140829862Y-120345322D01*
X140821442Y-120338257D01*
X140598772Y-120134218D01*
X140535513Y-120076252D01*
X140527744Y-120068483D01*
X140265743Y-119782558D01*
X140258678Y-119774138D01*
X140022597Y-119466472D01*
X140016292Y-119457468D01*
X139807919Y-119130387D01*
X139802423Y-119120867D01*
X139729236Y-118980276D01*
X139623353Y-118776876D01*
X139618711Y-118766923D01*
X139504349Y-118490828D01*
X139470295Y-118408615D01*
X139466539Y-118398294D01*
X139349925Y-118028439D01*
X139347080Y-118017822D01*
X139263142Y-117639205D01*
X139261233Y-117628379D01*
X139210614Y-117243886D01*
X139209656Y-117232936D01*
X139194561Y-116887208D01*
X139196188Y-116860805D01*
X139196769Y-116857352D01*
X139196770Y-116857345D01*
X139197576Y-116852552D01*
X139197729Y-116840000D01*
X139193773Y-116812376D01*
X139192500Y-116794514D01*
X139192500Y-113932966D01*
X139892257Y-113932966D01*
X139922565Y-114067446D01*
X139925645Y-114077275D01*
X140005770Y-114274603D01*
X140010413Y-114283794D01*
X140121694Y-114465388D01*
X140127777Y-114473699D01*
X140267213Y-114634667D01*
X140274580Y-114641883D01*
X140438434Y-114777916D01*
X140446881Y-114783831D01*
X140630756Y-114891279D01*
X140640042Y-114895729D01*
X140839001Y-114971703D01*
X140848899Y-114974579D01*
X140952250Y-114995606D01*
X140966299Y-114994410D01*
X140970000Y-114984065D01*
X140970000Y-114983517D01*
X141478000Y-114983517D01*
X141482064Y-114997359D01*
X141495478Y-114999393D01*
X141502184Y-114998534D01*
X141512262Y-114996392D01*
X141716255Y-114935191D01*
X141725842Y-114931433D01*
X141917095Y-114837739D01*
X141925945Y-114832464D01*
X142099328Y-114708792D01*
X142107200Y-114702139D01*
X142258052Y-114551812D01*
X142264730Y-114543965D01*
X142389003Y-114371020D01*
X142394313Y-114362183D01*
X142488670Y-114171267D01*
X142492469Y-114161672D01*
X142554377Y-113957910D01*
X142556555Y-113947837D01*
X142557986Y-113936962D01*
X142555775Y-113922778D01*
X142542617Y-113919000D01*
X141496115Y-113919000D01*
X141480876Y-113923475D01*
X141479671Y-113924865D01*
X141478000Y-113932548D01*
X141478000Y-114983517D01*
X140970000Y-114983517D01*
X140970000Y-113937115D01*
X140965525Y-113921876D01*
X140964135Y-113920671D01*
X140956452Y-113919000D01*
X139907225Y-113919000D01*
X139893694Y-113922973D01*
X139892257Y-113932966D01*
X139192500Y-113932966D01*
X139192500Y-107315000D01*
X139497696Y-107315000D01*
X139517658Y-107504928D01*
X139576673Y-107686556D01*
X139672160Y-107851944D01*
X139799947Y-107993866D01*
X139805289Y-107997747D01*
X139805291Y-107997749D01*
X139877499Y-108050211D01*
X139920853Y-108106433D01*
X139926928Y-108177170D01*
X139924855Y-108185819D01*
X139884989Y-108329570D01*
X139861251Y-108551695D01*
X139861548Y-108556848D01*
X139861548Y-108556851D01*
X139871638Y-108731846D01*
X139874110Y-108774715D01*
X139875247Y-108779761D01*
X139875248Y-108779767D01*
X139895947Y-108871613D01*
X139923222Y-108992639D01*
X140007266Y-109199616D01*
X140123987Y-109390088D01*
X140270250Y-109558938D01*
X140442126Y-109701632D01*
X140512595Y-109742811D01*
X140515445Y-109744476D01*
X140564169Y-109796114D01*
X140577240Y-109865897D01*
X140550509Y-109931669D01*
X140510055Y-109965027D01*
X140497607Y-109971507D01*
X140493474Y-109974610D01*
X140493471Y-109974612D01*
X140323100Y-110102530D01*
X140318965Y-110105635D01*
X140164629Y-110267138D01*
X140038743Y-110451680D01*
X139944688Y-110654305D01*
X139884989Y-110869570D01*
X139861251Y-111091695D01*
X139861548Y-111096848D01*
X139861548Y-111096851D01*
X139867011Y-111191590D01*
X139874110Y-111314715D01*
X139875247Y-111319761D01*
X139875248Y-111319767D01*
X139882383Y-111351426D01*
X139923222Y-111532639D01*
X139961461Y-111626811D01*
X140002834Y-111728700D01*
X140007266Y-111739616D01*
X140123987Y-111930088D01*
X140270250Y-112098938D01*
X140442126Y-112241632D01*
X140515955Y-112284774D01*
X140564679Y-112336412D01*
X140577750Y-112406195D01*
X140551019Y-112471967D01*
X140510562Y-112505327D01*
X140502457Y-112509546D01*
X140493738Y-112515036D01*
X140323433Y-112642905D01*
X140315726Y-112649748D01*
X140168590Y-112803717D01*
X140162104Y-112811727D01*
X140042098Y-112987649D01*
X140037000Y-112996623D01*
X139947338Y-113189783D01*
X139943775Y-113199470D01*
X139888389Y-113399183D01*
X139889912Y-113407607D01*
X139902292Y-113411000D01*
X142542344Y-113411000D01*
X142555875Y-113407027D01*
X142557180Y-113397947D01*
X142515214Y-113230875D01*
X142511894Y-113221124D01*
X142426972Y-113025814D01*
X142422105Y-113016739D01*
X142306426Y-112837926D01*
X142300136Y-112829757D01*
X142156806Y-112672240D01*
X142149273Y-112665215D01*
X141982139Y-112533222D01*
X141973556Y-112527520D01*
X141936602Y-112507120D01*
X141886631Y-112456687D01*
X141871859Y-112387245D01*
X141896975Y-112320839D01*
X141924327Y-112294232D01*
X141947797Y-112277491D01*
X142103860Y-112166173D01*
X142262096Y-112008489D01*
X142321594Y-111925689D01*
X142389435Y-111831277D01*
X142392453Y-111827077D01*
X142412939Y-111785628D01*
X142489136Y-111631453D01*
X142489137Y-111631451D01*
X142491430Y-111626811D01*
X142556370Y-111413069D01*
X142585529Y-111191590D01*
X142587156Y-111125000D01*
X142568852Y-110902361D01*
X142533723Y-110762508D01*
X142536527Y-110691567D01*
X142566832Y-110642717D01*
X144312634Y-108896915D01*
X144325025Y-108886048D01*
X144343837Y-108871613D01*
X144350387Y-108866587D01*
X144374874Y-108834675D01*
X144374878Y-108834671D01*
X144447924Y-108739476D01*
X144509238Y-108591451D01*
X144530151Y-108432600D01*
X144525978Y-108400901D01*
X144524900Y-108384456D01*
X144524900Y-106349239D01*
X144544902Y-106281118D01*
X144561805Y-106260144D01*
X145101544Y-105720405D01*
X145163856Y-105686379D01*
X145190639Y-105683500D01*
X145281887Y-105683500D01*
X145288339Y-105682128D01*
X145288344Y-105682128D01*
X145375287Y-105663647D01*
X145468688Y-105643794D01*
X145542974Y-105610720D01*
X145637122Y-105568803D01*
X145637124Y-105568802D01*
X145643152Y-105566118D01*
X145797653Y-105453866D01*
X145871654Y-105371680D01*
X145921023Y-105316850D01*
X145921025Y-105316848D01*
X145925440Y-105311944D01*
X145926237Y-105310564D01*
X145980989Y-105268345D01*
X146051725Y-105262271D01*
X146114516Y-105295405D01*
X146149426Y-105357225D01*
X146152700Y-105385761D01*
X146152700Y-110060864D01*
X146151622Y-110077307D01*
X146147450Y-110109000D01*
X146152700Y-110148880D01*
X146152700Y-110148885D01*
X146161405Y-110215005D01*
X146168362Y-110267851D01*
X146229676Y-110415876D01*
X146234703Y-110422427D01*
X146234704Y-110422429D01*
X146302720Y-110511069D01*
X146302726Y-110511075D01*
X146327213Y-110542987D01*
X146333768Y-110548017D01*
X146352579Y-110562452D01*
X146364970Y-110573319D01*
X146522681Y-110731030D01*
X146556707Y-110793342D01*
X146559241Y-110816916D01*
X146558896Y-110820200D01*
X146559586Y-110826765D01*
X146565714Y-110885065D01*
X146578858Y-111010128D01*
X146637873Y-111191756D01*
X146733360Y-111357144D01*
X146737778Y-111362051D01*
X146737779Y-111362052D01*
X146790273Y-111420352D01*
X146861147Y-111499066D01*
X147015648Y-111611318D01*
X147021676Y-111614002D01*
X147021678Y-111614003D01*
X147152623Y-111672303D01*
X147190112Y-111688994D01*
X147283512Y-111708847D01*
X147370456Y-111727328D01*
X147370461Y-111727328D01*
X147376913Y-111728700D01*
X147567887Y-111728700D01*
X147574339Y-111727328D01*
X147574344Y-111727328D01*
X147661287Y-111708847D01*
X147754688Y-111688994D01*
X147798208Y-111669618D01*
X147865209Y-111639787D01*
X147935576Y-111630353D01*
X147990520Y-111652959D01*
X148013449Y-111669618D01*
X148019477Y-111672302D01*
X148019479Y-111672303D01*
X148180559Y-111744020D01*
X148187913Y-111747294D01*
X148281314Y-111767147D01*
X148368257Y-111785628D01*
X148368262Y-111785628D01*
X148374714Y-111787000D01*
X148565688Y-111787000D01*
X148572140Y-111785628D01*
X148572145Y-111785628D01*
X148659088Y-111767147D01*
X148752489Y-111747294D01*
X148759843Y-111744020D01*
X148920923Y-111672303D01*
X148920925Y-111672302D01*
X148926953Y-111669618D01*
X149081454Y-111557366D01*
X149130451Y-111502949D01*
X149204822Y-111420352D01*
X149204823Y-111420351D01*
X149209241Y-111415444D01*
X149304728Y-111250056D01*
X149363743Y-111068428D01*
X149383705Y-110878500D01*
X149382243Y-110864588D01*
X149364433Y-110695135D01*
X149364433Y-110695133D01*
X149363743Y-110688572D01*
X149304728Y-110506944D01*
X149209241Y-110341556D01*
X149135504Y-110259662D01*
X149085876Y-110204545D01*
X149085875Y-110204544D01*
X149081454Y-110199634D01*
X148952076Y-110105635D01*
X148932295Y-110091263D01*
X148932294Y-110091262D01*
X148926953Y-110087382D01*
X148920925Y-110084698D01*
X148920923Y-110084697D01*
X148758520Y-110012391D01*
X148758519Y-110012391D01*
X148752489Y-110009706D01*
X148659088Y-109989853D01*
X148572145Y-109971372D01*
X148572140Y-109971372D01*
X148565688Y-109970000D01*
X148524184Y-109970000D01*
X148456063Y-109949998D01*
X148435089Y-109933095D01*
X147813005Y-109311011D01*
X147778979Y-109248699D01*
X147776100Y-109221916D01*
X147776100Y-103772966D01*
X153862257Y-103772966D01*
X153892565Y-103907446D01*
X153895645Y-103917275D01*
X153975770Y-104114603D01*
X153980413Y-104123794D01*
X154091694Y-104305388D01*
X154097777Y-104313699D01*
X154237213Y-104474667D01*
X154244580Y-104481883D01*
X154408434Y-104617916D01*
X154416881Y-104623831D01*
X154600756Y-104731279D01*
X154610042Y-104735729D01*
X154809001Y-104811703D01*
X154818899Y-104814579D01*
X154922250Y-104835606D01*
X154936299Y-104834410D01*
X154940000Y-104824065D01*
X154940000Y-104823517D01*
X155448000Y-104823517D01*
X155452064Y-104837359D01*
X155465478Y-104839393D01*
X155472184Y-104838534D01*
X155482262Y-104836392D01*
X155686255Y-104775191D01*
X155695842Y-104771433D01*
X155887095Y-104677739D01*
X155895945Y-104672464D01*
X156069328Y-104548792D01*
X156077200Y-104542139D01*
X156228052Y-104391812D01*
X156234730Y-104383965D01*
X156359003Y-104211020D01*
X156364313Y-104202183D01*
X156458670Y-104011267D01*
X156462469Y-104001672D01*
X156524377Y-103797910D01*
X156526555Y-103787837D01*
X156527986Y-103776962D01*
X156525775Y-103762778D01*
X156512617Y-103759000D01*
X155466115Y-103759000D01*
X155450876Y-103763475D01*
X155449671Y-103764865D01*
X155448000Y-103772548D01*
X155448000Y-104823517D01*
X154940000Y-104823517D01*
X154940000Y-103777115D01*
X154935525Y-103761876D01*
X154934135Y-103760671D01*
X154926452Y-103759000D01*
X153877225Y-103759000D01*
X153863694Y-103762973D01*
X153862257Y-103772966D01*
X147776100Y-103772966D01*
X147776100Y-103474667D01*
X147796102Y-103406546D01*
X147849758Y-103360053D01*
X147854687Y-103358134D01*
X147856288Y-103357794D01*
X147941015Y-103320071D01*
X148024722Y-103282803D01*
X148024724Y-103282802D01*
X148030752Y-103280118D01*
X148185253Y-103167866D01*
X148313040Y-103025944D01*
X148408527Y-102860556D01*
X148467542Y-102678928D01*
X148468538Y-102669457D01*
X148486814Y-102495565D01*
X148487504Y-102489000D01*
X148486814Y-102482435D01*
X148468232Y-102305635D01*
X148468232Y-102305633D01*
X148467542Y-102299072D01*
X148408527Y-102117444D01*
X148313040Y-101952056D01*
X148185253Y-101810134D01*
X148030752Y-101697882D01*
X148024724Y-101695198D01*
X148024722Y-101695197D01*
X147862319Y-101622891D01*
X147862318Y-101622891D01*
X147856288Y-101620206D01*
X147762887Y-101600353D01*
X147675944Y-101581872D01*
X147675939Y-101581872D01*
X147669487Y-101580500D01*
X147513639Y-101580500D01*
X147445518Y-101560498D01*
X147399025Y-101506842D01*
X147388921Y-101436568D01*
X147418415Y-101371988D01*
X147424544Y-101365405D01*
X147858254Y-100931695D01*
X153831251Y-100931695D01*
X153831548Y-100936848D01*
X153831548Y-100936851D01*
X153837011Y-101031590D01*
X153844110Y-101154715D01*
X153845247Y-101159761D01*
X153845248Y-101159767D01*
X153856136Y-101208080D01*
X153893222Y-101372639D01*
X153977266Y-101579616D01*
X153979965Y-101584020D01*
X154052118Y-101701763D01*
X154093987Y-101770088D01*
X154240250Y-101938938D01*
X154412126Y-102081632D01*
X154473411Y-102117444D01*
X154485955Y-102124774D01*
X154534679Y-102176412D01*
X154547750Y-102246195D01*
X154521019Y-102311967D01*
X154480562Y-102345327D01*
X154472457Y-102349546D01*
X154463738Y-102355036D01*
X154293433Y-102482905D01*
X154285726Y-102489748D01*
X154138590Y-102643717D01*
X154132104Y-102651727D01*
X154012098Y-102827649D01*
X154007000Y-102836623D01*
X153917338Y-103029783D01*
X153913775Y-103039470D01*
X153858389Y-103239183D01*
X153859912Y-103247607D01*
X153872292Y-103251000D01*
X156512344Y-103251000D01*
X156525875Y-103247027D01*
X156527180Y-103237947D01*
X156485214Y-103070875D01*
X156481894Y-103061124D01*
X156396972Y-102865814D01*
X156392105Y-102856739D01*
X156276426Y-102677926D01*
X156270136Y-102669757D01*
X156126806Y-102512240D01*
X156119273Y-102505215D01*
X155952139Y-102373222D01*
X155943556Y-102367520D01*
X155906602Y-102347120D01*
X155856631Y-102296687D01*
X155841859Y-102227245D01*
X155866975Y-102160839D01*
X155894327Y-102134232D01*
X155925886Y-102111721D01*
X156073860Y-102006173D01*
X156122429Y-101957774D01*
X156228435Y-101852137D01*
X156232096Y-101848489D01*
X156291594Y-101765689D01*
X156359435Y-101671277D01*
X156362453Y-101667077D01*
X156415128Y-101560498D01*
X156459136Y-101471453D01*
X156459137Y-101471451D01*
X156461430Y-101466811D01*
X156526370Y-101253069D01*
X156555529Y-101031590D01*
X156555872Y-101017538D01*
X156557074Y-100968365D01*
X156557074Y-100968361D01*
X156557156Y-100965000D01*
X156538852Y-100742361D01*
X156484431Y-100525702D01*
X156395354Y-100320840D01*
X156337845Y-100231944D01*
X156276822Y-100137617D01*
X156276820Y-100137614D01*
X156274014Y-100133277D01*
X156123670Y-99968051D01*
X156119619Y-99964852D01*
X156119615Y-99964848D01*
X155952414Y-99832800D01*
X155952410Y-99832798D01*
X155948359Y-99829598D01*
X155907053Y-99806796D01*
X155857084Y-99756364D01*
X155842312Y-99686921D01*
X155867428Y-99620516D01*
X155894780Y-99593909D01*
X155938603Y-99562650D01*
X156073860Y-99466173D01*
X156232096Y-99308489D01*
X156282101Y-99238900D01*
X156359435Y-99131277D01*
X156362453Y-99127077D01*
X156434505Y-98981291D01*
X156459136Y-98931453D01*
X156459137Y-98931451D01*
X156461430Y-98926811D01*
X156526370Y-98713069D01*
X156555529Y-98491590D01*
X156557156Y-98425000D01*
X156538852Y-98202361D01*
X156484431Y-97985702D01*
X156395354Y-97780840D01*
X156274014Y-97593277D01*
X156123670Y-97428051D01*
X156119619Y-97424852D01*
X156119615Y-97424848D01*
X155952414Y-97292800D01*
X155952410Y-97292798D01*
X155948359Y-97289598D01*
X155907053Y-97266796D01*
X155857084Y-97216364D01*
X155842312Y-97146921D01*
X155867428Y-97080516D01*
X155894780Y-97053909D01*
X155938603Y-97022650D01*
X156073860Y-96926173D01*
X156232096Y-96768489D01*
X156291594Y-96685689D01*
X156359435Y-96591277D01*
X156362453Y-96587077D01*
X156461430Y-96386811D01*
X156526370Y-96173069D01*
X156555529Y-95951590D01*
X156557156Y-95885000D01*
X156538852Y-95662361D01*
X156484431Y-95445702D01*
X156395354Y-95240840D01*
X156274014Y-95053277D01*
X156123670Y-94888051D01*
X156119619Y-94884852D01*
X156119615Y-94884848D01*
X155952414Y-94752800D01*
X155952410Y-94752798D01*
X155948359Y-94749598D01*
X155907053Y-94726796D01*
X155857084Y-94676364D01*
X155842312Y-94606921D01*
X155867428Y-94540516D01*
X155894780Y-94513909D01*
X155938603Y-94482650D01*
X156073860Y-94386173D01*
X156232096Y-94228489D01*
X156291594Y-94145689D01*
X156359435Y-94051277D01*
X156362453Y-94047077D01*
X156461430Y-93846811D01*
X156526370Y-93633069D01*
X156555529Y-93411590D01*
X156557156Y-93345000D01*
X156538852Y-93122361D01*
X156484431Y-92905702D01*
X156395354Y-92700840D01*
X156274014Y-92513277D01*
X156270532Y-92509450D01*
X156126798Y-92351488D01*
X156095746Y-92287642D01*
X156104141Y-92217143D01*
X156149317Y-92162375D01*
X156175761Y-92148706D01*
X156282297Y-92108767D01*
X156290705Y-92105615D01*
X156407261Y-92018261D01*
X156494615Y-91901705D01*
X156545745Y-91765316D01*
X156552500Y-91703134D01*
X156552500Y-89906866D01*
X156545745Y-89844684D01*
X156494615Y-89708295D01*
X156407261Y-89591739D01*
X156290705Y-89504385D01*
X156154316Y-89453255D01*
X156092134Y-89446500D01*
X154295866Y-89446500D01*
X154233684Y-89453255D01*
X154097295Y-89504385D01*
X153980739Y-89591739D01*
X153893385Y-89708295D01*
X153842255Y-89844684D01*
X153835500Y-89906866D01*
X153835500Y-91703134D01*
X153842255Y-91765316D01*
X153893385Y-91901705D01*
X153980739Y-92018261D01*
X154097295Y-92105615D01*
X154105704Y-92108767D01*
X154105705Y-92108768D01*
X154214451Y-92149535D01*
X154271216Y-92192176D01*
X154295916Y-92258738D01*
X154280709Y-92328087D01*
X154261316Y-92354568D01*
X154134629Y-92487138D01*
X154008743Y-92671680D01*
X153914688Y-92874305D01*
X153854989Y-93089570D01*
X153831251Y-93311695D01*
X153831548Y-93316848D01*
X153831548Y-93316851D01*
X153837011Y-93411590D01*
X153844110Y-93534715D01*
X153845247Y-93539761D01*
X153845248Y-93539767D01*
X153865119Y-93627939D01*
X153893222Y-93752639D01*
X153977266Y-93959616D01*
X154093987Y-94150088D01*
X154240250Y-94318938D01*
X154412126Y-94461632D01*
X154482595Y-94502811D01*
X154485445Y-94504476D01*
X154534169Y-94556114D01*
X154547240Y-94625897D01*
X154520509Y-94691669D01*
X154480055Y-94725027D01*
X154467607Y-94731507D01*
X154463474Y-94734610D01*
X154463471Y-94734612D01*
X154439247Y-94752800D01*
X154288965Y-94865635D01*
X154134629Y-95027138D01*
X154008743Y-95211680D01*
X153914688Y-95414305D01*
X153854989Y-95629570D01*
X153831251Y-95851695D01*
X153831548Y-95856848D01*
X153831548Y-95856851D01*
X153837011Y-95951590D01*
X153844110Y-96074715D01*
X153845247Y-96079761D01*
X153845248Y-96079767D01*
X153865119Y-96167939D01*
X153893222Y-96292639D01*
X153977266Y-96499616D01*
X154093987Y-96690088D01*
X154240250Y-96858938D01*
X154412126Y-97001632D01*
X154482595Y-97042811D01*
X154485445Y-97044476D01*
X154534169Y-97096114D01*
X154547240Y-97165897D01*
X154520509Y-97231669D01*
X154480055Y-97265027D01*
X154467607Y-97271507D01*
X154463474Y-97274610D01*
X154463471Y-97274612D01*
X154439247Y-97292800D01*
X154288965Y-97405635D01*
X154134629Y-97567138D01*
X154008743Y-97751680D01*
X153914688Y-97954305D01*
X153854989Y-98169570D01*
X153831251Y-98391695D01*
X153831548Y-98396848D01*
X153831548Y-98396851D01*
X153837011Y-98491590D01*
X153844110Y-98614715D01*
X153845247Y-98619761D01*
X153845248Y-98619767D01*
X153865119Y-98707939D01*
X153893222Y-98832639D01*
X153977266Y-99039616D01*
X153979965Y-99044020D01*
X154090804Y-99224893D01*
X154093987Y-99230088D01*
X154240250Y-99398938D01*
X154412126Y-99541632D01*
X154482595Y-99582811D01*
X154485445Y-99584476D01*
X154534169Y-99636114D01*
X154547240Y-99705897D01*
X154520509Y-99771669D01*
X154480055Y-99805027D01*
X154467607Y-99811507D01*
X154463474Y-99814610D01*
X154463471Y-99814612D01*
X154328973Y-99915596D01*
X154288965Y-99945635D01*
X154134629Y-100107138D01*
X154008743Y-100291680D01*
X153993003Y-100325590D01*
X153920290Y-100482237D01*
X153914688Y-100494305D01*
X153854989Y-100709570D01*
X153831251Y-100931695D01*
X147858254Y-100931695D01*
X147997144Y-100792805D01*
X148059456Y-100758779D01*
X148086239Y-100755900D01*
X148177487Y-100755900D01*
X148183939Y-100754528D01*
X148183944Y-100754528D01*
X148279516Y-100734213D01*
X148364288Y-100716194D01*
X148370319Y-100713509D01*
X148532722Y-100641203D01*
X148532724Y-100641202D01*
X148538752Y-100638518D01*
X148588839Y-100602128D01*
X148687914Y-100530145D01*
X148693253Y-100526266D01*
X148719074Y-100497589D01*
X148779520Y-100460350D01*
X148812710Y-100455900D01*
X150184316Y-100455900D01*
X150252437Y-100475902D01*
X150258378Y-100479965D01*
X150261504Y-100482236D01*
X150261506Y-100482237D01*
X150266848Y-100486118D01*
X150272875Y-100488801D01*
X150272876Y-100488802D01*
X150367026Y-100530720D01*
X150441312Y-100563794D01*
X150534713Y-100583647D01*
X150621656Y-100602128D01*
X150621661Y-100602128D01*
X150628113Y-100603500D01*
X150819087Y-100603500D01*
X150825539Y-100602128D01*
X150825544Y-100602128D01*
X150912487Y-100583647D01*
X151005888Y-100563794D01*
X151080174Y-100530720D01*
X151174322Y-100488803D01*
X151174324Y-100488802D01*
X151180352Y-100486118D01*
X151215819Y-100460350D01*
X151235757Y-100445864D01*
X151334853Y-100373866D01*
X151408854Y-100291680D01*
X151458221Y-100236852D01*
X151458222Y-100236851D01*
X151462640Y-100231944D01*
X151534697Y-100107138D01*
X151554823Y-100072279D01*
X151554824Y-100072278D01*
X151558127Y-100066556D01*
X151617142Y-99884928D01*
X151621079Y-99847475D01*
X151636414Y-99701565D01*
X151637104Y-99695000D01*
X151636255Y-99686921D01*
X151617832Y-99511635D01*
X151617832Y-99511633D01*
X151617142Y-99505072D01*
X151558127Y-99323444D01*
X151550629Y-99310456D01*
X151485246Y-99197211D01*
X151462640Y-99158056D01*
X151434747Y-99127077D01*
X151339275Y-99021045D01*
X151339274Y-99021044D01*
X151334853Y-99016134D01*
X151211911Y-98926811D01*
X151185694Y-98907763D01*
X151185693Y-98907762D01*
X151180352Y-98903882D01*
X151174324Y-98901198D01*
X151174322Y-98901197D01*
X151011919Y-98828891D01*
X151011918Y-98828891D01*
X151005888Y-98826206D01*
X150912488Y-98806353D01*
X150825544Y-98787872D01*
X150825539Y-98787872D01*
X150819087Y-98786500D01*
X150628113Y-98786500D01*
X150621661Y-98787872D01*
X150621656Y-98787872D01*
X150534713Y-98806353D01*
X150441312Y-98826206D01*
X150435282Y-98828891D01*
X150435281Y-98828891D01*
X150272878Y-98901197D01*
X150272876Y-98901198D01*
X150266848Y-98903882D01*
X150261507Y-98907762D01*
X150261506Y-98907763D01*
X150235289Y-98926811D01*
X150112347Y-99016134D01*
X150107926Y-99021044D01*
X150107925Y-99021045D01*
X150012454Y-99127077D01*
X149984560Y-99158056D01*
X149974258Y-99175900D01*
X149922877Y-99224893D01*
X149865139Y-99238900D01*
X148812710Y-99238900D01*
X148744589Y-99218898D01*
X148719074Y-99197211D01*
X148697668Y-99173437D01*
X148697666Y-99173436D01*
X148693253Y-99168534D01*
X148538752Y-99056282D01*
X148532724Y-99053598D01*
X148532722Y-99053597D01*
X148370319Y-98981291D01*
X148370318Y-98981291D01*
X148364288Y-98978606D01*
X148270888Y-98958753D01*
X148183944Y-98940272D01*
X148183939Y-98940272D01*
X148177487Y-98938900D01*
X147986513Y-98938900D01*
X147980061Y-98940272D01*
X147980056Y-98940272D01*
X147893112Y-98958753D01*
X147799712Y-98978606D01*
X147793682Y-98981291D01*
X147793681Y-98981291D01*
X147631278Y-99053597D01*
X147631276Y-99053598D01*
X147625248Y-99056282D01*
X147470747Y-99168534D01*
X147466326Y-99173444D01*
X147466325Y-99173445D01*
X147415324Y-99230088D01*
X147342960Y-99310456D01*
X147331833Y-99329729D01*
X147251326Y-99469171D01*
X147247473Y-99475844D01*
X147188458Y-99657472D01*
X147187768Y-99664033D01*
X147187768Y-99664035D01*
X147169186Y-99840835D01*
X147168496Y-99847400D01*
X147168684Y-99849186D01*
X147149184Y-99915596D01*
X147132281Y-99936570D01*
X146364966Y-100703885D01*
X146352575Y-100714752D01*
X146327213Y-100734213D01*
X146302726Y-100766125D01*
X146302723Y-100766128D01*
X146229676Y-100861324D01*
X146186732Y-100965000D01*
X146168362Y-101009350D01*
X146152700Y-101128315D01*
X146152700Y-101128320D01*
X146147450Y-101168200D01*
X146148528Y-101176388D01*
X146151622Y-101199890D01*
X146152700Y-101216336D01*
X146152700Y-104164239D01*
X146132698Y-104232360D01*
X146079042Y-104278853D01*
X146008768Y-104288957D01*
X145944188Y-104259463D01*
X145926966Y-104240699D01*
X145925440Y-104238056D01*
X145920312Y-104232360D01*
X145802075Y-104101045D01*
X145802074Y-104101044D01*
X145797653Y-104096134D01*
X145674711Y-104006811D01*
X145648494Y-103987763D01*
X145648493Y-103987762D01*
X145643152Y-103983882D01*
X145637124Y-103981198D01*
X145637122Y-103981197D01*
X145474719Y-103908891D01*
X145474718Y-103908891D01*
X145468688Y-103906206D01*
X145375287Y-103886353D01*
X145288344Y-103867872D01*
X145288339Y-103867872D01*
X145281887Y-103866500D01*
X145090913Y-103866500D01*
X145084461Y-103867872D01*
X145084456Y-103867872D01*
X144997512Y-103886353D01*
X144904112Y-103906206D01*
X144898082Y-103908891D01*
X144898081Y-103908891D01*
X144735678Y-103981197D01*
X144735676Y-103981198D01*
X144729648Y-103983882D01*
X144724307Y-103987762D01*
X144724306Y-103987763D01*
X144698089Y-104006811D01*
X144575147Y-104096134D01*
X144570726Y-104101044D01*
X144570725Y-104101045D01*
X144475254Y-104207077D01*
X144447360Y-104238056D01*
X144351873Y-104403444D01*
X144292858Y-104585072D01*
X144272896Y-104775000D01*
X144273084Y-104776786D01*
X144253584Y-104843196D01*
X144236681Y-104864170D01*
X143520166Y-105580685D01*
X143507775Y-105591552D01*
X143482413Y-105611013D01*
X143457926Y-105642925D01*
X143457923Y-105642928D01*
X143456206Y-105645166D01*
X143427844Y-105682128D01*
X143384876Y-105738124D01*
X143323562Y-105886149D01*
X143323562Y-105886150D01*
X143307900Y-106005115D01*
X143307900Y-106005120D01*
X143302650Y-106045000D01*
X143303728Y-106053188D01*
X143306822Y-106076690D01*
X143307900Y-106093136D01*
X143307900Y-106278046D01*
X143287898Y-106346167D01*
X143234242Y-106392660D01*
X143181900Y-106404046D01*
X143035967Y-106404046D01*
X143029515Y-106405418D01*
X143029510Y-106405418D01*
X142955010Y-106421254D01*
X142849166Y-106443752D01*
X142843136Y-106446437D01*
X142843135Y-106446437D01*
X142723675Y-106499624D01*
X142653308Y-106509058D01*
X142589011Y-106478952D01*
X142551197Y-106418863D01*
X142551867Y-106347891D01*
X142554865Y-106338023D01*
X142554865Y-106338021D01*
X142556370Y-106333069D01*
X142585529Y-106111590D01*
X142587156Y-106045000D01*
X142568852Y-105822361D01*
X142514431Y-105605702D01*
X142425354Y-105400840D01*
X142367845Y-105311944D01*
X142306822Y-105217617D01*
X142306820Y-105217614D01*
X142304014Y-105213277D01*
X142153670Y-105048051D01*
X142149619Y-105044852D01*
X142149615Y-105044848D01*
X141982414Y-104912800D01*
X141982410Y-104912798D01*
X141978359Y-104909598D01*
X141937053Y-104886796D01*
X141887084Y-104836364D01*
X141872312Y-104766921D01*
X141897428Y-104700516D01*
X141924780Y-104673909D01*
X141968603Y-104642650D01*
X142103860Y-104546173D01*
X142262096Y-104388489D01*
X142321594Y-104305689D01*
X142389435Y-104211277D01*
X142392453Y-104207077D01*
X142491430Y-104006811D01*
X142556370Y-103793069D01*
X142585529Y-103571590D01*
X142587156Y-103505000D01*
X142568852Y-103282361D01*
X142514431Y-103065702D01*
X142425354Y-102860840D01*
X142385906Y-102799862D01*
X142306822Y-102677617D01*
X142306820Y-102677614D01*
X142304014Y-102673277D01*
X142153670Y-102508051D01*
X142149619Y-102504852D01*
X142149615Y-102504848D01*
X141982414Y-102372800D01*
X141982410Y-102372798D01*
X141978359Y-102369598D01*
X141937053Y-102346796D01*
X141887084Y-102296364D01*
X141872312Y-102226921D01*
X141897428Y-102160516D01*
X141924780Y-102133909D01*
X141968603Y-102102650D01*
X142103860Y-102006173D01*
X142152429Y-101957774D01*
X142258435Y-101852137D01*
X142262096Y-101848489D01*
X142321594Y-101765689D01*
X142389435Y-101671277D01*
X142392453Y-101667077D01*
X142445128Y-101560498D01*
X142489136Y-101471453D01*
X142489137Y-101471451D01*
X142491430Y-101466811D01*
X142556370Y-101253069D01*
X142585529Y-101031590D01*
X142585872Y-101017538D01*
X142587074Y-100968365D01*
X142587074Y-100968361D01*
X142587156Y-100965000D01*
X142568852Y-100742361D01*
X142514431Y-100525702D01*
X142425354Y-100320840D01*
X142367845Y-100231944D01*
X142306822Y-100137617D01*
X142306820Y-100137614D01*
X142304014Y-100133277D01*
X142153670Y-99968051D01*
X142149619Y-99964852D01*
X142149615Y-99964848D01*
X141982414Y-99832800D01*
X141982410Y-99832798D01*
X141978359Y-99829598D01*
X141937053Y-99806796D01*
X141887084Y-99756364D01*
X141872312Y-99686921D01*
X141897428Y-99620516D01*
X141924780Y-99593909D01*
X141968603Y-99562650D01*
X142103860Y-99466173D01*
X142262096Y-99308489D01*
X142312101Y-99238900D01*
X142389435Y-99131277D01*
X142392453Y-99127077D01*
X142464505Y-98981291D01*
X142489136Y-98931453D01*
X142489137Y-98931451D01*
X142491430Y-98926811D01*
X142556370Y-98713069D01*
X142585529Y-98491590D01*
X142587156Y-98425000D01*
X142568852Y-98202361D01*
X142514431Y-97985702D01*
X142425354Y-97780840D01*
X142304014Y-97593277D01*
X142153670Y-97428051D01*
X142149619Y-97424852D01*
X142149615Y-97424848D01*
X141982414Y-97292800D01*
X141982410Y-97292798D01*
X141978359Y-97289598D01*
X141937053Y-97266796D01*
X141887084Y-97216364D01*
X141872312Y-97146921D01*
X141897428Y-97080516D01*
X141924780Y-97053909D01*
X141968603Y-97022650D01*
X142103860Y-96926173D01*
X142262096Y-96768489D01*
X142321594Y-96685689D01*
X142389435Y-96591277D01*
X142392453Y-96587077D01*
X142491430Y-96386811D01*
X142556370Y-96173069D01*
X142585529Y-95951590D01*
X142587156Y-95885000D01*
X142568852Y-95662361D01*
X142514431Y-95445702D01*
X142425354Y-95240840D01*
X142304014Y-95053277D01*
X142153670Y-94888051D01*
X142149619Y-94884852D01*
X142149615Y-94884848D01*
X141982414Y-94752800D01*
X141982410Y-94752798D01*
X141978359Y-94749598D01*
X141937053Y-94726796D01*
X141887084Y-94676364D01*
X141872312Y-94606921D01*
X141897428Y-94540516D01*
X141924780Y-94513909D01*
X141968603Y-94482650D01*
X142103860Y-94386173D01*
X142262096Y-94228489D01*
X142321594Y-94145689D01*
X142389435Y-94051277D01*
X142392453Y-94047077D01*
X142491430Y-93846811D01*
X142556370Y-93633069D01*
X142585529Y-93411590D01*
X142587156Y-93345000D01*
X142568852Y-93122361D01*
X142514431Y-92905702D01*
X142425354Y-92700840D01*
X142304014Y-92513277D01*
X142300532Y-92509450D01*
X142156798Y-92351488D01*
X142125746Y-92287642D01*
X142134141Y-92217143D01*
X142179317Y-92162375D01*
X142205761Y-92148706D01*
X142312297Y-92108767D01*
X142320705Y-92105615D01*
X142437261Y-92018261D01*
X142524615Y-91901705D01*
X142575745Y-91765316D01*
X142582500Y-91703134D01*
X142582500Y-89906866D01*
X142575745Y-89844684D01*
X142524615Y-89708295D01*
X142437261Y-89591739D01*
X142320705Y-89504385D01*
X142184316Y-89453255D01*
X142122134Y-89446500D01*
X140325866Y-89446500D01*
X140263684Y-89453255D01*
X140127295Y-89504385D01*
X140010739Y-89591739D01*
X139923385Y-89708295D01*
X139872255Y-89844684D01*
X139865500Y-89906866D01*
X139865500Y-91703134D01*
X139872255Y-91765316D01*
X139923385Y-91901705D01*
X140010739Y-92018261D01*
X140127295Y-92105615D01*
X140135704Y-92108767D01*
X140135705Y-92108768D01*
X140244451Y-92149535D01*
X140301216Y-92192176D01*
X140325916Y-92258738D01*
X140310709Y-92328087D01*
X140291316Y-92354568D01*
X140164629Y-92487138D01*
X140038743Y-92671680D01*
X139944688Y-92874305D01*
X139884989Y-93089570D01*
X139861251Y-93311695D01*
X139861548Y-93316848D01*
X139861548Y-93316851D01*
X139867011Y-93411590D01*
X139874110Y-93534715D01*
X139875247Y-93539761D01*
X139875248Y-93539767D01*
X139895119Y-93627939D01*
X139923222Y-93752639D01*
X140007266Y-93959616D01*
X140123987Y-94150088D01*
X140270250Y-94318938D01*
X140442126Y-94461632D01*
X140512595Y-94502811D01*
X140515445Y-94504476D01*
X140564169Y-94556114D01*
X140577240Y-94625897D01*
X140550509Y-94691669D01*
X140510055Y-94725027D01*
X140497607Y-94731507D01*
X140493474Y-94734610D01*
X140493471Y-94734612D01*
X140469247Y-94752800D01*
X140318965Y-94865635D01*
X140164629Y-95027138D01*
X140038743Y-95211680D01*
X139944688Y-95414305D01*
X139884989Y-95629570D01*
X139861251Y-95851695D01*
X139861548Y-95856848D01*
X139861548Y-95856851D01*
X139867011Y-95951590D01*
X139874110Y-96074715D01*
X139875247Y-96079761D01*
X139875248Y-96079767D01*
X139895119Y-96167939D01*
X139923222Y-96292639D01*
X140007266Y-96499616D01*
X140123987Y-96690088D01*
X140270250Y-96858938D01*
X140442126Y-97001632D01*
X140512595Y-97042811D01*
X140515445Y-97044476D01*
X140564169Y-97096114D01*
X140577240Y-97165897D01*
X140550509Y-97231669D01*
X140510055Y-97265027D01*
X140497607Y-97271507D01*
X140493474Y-97274610D01*
X140493471Y-97274612D01*
X140469247Y-97292800D01*
X140318965Y-97405635D01*
X140164629Y-97567138D01*
X140038743Y-97751680D01*
X139944688Y-97954305D01*
X139884989Y-98169570D01*
X139861251Y-98391695D01*
X139861548Y-98396848D01*
X139861548Y-98396851D01*
X139867011Y-98491590D01*
X139874110Y-98614715D01*
X139875247Y-98619761D01*
X139875248Y-98619767D01*
X139895119Y-98707939D01*
X139923222Y-98832639D01*
X140007266Y-99039616D01*
X140009965Y-99044020D01*
X140120804Y-99224893D01*
X140123987Y-99230088D01*
X140270250Y-99398938D01*
X140442126Y-99541632D01*
X140512595Y-99582811D01*
X140515445Y-99584476D01*
X140564169Y-99636114D01*
X140577240Y-99705897D01*
X140550509Y-99771669D01*
X140510055Y-99805027D01*
X140497607Y-99811507D01*
X140493474Y-99814610D01*
X140493471Y-99814612D01*
X140358973Y-99915596D01*
X140318965Y-99945635D01*
X140164629Y-100107138D01*
X140038743Y-100291680D01*
X140023003Y-100325590D01*
X139950290Y-100482237D01*
X139944688Y-100494305D01*
X139884989Y-100709570D01*
X139861251Y-100931695D01*
X139861548Y-100936848D01*
X139861548Y-100936851D01*
X139867011Y-101031590D01*
X139874110Y-101154715D01*
X139875247Y-101159761D01*
X139875248Y-101159767D01*
X139886136Y-101208080D01*
X139923222Y-101372639D01*
X140007266Y-101579616D01*
X140009965Y-101584020D01*
X140082118Y-101701763D01*
X140123987Y-101770088D01*
X140270250Y-101938938D01*
X140442126Y-102081632D01*
X140503411Y-102117444D01*
X140515445Y-102124476D01*
X140564169Y-102176114D01*
X140577240Y-102245897D01*
X140550509Y-102311669D01*
X140510055Y-102345027D01*
X140497607Y-102351507D01*
X140493474Y-102354610D01*
X140493471Y-102354612D01*
X140469247Y-102372800D01*
X140318965Y-102485635D01*
X140164629Y-102647138D01*
X140161715Y-102651410D01*
X140161714Y-102651411D01*
X140149404Y-102669457D01*
X140038743Y-102831680D01*
X139944688Y-103034305D01*
X139884989Y-103249570D01*
X139861251Y-103471695D01*
X139861548Y-103476848D01*
X139861548Y-103476851D01*
X139867011Y-103571590D01*
X139874110Y-103694715D01*
X139875247Y-103699761D01*
X139875248Y-103699767D01*
X139889449Y-103762778D01*
X139923222Y-103912639D01*
X140007266Y-104119616D01*
X140123987Y-104310088D01*
X140270250Y-104478938D01*
X140442126Y-104621632D01*
X140512595Y-104662811D01*
X140515445Y-104664476D01*
X140564169Y-104716114D01*
X140577240Y-104785897D01*
X140550509Y-104851669D01*
X140510055Y-104885027D01*
X140497607Y-104891507D01*
X140493474Y-104894610D01*
X140493471Y-104894612D01*
X140469247Y-104912800D01*
X140318965Y-105025635D01*
X140164629Y-105187138D01*
X140038743Y-105371680D01*
X140023003Y-105405590D01*
X139950290Y-105562237D01*
X139944688Y-105574305D01*
X139884989Y-105789570D01*
X139861251Y-106011695D01*
X139861548Y-106016848D01*
X139861548Y-106016851D01*
X139867011Y-106111590D01*
X139874110Y-106234715D01*
X139875247Y-106239761D01*
X139875248Y-106239767D01*
X139923181Y-106452458D01*
X139918645Y-106523310D01*
X139874325Y-106582095D01*
X139799947Y-106636134D01*
X139672160Y-106778056D01*
X139576673Y-106943444D01*
X139517658Y-107125072D01*
X139497696Y-107315000D01*
X139192500Y-107315000D01*
X139192500Y-87683250D01*
X139194246Y-87662345D01*
X139196770Y-87647344D01*
X139196770Y-87647341D01*
X139197576Y-87642552D01*
X139197729Y-87630000D01*
X139197039Y-87625184D01*
X139197039Y-87625178D01*
X139195387Y-87613644D01*
X139194234Y-87590284D01*
X139200995Y-87435446D01*
X139209656Y-87237063D01*
X139210614Y-87226114D01*
X139261233Y-86841621D01*
X139263142Y-86830795D01*
X139347080Y-86452178D01*
X139349925Y-86441561D01*
X139466539Y-86071706D01*
X139470298Y-86061377D01*
X139494827Y-86002159D01*
X139618715Y-85703068D01*
X139623357Y-85693115D01*
X139654165Y-85633935D01*
X139802424Y-85349132D01*
X139807919Y-85339613D01*
X140016292Y-85012532D01*
X140022597Y-85003528D01*
X140258678Y-84695862D01*
X140265743Y-84687442D01*
X140527744Y-84401517D01*
X140535517Y-84393744D01*
X140575894Y-84356746D01*
X140821442Y-84131743D01*
X140829862Y-84124678D01*
X141137528Y-83888597D01*
X141146532Y-83882292D01*
X141473613Y-83673919D01*
X141483133Y-83668423D01*
X141580331Y-83617825D01*
X141827124Y-83489353D01*
X141837068Y-83484715D01*
X142195385Y-83336295D01*
X142205698Y-83332542D01*
X142461262Y-83251963D01*
X142575561Y-83215925D01*
X142586178Y-83213080D01*
X142964795Y-83129142D01*
X142975621Y-83127233D01*
X143249838Y-83091132D01*
X143360115Y-83076614D01*
X143371063Y-83075656D01*
X143720554Y-83060397D01*
X143745429Y-83061777D01*
X143757724Y-83063691D01*
X143766626Y-83062527D01*
X143766628Y-83062527D01*
X143785399Y-83060072D01*
X143789286Y-83059564D01*
X143805621Y-83058500D01*
X146893887Y-83058500D01*
X146962008Y-83078502D01*
G37*
G04 #@! TD.AperFunction*
M02*
