%FSLAX45Y45*%
G04 Gerber Fmt 4.5, Leading zero omitted, Abs format (unit mm)*
G04 Created by KiCad (PCBNEW 6.0.6-3a73a75311~116~ubuntu22.04.1) date 2022-07-16 09:42:50*
%MOMM*%
%LPD*%
G01*
G04 APERTURE LIST*
%TA.AperFunction,Profile*%
%ADD10C,0.100000*%
%TD*%
%ADD11C,0.200000*%
G04 APERTURE END LIST*
D10*
X15684500Y-8763000D02*
G75*
G03*
X15176500Y-8255000I-508000J0D01*
G01*
X14287500Y-8255000D02*
X15176500Y-8255000D01*
X15176500Y-12192000D02*
X14287500Y-12192000D01*
X15684500Y-8763000D02*
X15684500Y-11684000D01*
X15176500Y-12192000D02*
G75*
G03*
X15684500Y-11684000I0J508000D01*
G01*
X13779500Y-11684000D02*
X13779500Y-8763000D01*
X14287500Y-8255000D02*
G75*
G03*
X13779500Y-8763000I0J-508000D01*
G01*
X13779500Y-11684000D02*
G75*
G03*
X14287500Y-12192000I508000J0D01*
G01*
D11*
X14032119Y-12507476D02*
X14032119Y-12307476D01*
X14079738Y-12307476D01*
X14108309Y-12317000D01*
X14127357Y-12336048D01*
X14136881Y-12355095D01*
X14146405Y-12393190D01*
X14146405Y-12421762D01*
X14136881Y-12459857D01*
X14127357Y-12478905D01*
X14108309Y-12497952D01*
X14079738Y-12507476D01*
X14032119Y-12507476D01*
X14232119Y-12507476D02*
X14232119Y-12374143D01*
X14232119Y-12412238D02*
X14241643Y-12393190D01*
X14251167Y-12383667D01*
X14270214Y-12374143D01*
X14289262Y-12374143D01*
X14355928Y-12507476D02*
X14355928Y-12374143D01*
X14355928Y-12307476D02*
X14346405Y-12317000D01*
X14355928Y-12326524D01*
X14365452Y-12317000D01*
X14355928Y-12307476D01*
X14355928Y-12326524D01*
X14479738Y-12507476D02*
X14460690Y-12497952D01*
X14451167Y-12478905D01*
X14451167Y-12307476D01*
X14584500Y-12507476D02*
X14565452Y-12497952D01*
X14555928Y-12478905D01*
X14555928Y-12307476D01*
X14813071Y-12507476D02*
X14813071Y-12307476D01*
X14879738Y-12450333D01*
X14946405Y-12307476D01*
X14946405Y-12507476D01*
X15127357Y-12507476D02*
X15127357Y-12402714D01*
X15117833Y-12383667D01*
X15098786Y-12374143D01*
X15060690Y-12374143D01*
X15041643Y-12383667D01*
X15127357Y-12497952D02*
X15108309Y-12507476D01*
X15060690Y-12507476D01*
X15041643Y-12497952D01*
X15032119Y-12478905D01*
X15032119Y-12459857D01*
X15041643Y-12440809D01*
X15060690Y-12431286D01*
X15108309Y-12431286D01*
X15127357Y-12421762D01*
X15222595Y-12374143D02*
X15222595Y-12574143D01*
X15222595Y-12383667D02*
X15241643Y-12374143D01*
X15279738Y-12374143D01*
X15298786Y-12383667D01*
X15308309Y-12393190D01*
X15317833Y-12412238D01*
X15317833Y-12469381D01*
X15308309Y-12488428D01*
X15298786Y-12497952D01*
X15279738Y-12507476D01*
X15241643Y-12507476D01*
X15222595Y-12497952D01*
X15403548Y-12488428D02*
X15413071Y-12497952D01*
X15403548Y-12507476D01*
X15394024Y-12497952D01*
X15403548Y-12488428D01*
X15403548Y-12507476D01*
X15403548Y-12383667D02*
X15413071Y-12393190D01*
X15403548Y-12402714D01*
X15394024Y-12393190D01*
X15403548Y-12383667D01*
X15403548Y-12402714D01*
M02*
