G04 #@! TF.GenerationSoftware,KiCad,Pcbnew,6.0.6-3a73a75311~116~ubuntu22.04.1*
G04 #@! TF.CreationDate,2022-07-16T09:42:50-04:00*
G04 #@! TF.ProjectId,ltc4332_breakout,6c746334-3333-4325-9f62-7265616b6f75,0*
G04 #@! TF.SameCoordinates,Original*
G04 #@! TF.FileFunction,Legend,Top*
G04 #@! TF.FilePolarity,Positive*
%FSLAX46Y46*%
G04 Gerber Fmt 4.6, Leading zero omitted, Abs format (unit mm)*
G04 Created by KiCad (PCBNEW 6.0.6-3a73a75311~116~ubuntu22.04.1) date 2022-07-16 09:42:50*
%MOMM*%
%LPD*%
G01*
G04 APERTURE LIST*
%ADD10C,0.150000*%
%ADD11C,0.120000*%
%ADD12R,1.700000X1.700000*%
%ADD13O,1.700000X1.700000*%
%ADD14C,5.600000*%
%ADD15R,3.650000X2.650000*%
G04 APERTURE END LIST*
D10*
X144986666Y-114752380D02*
X144986666Y-114085714D01*
X144986666Y-114276190D02*
X145034285Y-114180952D01*
X145081904Y-114133333D01*
X145177142Y-114085714D01*
X145272380Y-114085714D01*
X145986666Y-114704761D02*
X145891428Y-114752380D01*
X145700952Y-114752380D01*
X145605714Y-114704761D01*
X145558095Y-114609523D01*
X145558095Y-114228571D01*
X145605714Y-114133333D01*
X145700952Y-114085714D01*
X145891428Y-114085714D01*
X145986666Y-114133333D01*
X146034285Y-114228571D01*
X146034285Y-114323809D01*
X145558095Y-114419047D01*
X146462857Y-114752380D02*
X146462857Y-114085714D01*
X146462857Y-114180952D02*
X146510476Y-114133333D01*
X146605714Y-114085714D01*
X146748571Y-114085714D01*
X146843809Y-114133333D01*
X146891428Y-114228571D01*
X146891428Y-114752380D01*
X146891428Y-114228571D02*
X146939047Y-114133333D01*
X147034285Y-114085714D01*
X147177142Y-114085714D01*
X147272380Y-114133333D01*
X147320000Y-114228571D01*
X147320000Y-114752380D01*
X147939047Y-114752380D02*
X147843809Y-114704761D01*
X147796190Y-114657142D01*
X147748571Y-114561904D01*
X147748571Y-114276190D01*
X147796190Y-114180952D01*
X147843809Y-114133333D01*
X147939047Y-114085714D01*
X148081904Y-114085714D01*
X148177142Y-114133333D01*
X148224761Y-114180952D01*
X148272380Y-114276190D01*
X148272380Y-114561904D01*
X148224761Y-114657142D01*
X148177142Y-114704761D01*
X148081904Y-114752380D01*
X147939047Y-114752380D01*
X148558095Y-114085714D02*
X148939047Y-114085714D01*
X148700952Y-113752380D02*
X148700952Y-114609523D01*
X148748571Y-114704761D01*
X148843809Y-114752380D01*
X148939047Y-114752380D01*
X149653333Y-114704761D02*
X149558095Y-114752380D01*
X149367619Y-114752380D01*
X149272380Y-114704761D01*
X149224761Y-114609523D01*
X149224761Y-114228571D01*
X149272380Y-114133333D01*
X149367619Y-114085714D01*
X149558095Y-114085714D01*
X149653333Y-114133333D01*
X149700952Y-114228571D01*
X149700952Y-114323809D01*
X149224761Y-114419047D01*
X143168809Y-95829380D02*
X143073571Y-95781761D01*
X143025952Y-95686523D01*
X143025952Y-94829380D01*
X143549761Y-95829380D02*
X143549761Y-95162714D01*
X143549761Y-94829380D02*
X143502142Y-94877000D01*
X143549761Y-94924619D01*
X143597380Y-94877000D01*
X143549761Y-94829380D01*
X143549761Y-94924619D01*
X144025952Y-95162714D02*
X144025952Y-95829380D01*
X144025952Y-95257952D02*
X144073571Y-95210333D01*
X144168809Y-95162714D01*
X144311666Y-95162714D01*
X144406904Y-95210333D01*
X144454523Y-95305571D01*
X144454523Y-95829380D01*
X144930714Y-95829380D02*
X144930714Y-94829380D01*
X145025952Y-95448428D02*
X145311666Y-95829380D01*
X145311666Y-95162714D02*
X144930714Y-95543666D01*
X140001666Y-87927380D02*
X140001666Y-88641666D01*
X139954047Y-88784523D01*
X139858809Y-88879761D01*
X139715952Y-88927380D01*
X139620714Y-88927380D01*
X141001666Y-88927380D02*
X140430238Y-88927380D01*
X140715952Y-88927380D02*
X140715952Y-87927380D01*
X140620714Y-88070238D01*
X140525476Y-88165476D01*
X140430238Y-88213095D01*
X151090333Y-99131380D02*
X150757000Y-98655190D01*
X150518904Y-99131380D02*
X150518904Y-98131380D01*
X150899857Y-98131380D01*
X150995095Y-98179000D01*
X151042714Y-98226619D01*
X151090333Y-98321857D01*
X151090333Y-98464714D01*
X151042714Y-98559952D01*
X150995095Y-98607571D01*
X150899857Y-98655190D01*
X150518904Y-98655190D01*
X151947476Y-98464714D02*
X151947476Y-99131380D01*
X151709380Y-98083761D02*
X151471285Y-98798047D01*
X152090333Y-98798047D01*
X148169333Y-99671142D02*
X148121714Y-99718761D01*
X147978857Y-99766380D01*
X147883619Y-99766380D01*
X147740761Y-99718761D01*
X147645523Y-99623523D01*
X147597904Y-99528285D01*
X147550285Y-99337809D01*
X147550285Y-99194952D01*
X147597904Y-99004476D01*
X147645523Y-98909238D01*
X147740761Y-98814000D01*
X147883619Y-98766380D01*
X147978857Y-98766380D01*
X148121714Y-98814000D01*
X148169333Y-98861619D01*
X149121714Y-99766380D02*
X148550285Y-99766380D01*
X148836000Y-99766380D02*
X148836000Y-98766380D01*
X148740761Y-98909238D01*
X148645523Y-99004476D01*
X148550285Y-99052095D01*
X153971666Y-87927380D02*
X153971666Y-88641666D01*
X153924047Y-88784523D01*
X153828809Y-88879761D01*
X153685952Y-88927380D01*
X153590714Y-88927380D01*
X154400238Y-88022619D02*
X154447857Y-87975000D01*
X154543095Y-87927380D01*
X154781190Y-87927380D01*
X154876428Y-87975000D01*
X154924047Y-88022619D01*
X154971666Y-88117857D01*
X154971666Y-88213095D01*
X154924047Y-88355952D01*
X154352619Y-88927380D01*
X154971666Y-88927380D01*
X151090333Y-94310380D02*
X150757000Y-93834190D01*
X150518904Y-94310380D02*
X150518904Y-93310380D01*
X150899857Y-93310380D01*
X150995095Y-93358000D01*
X151042714Y-93405619D01*
X151090333Y-93500857D01*
X151090333Y-93643714D01*
X151042714Y-93738952D01*
X150995095Y-93786571D01*
X150899857Y-93834190D01*
X150518904Y-93834190D01*
X151423666Y-93310380D02*
X152042714Y-93310380D01*
X151709380Y-93691333D01*
X151852238Y-93691333D01*
X151947476Y-93738952D01*
X151995095Y-93786571D01*
X152042714Y-93881809D01*
X152042714Y-94119904D01*
X151995095Y-94215142D01*
X151947476Y-94262761D01*
X151852238Y-94310380D01*
X151566523Y-94310380D01*
X151471285Y-94262761D01*
X151423666Y-94215142D01*
X147750833Y-96032580D02*
X147417500Y-95556390D01*
X147179404Y-96032580D02*
X147179404Y-95032580D01*
X147560357Y-95032580D01*
X147655595Y-95080200D01*
X147703214Y-95127819D01*
X147750833Y-95223057D01*
X147750833Y-95365914D01*
X147703214Y-95461152D01*
X147655595Y-95508771D01*
X147560357Y-95556390D01*
X147179404Y-95556390D01*
X148131785Y-95127819D02*
X148179404Y-95080200D01*
X148274642Y-95032580D01*
X148512738Y-95032580D01*
X148607976Y-95080200D01*
X148655595Y-95127819D01*
X148703214Y-95223057D01*
X148703214Y-95318295D01*
X148655595Y-95461152D01*
X148084166Y-96032580D01*
X148703214Y-96032580D01*
X143406904Y-94432380D02*
X143406904Y-93432380D01*
X143645000Y-93432380D01*
X143787857Y-93480000D01*
X143883095Y-93575238D01*
X143930714Y-93670476D01*
X143978333Y-93860952D01*
X143978333Y-94003809D01*
X143930714Y-94194285D01*
X143883095Y-94289523D01*
X143787857Y-94384761D01*
X143645000Y-94432380D01*
X143406904Y-94432380D01*
X144930714Y-94432380D02*
X144359285Y-94432380D01*
X144645000Y-94432380D02*
X144645000Y-93432380D01*
X144549761Y-93575238D01*
X144454523Y-93670476D01*
X144359285Y-93718095D01*
X145148595Y-102957380D02*
X145148595Y-103766904D01*
X145196214Y-103862142D01*
X145243833Y-103909761D01*
X145339071Y-103957380D01*
X145529547Y-103957380D01*
X145624785Y-103909761D01*
X145672404Y-103862142D01*
X145720023Y-103766904D01*
X145720023Y-102957380D01*
X146720023Y-103957380D02*
X146148595Y-103957380D01*
X146434309Y-103957380D02*
X146434309Y-102957380D01*
X146339071Y-103100238D01*
X146243833Y-103195476D01*
X146148595Y-103243095D01*
X143978333Y-99544142D02*
X143930714Y-99591761D01*
X143787857Y-99639380D01*
X143692619Y-99639380D01*
X143549761Y-99591761D01*
X143454523Y-99496523D01*
X143406904Y-99401285D01*
X143359285Y-99210809D01*
X143359285Y-99067952D01*
X143406904Y-98877476D01*
X143454523Y-98782238D01*
X143549761Y-98687000D01*
X143692619Y-98639380D01*
X143787857Y-98639380D01*
X143930714Y-98687000D01*
X143978333Y-98734619D01*
X144359285Y-98734619D02*
X144406904Y-98687000D01*
X144502142Y-98639380D01*
X144740238Y-98639380D01*
X144835476Y-98687000D01*
X144883095Y-98734619D01*
X144930714Y-98829857D01*
X144930714Y-98925095D01*
X144883095Y-99067952D01*
X144311666Y-99639380D01*
X144930714Y-99639380D01*
X151090333Y-103962380D02*
X150757000Y-103486190D01*
X150518904Y-103962380D02*
X150518904Y-102962380D01*
X150899857Y-102962380D01*
X150995095Y-103010000D01*
X151042714Y-103057619D01*
X151090333Y-103152857D01*
X151090333Y-103295714D01*
X151042714Y-103390952D01*
X150995095Y-103438571D01*
X150899857Y-103486190D01*
X150518904Y-103486190D01*
X151995095Y-102962380D02*
X151518904Y-102962380D01*
X151471285Y-103438571D01*
X151518904Y-103390952D01*
X151614142Y-103343333D01*
X151852238Y-103343333D01*
X151947476Y-103390952D01*
X151995095Y-103438571D01*
X152042714Y-103533809D01*
X152042714Y-103771904D01*
X151995095Y-103867142D01*
X151947476Y-103914761D01*
X151852238Y-103962380D01*
X151614142Y-103962380D01*
X151518904Y-103914761D01*
X151471285Y-103867142D01*
X143965833Y-89607380D02*
X143632500Y-89131190D01*
X143394404Y-89607380D02*
X143394404Y-88607380D01*
X143775357Y-88607380D01*
X143870595Y-88655000D01*
X143918214Y-88702619D01*
X143965833Y-88797857D01*
X143965833Y-88940714D01*
X143918214Y-89035952D01*
X143870595Y-89083571D01*
X143775357Y-89131190D01*
X143394404Y-89131190D01*
X144918214Y-89607380D02*
X144346785Y-89607380D01*
X144632500Y-89607380D02*
X144632500Y-88607380D01*
X144537261Y-88750238D01*
X144442023Y-88845476D01*
X144346785Y-88893095D01*
X143057666Y-112101380D02*
X143057666Y-112815666D01*
X143010047Y-112958523D01*
X142914809Y-113053761D01*
X142771952Y-113101380D01*
X142676714Y-113101380D01*
X143533857Y-113101380D02*
X143533857Y-112101380D01*
X143914809Y-112101380D01*
X144010047Y-112149000D01*
X144057666Y-112196619D01*
X144105285Y-112291857D01*
X144105285Y-112434714D01*
X144057666Y-112529952D01*
X144010047Y-112577571D01*
X143914809Y-112625190D01*
X143533857Y-112625190D01*
X145057666Y-113101380D02*
X144486238Y-113101380D01*
X144771952Y-113101380D02*
X144771952Y-112101380D01*
X144676714Y-112244238D01*
X144581476Y-112339476D01*
X144486238Y-112387095D01*
X150582333Y-111451380D02*
X150249000Y-110975190D01*
X150010904Y-111451380D02*
X150010904Y-110451380D01*
X150391857Y-110451380D01*
X150487095Y-110499000D01*
X150534714Y-110546619D01*
X150582333Y-110641857D01*
X150582333Y-110784714D01*
X150534714Y-110879952D01*
X150487095Y-110927571D01*
X150391857Y-110975190D01*
X150010904Y-110975190D01*
X151439476Y-110451380D02*
X151249000Y-110451380D01*
X151153761Y-110499000D01*
X151106142Y-110546619D01*
X151010904Y-110689476D01*
X150963285Y-110879952D01*
X150963285Y-111260904D01*
X151010904Y-111356142D01*
X151058523Y-111403761D01*
X151153761Y-111451380D01*
X151344238Y-111451380D01*
X151439476Y-111403761D01*
X151487095Y-111356142D01*
X151534714Y-111260904D01*
X151534714Y-111022809D01*
X151487095Y-110927571D01*
X151439476Y-110879952D01*
X151344238Y-110832333D01*
X151153761Y-110832333D01*
X151058523Y-110879952D01*
X151010904Y-110927571D01*
X150963285Y-111022809D01*
D11*
X139005000Y-92075000D02*
X139005000Y-114995000D01*
X139005000Y-90805000D02*
X139005000Y-89475000D01*
X139005000Y-114995000D02*
X141665000Y-114995000D01*
X139005000Y-89475000D02*
X140335000Y-89475000D01*
X141665000Y-92075000D02*
X141665000Y-114995000D01*
X139005000Y-92075000D02*
X141665000Y-92075000D01*
X151992000Y-100732936D02*
X151992000Y-101187064D01*
X150522000Y-100732936D02*
X150522000Y-101187064D01*
X147693748Y-100230000D02*
X148216252Y-100230000D01*
X147693748Y-101700000D02*
X148216252Y-101700000D01*
X152975000Y-92075000D02*
X152975000Y-104835000D01*
X152975000Y-104835000D02*
X155635000Y-104835000D01*
X152975000Y-90805000D02*
X152975000Y-89475000D01*
X155635000Y-92075000D02*
X155635000Y-104835000D01*
X152975000Y-92075000D02*
X155635000Y-92075000D01*
X152975000Y-89475000D02*
X154305000Y-89475000D01*
X150522000Y-95911936D02*
X150522000Y-96366064D01*
X151992000Y-95911936D02*
X151992000Y-96366064D01*
X148144564Y-96420000D02*
X147690436Y-96420000D01*
X148144564Y-97890000D02*
X147690436Y-97890000D01*
X145132500Y-96195000D02*
X142447500Y-96195000D01*
X142447500Y-98115000D02*
X145132500Y-98115000D01*
X142447500Y-96195000D02*
X142447500Y-98115000D01*
X148708500Y-105672000D02*
X148708500Y-104697000D01*
X143488500Y-107942000D02*
X143488500Y-108917000D01*
X148708500Y-107942000D02*
X148708500Y-108917000D01*
X143488500Y-108917000D02*
X144463500Y-108917000D01*
X148708500Y-108917000D02*
X147733500Y-108917000D01*
X143488500Y-105672000D02*
X143488500Y-104697000D01*
X143488500Y-104697000D02*
X144463500Y-104697000D01*
X144406252Y-100230000D02*
X143883748Y-100230000D01*
X144406252Y-101700000D02*
X143883748Y-101700000D01*
X151992000Y-106018064D02*
X151992000Y-105563936D01*
X150522000Y-106018064D02*
X150522000Y-105563936D01*
X143905436Y-90070000D02*
X144359564Y-90070000D01*
X143905436Y-91540000D02*
X144359564Y-91540000D01*
X148302000Y-113649000D02*
X145502000Y-113649000D01*
X145502000Y-111649000D02*
X148302000Y-111649000D01*
X148302000Y-111649000D02*
X148302000Y-113649000D01*
X145502000Y-113649000D02*
X145502000Y-111649000D01*
X150521936Y-113384000D02*
X150976064Y-113384000D01*
X150521936Y-111914000D02*
X150976064Y-111914000D01*
%LPC*%
D12*
X140335000Y-90805000D03*
D13*
X140335000Y-93345000D03*
X140335000Y-95885000D03*
X140335000Y-98425000D03*
X140335000Y-100965000D03*
X140335000Y-103505000D03*
X140335000Y-106045000D03*
X140335000Y-108585000D03*
X140335000Y-111125000D03*
X140335000Y-113665000D03*
G36*
G01*
X150807000Y-99535000D02*
X151707000Y-99535000D01*
G75*
G02*
X151957000Y-99785000I0J-250000D01*
G01*
X151957000Y-100310000D01*
G75*
G02*
X151707000Y-100560000I-250000J0D01*
G01*
X150807000Y-100560000D01*
G75*
G02*
X150557000Y-100310000I0J250000D01*
G01*
X150557000Y-99785000D01*
G75*
G02*
X150807000Y-99535000I250000J0D01*
G01*
G37*
G36*
G01*
X150807000Y-101360000D02*
X151707000Y-101360000D01*
G75*
G02*
X151957000Y-101610000I0J-250000D01*
G01*
X151957000Y-102135000D01*
G75*
G02*
X151707000Y-102385000I-250000J0D01*
G01*
X150807000Y-102385000D01*
G75*
G02*
X150557000Y-102135000I0J250000D01*
G01*
X150557000Y-101610000D01*
G75*
G02*
X150807000Y-101360000I250000J0D01*
G01*
G37*
G36*
G01*
X146505000Y-101440000D02*
X146505000Y-100490000D01*
G75*
G02*
X146755000Y-100240000I250000J0D01*
G01*
X147255000Y-100240000D01*
G75*
G02*
X147505000Y-100490000I0J-250000D01*
G01*
X147505000Y-101440000D01*
G75*
G02*
X147255000Y-101690000I-250000J0D01*
G01*
X146755000Y-101690000D01*
G75*
G02*
X146505000Y-101440000I0J250000D01*
G01*
G37*
G36*
G01*
X148405000Y-101440000D02*
X148405000Y-100490000D01*
G75*
G02*
X148655000Y-100240000I250000J0D01*
G01*
X149155000Y-100240000D01*
G75*
G02*
X149405000Y-100490000I0J-250000D01*
G01*
X149405000Y-101440000D01*
G75*
G02*
X149155000Y-101690000I-250000J0D01*
G01*
X148655000Y-101690000D01*
G75*
G02*
X148405000Y-101440000I0J250000D01*
G01*
G37*
D12*
X154305000Y-90805000D03*
D13*
X154305000Y-93345000D03*
X154305000Y-95885000D03*
X154305000Y-98425000D03*
X154305000Y-100965000D03*
X154305000Y-103505000D03*
D14*
X147320000Y-118110000D03*
G36*
G01*
X150807000Y-94714000D02*
X151707000Y-94714000D01*
G75*
G02*
X151957000Y-94964000I0J-250000D01*
G01*
X151957000Y-95489000D01*
G75*
G02*
X151707000Y-95739000I-250000J0D01*
G01*
X150807000Y-95739000D01*
G75*
G02*
X150557000Y-95489000I0J250000D01*
G01*
X150557000Y-94964000D01*
G75*
G02*
X150807000Y-94714000I250000J0D01*
G01*
G37*
G36*
G01*
X150807000Y-96539000D02*
X151707000Y-96539000D01*
G75*
G02*
X151957000Y-96789000I0J-250000D01*
G01*
X151957000Y-97314000D01*
G75*
G02*
X151707000Y-97564000I-250000J0D01*
G01*
X150807000Y-97564000D01*
G75*
G02*
X150557000Y-97314000I0J250000D01*
G01*
X150557000Y-96789000D01*
G75*
G02*
X150807000Y-96539000I250000J0D01*
G01*
G37*
G36*
G01*
X149342500Y-96705000D02*
X149342500Y-97605000D01*
G75*
G02*
X149092500Y-97855000I-250000J0D01*
G01*
X148567500Y-97855000D01*
G75*
G02*
X148317500Y-97605000I0J250000D01*
G01*
X148317500Y-96705000D01*
G75*
G02*
X148567500Y-96455000I250000J0D01*
G01*
X149092500Y-96455000D01*
G75*
G02*
X149342500Y-96705000I0J-250000D01*
G01*
G37*
G36*
G01*
X147517500Y-96705000D02*
X147517500Y-97605000D01*
G75*
G02*
X147267500Y-97855000I-250000J0D01*
G01*
X146742500Y-97855000D01*
G75*
G02*
X146492500Y-97605000I0J250000D01*
G01*
X146492500Y-96705000D01*
G75*
G02*
X146742500Y-96455000I250000J0D01*
G01*
X147267500Y-96455000D01*
G75*
G02*
X147517500Y-96705000I0J-250000D01*
G01*
G37*
X147320000Y-86360000D03*
G36*
G01*
X142707500Y-97611250D02*
X142707500Y-96698750D01*
G75*
G02*
X142951250Y-96455000I243750J0D01*
G01*
X143438750Y-96455000D01*
G75*
G02*
X143682500Y-96698750I0J-243750D01*
G01*
X143682500Y-97611250D01*
G75*
G02*
X143438750Y-97855000I-243750J0D01*
G01*
X142951250Y-97855000D01*
G75*
G02*
X142707500Y-97611250I0J243750D01*
G01*
G37*
G36*
G01*
X144582500Y-97611250D02*
X144582500Y-96698750D01*
G75*
G02*
X144826250Y-96455000I243750J0D01*
G01*
X145313750Y-96455000D01*
G75*
G02*
X145557500Y-96698750I0J-243750D01*
G01*
X145557500Y-97611250D01*
G75*
G02*
X145313750Y-97855000I-243750J0D01*
G01*
X144826250Y-97855000D01*
G75*
G02*
X144582500Y-97611250I0J243750D01*
G01*
G37*
G36*
G01*
X147286000Y-104432000D02*
X147411000Y-104432000D01*
G75*
G02*
X147473500Y-104494500I0J-62500D01*
G01*
X147473500Y-105219500D01*
G75*
G02*
X147411000Y-105282000I-62500J0D01*
G01*
X147286000Y-105282000D01*
G75*
G02*
X147223500Y-105219500I0J62500D01*
G01*
X147223500Y-104494500D01*
G75*
G02*
X147286000Y-104432000I62500J0D01*
G01*
G37*
G36*
G01*
X146786000Y-104432000D02*
X146911000Y-104432000D01*
G75*
G02*
X146973500Y-104494500I0J-62500D01*
G01*
X146973500Y-105219500D01*
G75*
G02*
X146911000Y-105282000I-62500J0D01*
G01*
X146786000Y-105282000D01*
G75*
G02*
X146723500Y-105219500I0J62500D01*
G01*
X146723500Y-104494500D01*
G75*
G02*
X146786000Y-104432000I62500J0D01*
G01*
G37*
G36*
G01*
X146286000Y-104432000D02*
X146411000Y-104432000D01*
G75*
G02*
X146473500Y-104494500I0J-62500D01*
G01*
X146473500Y-105219500D01*
G75*
G02*
X146411000Y-105282000I-62500J0D01*
G01*
X146286000Y-105282000D01*
G75*
G02*
X146223500Y-105219500I0J62500D01*
G01*
X146223500Y-104494500D01*
G75*
G02*
X146286000Y-104432000I62500J0D01*
G01*
G37*
G36*
G01*
X145786000Y-104432000D02*
X145911000Y-104432000D01*
G75*
G02*
X145973500Y-104494500I0J-62500D01*
G01*
X145973500Y-105219500D01*
G75*
G02*
X145911000Y-105282000I-62500J0D01*
G01*
X145786000Y-105282000D01*
G75*
G02*
X145723500Y-105219500I0J62500D01*
G01*
X145723500Y-104494500D01*
G75*
G02*
X145786000Y-104432000I62500J0D01*
G01*
G37*
G36*
G01*
X145286000Y-104432000D02*
X145411000Y-104432000D01*
G75*
G02*
X145473500Y-104494500I0J-62500D01*
G01*
X145473500Y-105219500D01*
G75*
G02*
X145411000Y-105282000I-62500J0D01*
G01*
X145286000Y-105282000D01*
G75*
G02*
X145223500Y-105219500I0J62500D01*
G01*
X145223500Y-104494500D01*
G75*
G02*
X145286000Y-104432000I62500J0D01*
G01*
G37*
G36*
G01*
X144786000Y-104432000D02*
X144911000Y-104432000D01*
G75*
G02*
X144973500Y-104494500I0J-62500D01*
G01*
X144973500Y-105219500D01*
G75*
G02*
X144911000Y-105282000I-62500J0D01*
G01*
X144786000Y-105282000D01*
G75*
G02*
X144723500Y-105219500I0J62500D01*
G01*
X144723500Y-104494500D01*
G75*
G02*
X144786000Y-104432000I62500J0D01*
G01*
G37*
G36*
G01*
X143286000Y-105932000D02*
X144011000Y-105932000D01*
G75*
G02*
X144073500Y-105994500I0J-62500D01*
G01*
X144073500Y-106119500D01*
G75*
G02*
X144011000Y-106182000I-62500J0D01*
G01*
X143286000Y-106182000D01*
G75*
G02*
X143223500Y-106119500I0J62500D01*
G01*
X143223500Y-105994500D01*
G75*
G02*
X143286000Y-105932000I62500J0D01*
G01*
G37*
G36*
G01*
X143286000Y-106432000D02*
X144011000Y-106432000D01*
G75*
G02*
X144073500Y-106494500I0J-62500D01*
G01*
X144073500Y-106619500D01*
G75*
G02*
X144011000Y-106682000I-62500J0D01*
G01*
X143286000Y-106682000D01*
G75*
G02*
X143223500Y-106619500I0J62500D01*
G01*
X143223500Y-106494500D01*
G75*
G02*
X143286000Y-106432000I62500J0D01*
G01*
G37*
G36*
G01*
X143286000Y-106932000D02*
X144011000Y-106932000D01*
G75*
G02*
X144073500Y-106994500I0J-62500D01*
G01*
X144073500Y-107119500D01*
G75*
G02*
X144011000Y-107182000I-62500J0D01*
G01*
X143286000Y-107182000D01*
G75*
G02*
X143223500Y-107119500I0J62500D01*
G01*
X143223500Y-106994500D01*
G75*
G02*
X143286000Y-106932000I62500J0D01*
G01*
G37*
G36*
G01*
X143286000Y-107432000D02*
X144011000Y-107432000D01*
G75*
G02*
X144073500Y-107494500I0J-62500D01*
G01*
X144073500Y-107619500D01*
G75*
G02*
X144011000Y-107682000I-62500J0D01*
G01*
X143286000Y-107682000D01*
G75*
G02*
X143223500Y-107619500I0J62500D01*
G01*
X143223500Y-107494500D01*
G75*
G02*
X143286000Y-107432000I62500J0D01*
G01*
G37*
G36*
G01*
X144786000Y-108332000D02*
X144911000Y-108332000D01*
G75*
G02*
X144973500Y-108394500I0J-62500D01*
G01*
X144973500Y-109119500D01*
G75*
G02*
X144911000Y-109182000I-62500J0D01*
G01*
X144786000Y-109182000D01*
G75*
G02*
X144723500Y-109119500I0J62500D01*
G01*
X144723500Y-108394500D01*
G75*
G02*
X144786000Y-108332000I62500J0D01*
G01*
G37*
G36*
G01*
X145286000Y-108332000D02*
X145411000Y-108332000D01*
G75*
G02*
X145473500Y-108394500I0J-62500D01*
G01*
X145473500Y-109119500D01*
G75*
G02*
X145411000Y-109182000I-62500J0D01*
G01*
X145286000Y-109182000D01*
G75*
G02*
X145223500Y-109119500I0J62500D01*
G01*
X145223500Y-108394500D01*
G75*
G02*
X145286000Y-108332000I62500J0D01*
G01*
G37*
G36*
G01*
X145786000Y-108332000D02*
X145911000Y-108332000D01*
G75*
G02*
X145973500Y-108394500I0J-62500D01*
G01*
X145973500Y-109119500D01*
G75*
G02*
X145911000Y-109182000I-62500J0D01*
G01*
X145786000Y-109182000D01*
G75*
G02*
X145723500Y-109119500I0J62500D01*
G01*
X145723500Y-108394500D01*
G75*
G02*
X145786000Y-108332000I62500J0D01*
G01*
G37*
G36*
G01*
X146286000Y-108332000D02*
X146411000Y-108332000D01*
G75*
G02*
X146473500Y-108394500I0J-62500D01*
G01*
X146473500Y-109119500D01*
G75*
G02*
X146411000Y-109182000I-62500J0D01*
G01*
X146286000Y-109182000D01*
G75*
G02*
X146223500Y-109119500I0J62500D01*
G01*
X146223500Y-108394500D01*
G75*
G02*
X146286000Y-108332000I62500J0D01*
G01*
G37*
G36*
G01*
X146786000Y-108332000D02*
X146911000Y-108332000D01*
G75*
G02*
X146973500Y-108394500I0J-62500D01*
G01*
X146973500Y-109119500D01*
G75*
G02*
X146911000Y-109182000I-62500J0D01*
G01*
X146786000Y-109182000D01*
G75*
G02*
X146723500Y-109119500I0J62500D01*
G01*
X146723500Y-108394500D01*
G75*
G02*
X146786000Y-108332000I62500J0D01*
G01*
G37*
G36*
G01*
X147286000Y-108332000D02*
X147411000Y-108332000D01*
G75*
G02*
X147473500Y-108394500I0J-62500D01*
G01*
X147473500Y-109119500D01*
G75*
G02*
X147411000Y-109182000I-62500J0D01*
G01*
X147286000Y-109182000D01*
G75*
G02*
X147223500Y-109119500I0J62500D01*
G01*
X147223500Y-108394500D01*
G75*
G02*
X147286000Y-108332000I62500J0D01*
G01*
G37*
G36*
G01*
X148186000Y-107432000D02*
X148911000Y-107432000D01*
G75*
G02*
X148973500Y-107494500I0J-62500D01*
G01*
X148973500Y-107619500D01*
G75*
G02*
X148911000Y-107682000I-62500J0D01*
G01*
X148186000Y-107682000D01*
G75*
G02*
X148123500Y-107619500I0J62500D01*
G01*
X148123500Y-107494500D01*
G75*
G02*
X148186000Y-107432000I62500J0D01*
G01*
G37*
G36*
G01*
X148186000Y-106932000D02*
X148911000Y-106932000D01*
G75*
G02*
X148973500Y-106994500I0J-62500D01*
G01*
X148973500Y-107119500D01*
G75*
G02*
X148911000Y-107182000I-62500J0D01*
G01*
X148186000Y-107182000D01*
G75*
G02*
X148123500Y-107119500I0J62500D01*
G01*
X148123500Y-106994500D01*
G75*
G02*
X148186000Y-106932000I62500J0D01*
G01*
G37*
G36*
G01*
X148186000Y-106432000D02*
X148911000Y-106432000D01*
G75*
G02*
X148973500Y-106494500I0J-62500D01*
G01*
X148973500Y-106619500D01*
G75*
G02*
X148911000Y-106682000I-62500J0D01*
G01*
X148186000Y-106682000D01*
G75*
G02*
X148123500Y-106619500I0J62500D01*
G01*
X148123500Y-106494500D01*
G75*
G02*
X148186000Y-106432000I62500J0D01*
G01*
G37*
G36*
G01*
X148186000Y-105932000D02*
X148911000Y-105932000D01*
G75*
G02*
X148973500Y-105994500I0J-62500D01*
G01*
X148973500Y-106119500D01*
G75*
G02*
X148911000Y-106182000I-62500J0D01*
G01*
X148186000Y-106182000D01*
G75*
G02*
X148123500Y-106119500I0J62500D01*
G01*
X148123500Y-105994500D01*
G75*
G02*
X148186000Y-105932000I62500J0D01*
G01*
G37*
D15*
X146098500Y-106807000D03*
G36*
G01*
X145595000Y-100490000D02*
X145595000Y-101440000D01*
G75*
G02*
X145345000Y-101690000I-250000J0D01*
G01*
X144845000Y-101690000D01*
G75*
G02*
X144595000Y-101440000I0J250000D01*
G01*
X144595000Y-100490000D01*
G75*
G02*
X144845000Y-100240000I250000J0D01*
G01*
X145345000Y-100240000D01*
G75*
G02*
X145595000Y-100490000I0J-250000D01*
G01*
G37*
G36*
G01*
X143695000Y-100490000D02*
X143695000Y-101440000D01*
G75*
G02*
X143445000Y-101690000I-250000J0D01*
G01*
X142945000Y-101690000D01*
G75*
G02*
X142695000Y-101440000I0J250000D01*
G01*
X142695000Y-100490000D01*
G75*
G02*
X142945000Y-100240000I250000J0D01*
G01*
X143445000Y-100240000D01*
G75*
G02*
X143695000Y-100490000I0J-250000D01*
G01*
G37*
G36*
G01*
X151707000Y-107216000D02*
X150807000Y-107216000D01*
G75*
G02*
X150557000Y-106966000I0J250000D01*
G01*
X150557000Y-106441000D01*
G75*
G02*
X150807000Y-106191000I250000J0D01*
G01*
X151707000Y-106191000D01*
G75*
G02*
X151957000Y-106441000I0J-250000D01*
G01*
X151957000Y-106966000D01*
G75*
G02*
X151707000Y-107216000I-250000J0D01*
G01*
G37*
G36*
G01*
X151707000Y-105391000D02*
X150807000Y-105391000D01*
G75*
G02*
X150557000Y-105141000I0J250000D01*
G01*
X150557000Y-104616000D01*
G75*
G02*
X150807000Y-104366000I250000J0D01*
G01*
X151707000Y-104366000D01*
G75*
G02*
X151957000Y-104616000I0J-250000D01*
G01*
X151957000Y-105141000D01*
G75*
G02*
X151707000Y-105391000I-250000J0D01*
G01*
G37*
G36*
G01*
X142707500Y-91255000D02*
X142707500Y-90355000D01*
G75*
G02*
X142957500Y-90105000I250000J0D01*
G01*
X143482500Y-90105000D01*
G75*
G02*
X143732500Y-90355000I0J-250000D01*
G01*
X143732500Y-91255000D01*
G75*
G02*
X143482500Y-91505000I-250000J0D01*
G01*
X142957500Y-91505000D01*
G75*
G02*
X142707500Y-91255000I0J250000D01*
G01*
G37*
G36*
G01*
X144532500Y-91255000D02*
X144532500Y-90355000D01*
G75*
G02*
X144782500Y-90105000I250000J0D01*
G01*
X145307500Y-90105000D01*
G75*
G02*
X145557500Y-90355000I0J-250000D01*
G01*
X145557500Y-91255000D01*
G75*
G02*
X145307500Y-91505000I-250000J0D01*
G01*
X144782500Y-91505000D01*
G75*
G02*
X144532500Y-91255000I0J250000D01*
G01*
G37*
G36*
X147177000Y-112649000D02*
G01*
X146677000Y-113399000D01*
X145677000Y-113399000D01*
X145677000Y-111899000D01*
X146677000Y-111899000D01*
X147177000Y-112649000D01*
G37*
G36*
X148127000Y-113399000D02*
G01*
X146977000Y-113399000D01*
X147477000Y-112649000D01*
X146977000Y-111899000D01*
X148127000Y-111899000D01*
X148127000Y-113399000D01*
G37*
G36*
G01*
X149324000Y-113099000D02*
X149324000Y-112199000D01*
G75*
G02*
X149574000Y-111949000I250000J0D01*
G01*
X150099000Y-111949000D01*
G75*
G02*
X150349000Y-112199000I0J-250000D01*
G01*
X150349000Y-113099000D01*
G75*
G02*
X150099000Y-113349000I-250000J0D01*
G01*
X149574000Y-113349000D01*
G75*
G02*
X149324000Y-113099000I0J250000D01*
G01*
G37*
G36*
G01*
X151149000Y-113099000D02*
X151149000Y-112199000D01*
G75*
G02*
X151399000Y-111949000I250000J0D01*
G01*
X151924000Y-111949000D01*
G75*
G02*
X152174000Y-112199000I0J-250000D01*
G01*
X152174000Y-113099000D01*
G75*
G02*
X151924000Y-113349000I-250000J0D01*
G01*
X151399000Y-113349000D01*
G75*
G02*
X151149000Y-113099000I0J250000D01*
G01*
G37*
M02*
