M48
; DRILL file {KiCad 6.0.6-3a73a75311~116~ubuntu22.04.1} date Thu 23 Jun 2022 03:23:09 PM EDT
; FORMAT={-:-/ absolute / metric / decimal}
; #@! TF.CreationDate,2022-06-23T15:23:09-04:00
; #@! TF.GenerationSoftware,Kicad,Pcbnew,6.0.6-3a73a75311~116~ubuntu22.04.1
; #@! TF.FileFunction,Plated,1,2,PTH
FMAT,2
METRIC
; #@! TA.AperFunction,Plated,PTH,ViaDrill
T1C0.400
; #@! TA.AperFunction,Plated,PTH,ComponentDrill
T2C1.000
; #@! TA.AperFunction,Plated,PTH,ComponentDrill
T3C3.200
%
G90
G05
T1
X140.411Y-107.315
X143.129Y-99.695
X143.131Y-107.313
X145.186Y-104.775
X145.669Y-107.315
X147.472Y-110.82
X147.574Y-102.489
X148.082Y-99.847
X148.285Y-106.807
X148.47Y-110.878
X149.606Y-102.184
X150.114Y-109.855
X150.724Y-99.695
T2
X141.224Y-90.805
X141.224Y-93.345
X141.224Y-95.885
X141.224Y-98.425
X141.224Y-100.965
X141.224Y-103.505
X141.224Y-106.045
X141.224Y-108.585
X141.224Y-111.125
X141.224Y-113.665
X155.194Y-90.805
X155.194Y-93.345
X155.194Y-95.885
X155.194Y-98.425
X155.194Y-100.965
X155.194Y-103.505
T3
X147.574Y-118.11
X148.209Y-86.36
T0
M30
