G04 #@! TF.GenerationSoftware,KiCad,Pcbnew,6.0.6-3a73a75311~116~ubuntu22.04.1*
G04 #@! TF.CreationDate,2022-07-16T09:42:50-04:00*
G04 #@! TF.ProjectId,ltc4332_breakout,6c746334-3333-4325-9f62-7265616b6f75,0*
G04 #@! TF.SameCoordinates,Original*
G04 #@! TF.FileFunction,Paste,Top*
G04 #@! TF.FilePolarity,Positive*
%FSLAX46Y46*%
G04 Gerber Fmt 4.6, Leading zero omitted, Abs format (unit mm)*
G04 Created by KiCad (PCBNEW 6.0.6-3a73a75311~116~ubuntu22.04.1) date 2022-07-16 09:42:50*
%MOMM*%
%LPD*%
G01*
G04 APERTURE LIST*
G04 APERTURE END LIST*
G36*
G01*
X150807000Y-99535000D02*
X151707000Y-99535000D01*
G75*
G02*
X151957000Y-99785000I0J-250000D01*
G01*
X151957000Y-100310000D01*
G75*
G02*
X151707000Y-100560000I-250000J0D01*
G01*
X150807000Y-100560000D01*
G75*
G02*
X150557000Y-100310000I0J250000D01*
G01*
X150557000Y-99785000D01*
G75*
G02*
X150807000Y-99535000I250000J0D01*
G01*
G37*
G36*
G01*
X150807000Y-101360000D02*
X151707000Y-101360000D01*
G75*
G02*
X151957000Y-101610000I0J-250000D01*
G01*
X151957000Y-102135000D01*
G75*
G02*
X151707000Y-102385000I-250000J0D01*
G01*
X150807000Y-102385000D01*
G75*
G02*
X150557000Y-102135000I0J250000D01*
G01*
X150557000Y-101610000D01*
G75*
G02*
X150807000Y-101360000I250000J0D01*
G01*
G37*
G36*
G01*
X146505000Y-101440000D02*
X146505000Y-100490000D01*
G75*
G02*
X146755000Y-100240000I250000J0D01*
G01*
X147255000Y-100240000D01*
G75*
G02*
X147505000Y-100490000I0J-250000D01*
G01*
X147505000Y-101440000D01*
G75*
G02*
X147255000Y-101690000I-250000J0D01*
G01*
X146755000Y-101690000D01*
G75*
G02*
X146505000Y-101440000I0J250000D01*
G01*
G37*
G36*
G01*
X148405000Y-101440000D02*
X148405000Y-100490000D01*
G75*
G02*
X148655000Y-100240000I250000J0D01*
G01*
X149155000Y-100240000D01*
G75*
G02*
X149405000Y-100490000I0J-250000D01*
G01*
X149405000Y-101440000D01*
G75*
G02*
X149155000Y-101690000I-250000J0D01*
G01*
X148655000Y-101690000D01*
G75*
G02*
X148405000Y-101440000I0J250000D01*
G01*
G37*
G36*
G01*
X150807000Y-94714000D02*
X151707000Y-94714000D01*
G75*
G02*
X151957000Y-94964000I0J-250000D01*
G01*
X151957000Y-95489000D01*
G75*
G02*
X151707000Y-95739000I-250000J0D01*
G01*
X150807000Y-95739000D01*
G75*
G02*
X150557000Y-95489000I0J250000D01*
G01*
X150557000Y-94964000D01*
G75*
G02*
X150807000Y-94714000I250000J0D01*
G01*
G37*
G36*
G01*
X150807000Y-96539000D02*
X151707000Y-96539000D01*
G75*
G02*
X151957000Y-96789000I0J-250000D01*
G01*
X151957000Y-97314000D01*
G75*
G02*
X151707000Y-97564000I-250000J0D01*
G01*
X150807000Y-97564000D01*
G75*
G02*
X150557000Y-97314000I0J250000D01*
G01*
X150557000Y-96789000D01*
G75*
G02*
X150807000Y-96539000I250000J0D01*
G01*
G37*
G36*
G01*
X149342500Y-96705000D02*
X149342500Y-97605000D01*
G75*
G02*
X149092500Y-97855000I-250000J0D01*
G01*
X148567500Y-97855000D01*
G75*
G02*
X148317500Y-97605000I0J250000D01*
G01*
X148317500Y-96705000D01*
G75*
G02*
X148567500Y-96455000I250000J0D01*
G01*
X149092500Y-96455000D01*
G75*
G02*
X149342500Y-96705000I0J-250000D01*
G01*
G37*
G36*
G01*
X147517500Y-96705000D02*
X147517500Y-97605000D01*
G75*
G02*
X147267500Y-97855000I-250000J0D01*
G01*
X146742500Y-97855000D01*
G75*
G02*
X146492500Y-97605000I0J250000D01*
G01*
X146492500Y-96705000D01*
G75*
G02*
X146742500Y-96455000I250000J0D01*
G01*
X147267500Y-96455000D01*
G75*
G02*
X147517500Y-96705000I0J-250000D01*
G01*
G37*
G36*
G01*
X142707500Y-97611250D02*
X142707500Y-96698750D01*
G75*
G02*
X142951250Y-96455000I243750J0D01*
G01*
X143438750Y-96455000D01*
G75*
G02*
X143682500Y-96698750I0J-243750D01*
G01*
X143682500Y-97611250D01*
G75*
G02*
X143438750Y-97855000I-243750J0D01*
G01*
X142951250Y-97855000D01*
G75*
G02*
X142707500Y-97611250I0J243750D01*
G01*
G37*
G36*
G01*
X144582500Y-97611250D02*
X144582500Y-96698750D01*
G75*
G02*
X144826250Y-96455000I243750J0D01*
G01*
X145313750Y-96455000D01*
G75*
G02*
X145557500Y-96698750I0J-243750D01*
G01*
X145557500Y-97611250D01*
G75*
G02*
X145313750Y-97855000I-243750J0D01*
G01*
X144826250Y-97855000D01*
G75*
G02*
X144582500Y-97611250I0J243750D01*
G01*
G37*
G36*
G01*
X144633500Y-106932000D02*
X145123500Y-106932000D01*
G75*
G02*
X145368500Y-107177000I0J-245000D01*
G01*
X145368500Y-107757000D01*
G75*
G02*
X145123500Y-108002000I-245000J0D01*
G01*
X144633500Y-108002000D01*
G75*
G02*
X144388500Y-107757000I0J245000D01*
G01*
X144388500Y-107177000D01*
G75*
G02*
X144633500Y-106932000I245000J0D01*
G01*
G37*
G36*
G01*
X147073500Y-105612000D02*
X147563500Y-105612000D01*
G75*
G02*
X147808500Y-105857000I0J-245000D01*
G01*
X147808500Y-106437000D01*
G75*
G02*
X147563500Y-106682000I-245000J0D01*
G01*
X147073500Y-106682000D01*
G75*
G02*
X146828500Y-106437000I0J245000D01*
G01*
X146828500Y-105857000D01*
G75*
G02*
X147073500Y-105612000I245000J0D01*
G01*
G37*
G36*
G01*
X145853500Y-105612000D02*
X146343500Y-105612000D01*
G75*
G02*
X146588500Y-105857000I0J-245000D01*
G01*
X146588500Y-106437000D01*
G75*
G02*
X146343500Y-106682000I-245000J0D01*
G01*
X145853500Y-106682000D01*
G75*
G02*
X145608500Y-106437000I0J245000D01*
G01*
X145608500Y-105857000D01*
G75*
G02*
X145853500Y-105612000I245000J0D01*
G01*
G37*
G36*
G01*
X144633500Y-105612000D02*
X145123500Y-105612000D01*
G75*
G02*
X145368500Y-105857000I0J-245000D01*
G01*
X145368500Y-106437000D01*
G75*
G02*
X145123500Y-106682000I-245000J0D01*
G01*
X144633500Y-106682000D01*
G75*
G02*
X144388500Y-106437000I0J245000D01*
G01*
X144388500Y-105857000D01*
G75*
G02*
X144633500Y-105612000I245000J0D01*
G01*
G37*
G36*
G01*
X147073500Y-106932000D02*
X147563500Y-106932000D01*
G75*
G02*
X147808500Y-107177000I0J-245000D01*
G01*
X147808500Y-107757000D01*
G75*
G02*
X147563500Y-108002000I-245000J0D01*
G01*
X147073500Y-108002000D01*
G75*
G02*
X146828500Y-107757000I0J245000D01*
G01*
X146828500Y-107177000D01*
G75*
G02*
X147073500Y-106932000I245000J0D01*
G01*
G37*
G36*
G01*
X145853500Y-106932000D02*
X146343500Y-106932000D01*
G75*
G02*
X146588500Y-107177000I0J-245000D01*
G01*
X146588500Y-107757000D01*
G75*
G02*
X146343500Y-108002000I-245000J0D01*
G01*
X145853500Y-108002000D01*
G75*
G02*
X145608500Y-107757000I0J245000D01*
G01*
X145608500Y-107177000D01*
G75*
G02*
X145853500Y-106932000I245000J0D01*
G01*
G37*
G36*
G01*
X147286000Y-104432000D02*
X147411000Y-104432000D01*
G75*
G02*
X147473500Y-104494500I0J-62500D01*
G01*
X147473500Y-105219500D01*
G75*
G02*
X147411000Y-105282000I-62500J0D01*
G01*
X147286000Y-105282000D01*
G75*
G02*
X147223500Y-105219500I0J62500D01*
G01*
X147223500Y-104494500D01*
G75*
G02*
X147286000Y-104432000I62500J0D01*
G01*
G37*
G36*
G01*
X146786000Y-104432000D02*
X146911000Y-104432000D01*
G75*
G02*
X146973500Y-104494500I0J-62500D01*
G01*
X146973500Y-105219500D01*
G75*
G02*
X146911000Y-105282000I-62500J0D01*
G01*
X146786000Y-105282000D01*
G75*
G02*
X146723500Y-105219500I0J62500D01*
G01*
X146723500Y-104494500D01*
G75*
G02*
X146786000Y-104432000I62500J0D01*
G01*
G37*
G36*
G01*
X146286000Y-104432000D02*
X146411000Y-104432000D01*
G75*
G02*
X146473500Y-104494500I0J-62500D01*
G01*
X146473500Y-105219500D01*
G75*
G02*
X146411000Y-105282000I-62500J0D01*
G01*
X146286000Y-105282000D01*
G75*
G02*
X146223500Y-105219500I0J62500D01*
G01*
X146223500Y-104494500D01*
G75*
G02*
X146286000Y-104432000I62500J0D01*
G01*
G37*
G36*
G01*
X145786000Y-104432000D02*
X145911000Y-104432000D01*
G75*
G02*
X145973500Y-104494500I0J-62500D01*
G01*
X145973500Y-105219500D01*
G75*
G02*
X145911000Y-105282000I-62500J0D01*
G01*
X145786000Y-105282000D01*
G75*
G02*
X145723500Y-105219500I0J62500D01*
G01*
X145723500Y-104494500D01*
G75*
G02*
X145786000Y-104432000I62500J0D01*
G01*
G37*
G36*
G01*
X145286000Y-104432000D02*
X145411000Y-104432000D01*
G75*
G02*
X145473500Y-104494500I0J-62500D01*
G01*
X145473500Y-105219500D01*
G75*
G02*
X145411000Y-105282000I-62500J0D01*
G01*
X145286000Y-105282000D01*
G75*
G02*
X145223500Y-105219500I0J62500D01*
G01*
X145223500Y-104494500D01*
G75*
G02*
X145286000Y-104432000I62500J0D01*
G01*
G37*
G36*
G01*
X144786000Y-104432000D02*
X144911000Y-104432000D01*
G75*
G02*
X144973500Y-104494500I0J-62500D01*
G01*
X144973500Y-105219500D01*
G75*
G02*
X144911000Y-105282000I-62500J0D01*
G01*
X144786000Y-105282000D01*
G75*
G02*
X144723500Y-105219500I0J62500D01*
G01*
X144723500Y-104494500D01*
G75*
G02*
X144786000Y-104432000I62500J0D01*
G01*
G37*
G36*
G01*
X143286000Y-105932000D02*
X144011000Y-105932000D01*
G75*
G02*
X144073500Y-105994500I0J-62500D01*
G01*
X144073500Y-106119500D01*
G75*
G02*
X144011000Y-106182000I-62500J0D01*
G01*
X143286000Y-106182000D01*
G75*
G02*
X143223500Y-106119500I0J62500D01*
G01*
X143223500Y-105994500D01*
G75*
G02*
X143286000Y-105932000I62500J0D01*
G01*
G37*
G36*
G01*
X143286000Y-106432000D02*
X144011000Y-106432000D01*
G75*
G02*
X144073500Y-106494500I0J-62500D01*
G01*
X144073500Y-106619500D01*
G75*
G02*
X144011000Y-106682000I-62500J0D01*
G01*
X143286000Y-106682000D01*
G75*
G02*
X143223500Y-106619500I0J62500D01*
G01*
X143223500Y-106494500D01*
G75*
G02*
X143286000Y-106432000I62500J0D01*
G01*
G37*
G36*
G01*
X143286000Y-106932000D02*
X144011000Y-106932000D01*
G75*
G02*
X144073500Y-106994500I0J-62500D01*
G01*
X144073500Y-107119500D01*
G75*
G02*
X144011000Y-107182000I-62500J0D01*
G01*
X143286000Y-107182000D01*
G75*
G02*
X143223500Y-107119500I0J62500D01*
G01*
X143223500Y-106994500D01*
G75*
G02*
X143286000Y-106932000I62500J0D01*
G01*
G37*
G36*
G01*
X143286000Y-107432000D02*
X144011000Y-107432000D01*
G75*
G02*
X144073500Y-107494500I0J-62500D01*
G01*
X144073500Y-107619500D01*
G75*
G02*
X144011000Y-107682000I-62500J0D01*
G01*
X143286000Y-107682000D01*
G75*
G02*
X143223500Y-107619500I0J62500D01*
G01*
X143223500Y-107494500D01*
G75*
G02*
X143286000Y-107432000I62500J0D01*
G01*
G37*
G36*
G01*
X144786000Y-108332000D02*
X144911000Y-108332000D01*
G75*
G02*
X144973500Y-108394500I0J-62500D01*
G01*
X144973500Y-109119500D01*
G75*
G02*
X144911000Y-109182000I-62500J0D01*
G01*
X144786000Y-109182000D01*
G75*
G02*
X144723500Y-109119500I0J62500D01*
G01*
X144723500Y-108394500D01*
G75*
G02*
X144786000Y-108332000I62500J0D01*
G01*
G37*
G36*
G01*
X145286000Y-108332000D02*
X145411000Y-108332000D01*
G75*
G02*
X145473500Y-108394500I0J-62500D01*
G01*
X145473500Y-109119500D01*
G75*
G02*
X145411000Y-109182000I-62500J0D01*
G01*
X145286000Y-109182000D01*
G75*
G02*
X145223500Y-109119500I0J62500D01*
G01*
X145223500Y-108394500D01*
G75*
G02*
X145286000Y-108332000I62500J0D01*
G01*
G37*
G36*
G01*
X145786000Y-108332000D02*
X145911000Y-108332000D01*
G75*
G02*
X145973500Y-108394500I0J-62500D01*
G01*
X145973500Y-109119500D01*
G75*
G02*
X145911000Y-109182000I-62500J0D01*
G01*
X145786000Y-109182000D01*
G75*
G02*
X145723500Y-109119500I0J62500D01*
G01*
X145723500Y-108394500D01*
G75*
G02*
X145786000Y-108332000I62500J0D01*
G01*
G37*
G36*
G01*
X146286000Y-108332000D02*
X146411000Y-108332000D01*
G75*
G02*
X146473500Y-108394500I0J-62500D01*
G01*
X146473500Y-109119500D01*
G75*
G02*
X146411000Y-109182000I-62500J0D01*
G01*
X146286000Y-109182000D01*
G75*
G02*
X146223500Y-109119500I0J62500D01*
G01*
X146223500Y-108394500D01*
G75*
G02*
X146286000Y-108332000I62500J0D01*
G01*
G37*
G36*
G01*
X146786000Y-108332000D02*
X146911000Y-108332000D01*
G75*
G02*
X146973500Y-108394500I0J-62500D01*
G01*
X146973500Y-109119500D01*
G75*
G02*
X146911000Y-109182000I-62500J0D01*
G01*
X146786000Y-109182000D01*
G75*
G02*
X146723500Y-109119500I0J62500D01*
G01*
X146723500Y-108394500D01*
G75*
G02*
X146786000Y-108332000I62500J0D01*
G01*
G37*
G36*
G01*
X147286000Y-108332000D02*
X147411000Y-108332000D01*
G75*
G02*
X147473500Y-108394500I0J-62500D01*
G01*
X147473500Y-109119500D01*
G75*
G02*
X147411000Y-109182000I-62500J0D01*
G01*
X147286000Y-109182000D01*
G75*
G02*
X147223500Y-109119500I0J62500D01*
G01*
X147223500Y-108394500D01*
G75*
G02*
X147286000Y-108332000I62500J0D01*
G01*
G37*
G36*
G01*
X148186000Y-107432000D02*
X148911000Y-107432000D01*
G75*
G02*
X148973500Y-107494500I0J-62500D01*
G01*
X148973500Y-107619500D01*
G75*
G02*
X148911000Y-107682000I-62500J0D01*
G01*
X148186000Y-107682000D01*
G75*
G02*
X148123500Y-107619500I0J62500D01*
G01*
X148123500Y-107494500D01*
G75*
G02*
X148186000Y-107432000I62500J0D01*
G01*
G37*
G36*
G01*
X148186000Y-106932000D02*
X148911000Y-106932000D01*
G75*
G02*
X148973500Y-106994500I0J-62500D01*
G01*
X148973500Y-107119500D01*
G75*
G02*
X148911000Y-107182000I-62500J0D01*
G01*
X148186000Y-107182000D01*
G75*
G02*
X148123500Y-107119500I0J62500D01*
G01*
X148123500Y-106994500D01*
G75*
G02*
X148186000Y-106932000I62500J0D01*
G01*
G37*
G36*
G01*
X148186000Y-106432000D02*
X148911000Y-106432000D01*
G75*
G02*
X148973500Y-106494500I0J-62500D01*
G01*
X148973500Y-106619500D01*
G75*
G02*
X148911000Y-106682000I-62500J0D01*
G01*
X148186000Y-106682000D01*
G75*
G02*
X148123500Y-106619500I0J62500D01*
G01*
X148123500Y-106494500D01*
G75*
G02*
X148186000Y-106432000I62500J0D01*
G01*
G37*
G36*
G01*
X148186000Y-105932000D02*
X148911000Y-105932000D01*
G75*
G02*
X148973500Y-105994500I0J-62500D01*
G01*
X148973500Y-106119500D01*
G75*
G02*
X148911000Y-106182000I-62500J0D01*
G01*
X148186000Y-106182000D01*
G75*
G02*
X148123500Y-106119500I0J62500D01*
G01*
X148123500Y-105994500D01*
G75*
G02*
X148186000Y-105932000I62500J0D01*
G01*
G37*
G36*
G01*
X145595000Y-100490000D02*
X145595000Y-101440000D01*
G75*
G02*
X145345000Y-101690000I-250000J0D01*
G01*
X144845000Y-101690000D01*
G75*
G02*
X144595000Y-101440000I0J250000D01*
G01*
X144595000Y-100490000D01*
G75*
G02*
X144845000Y-100240000I250000J0D01*
G01*
X145345000Y-100240000D01*
G75*
G02*
X145595000Y-100490000I0J-250000D01*
G01*
G37*
G36*
G01*
X143695000Y-100490000D02*
X143695000Y-101440000D01*
G75*
G02*
X143445000Y-101690000I-250000J0D01*
G01*
X142945000Y-101690000D01*
G75*
G02*
X142695000Y-101440000I0J250000D01*
G01*
X142695000Y-100490000D01*
G75*
G02*
X142945000Y-100240000I250000J0D01*
G01*
X143445000Y-100240000D01*
G75*
G02*
X143695000Y-100490000I0J-250000D01*
G01*
G37*
G36*
G01*
X151707000Y-107216000D02*
X150807000Y-107216000D01*
G75*
G02*
X150557000Y-106966000I0J250000D01*
G01*
X150557000Y-106441000D01*
G75*
G02*
X150807000Y-106191000I250000J0D01*
G01*
X151707000Y-106191000D01*
G75*
G02*
X151957000Y-106441000I0J-250000D01*
G01*
X151957000Y-106966000D01*
G75*
G02*
X151707000Y-107216000I-250000J0D01*
G01*
G37*
G36*
G01*
X151707000Y-105391000D02*
X150807000Y-105391000D01*
G75*
G02*
X150557000Y-105141000I0J250000D01*
G01*
X150557000Y-104616000D01*
G75*
G02*
X150807000Y-104366000I250000J0D01*
G01*
X151707000Y-104366000D01*
G75*
G02*
X151957000Y-104616000I0J-250000D01*
G01*
X151957000Y-105141000D01*
G75*
G02*
X151707000Y-105391000I-250000J0D01*
G01*
G37*
G36*
G01*
X142707500Y-91255000D02*
X142707500Y-90355000D01*
G75*
G02*
X142957500Y-90105000I250000J0D01*
G01*
X143482500Y-90105000D01*
G75*
G02*
X143732500Y-90355000I0J-250000D01*
G01*
X143732500Y-91255000D01*
G75*
G02*
X143482500Y-91505000I-250000J0D01*
G01*
X142957500Y-91505000D01*
G75*
G02*
X142707500Y-91255000I0J250000D01*
G01*
G37*
G36*
G01*
X144532500Y-91255000D02*
X144532500Y-90355000D01*
G75*
G02*
X144782500Y-90105000I250000J0D01*
G01*
X145307500Y-90105000D01*
G75*
G02*
X145557500Y-90355000I0J-250000D01*
G01*
X145557500Y-91255000D01*
G75*
G02*
X145307500Y-91505000I-250000J0D01*
G01*
X144782500Y-91505000D01*
G75*
G02*
X144532500Y-91255000I0J250000D01*
G01*
G37*
G36*
G01*
X149324000Y-113099000D02*
X149324000Y-112199000D01*
G75*
G02*
X149574000Y-111949000I250000J0D01*
G01*
X150099000Y-111949000D01*
G75*
G02*
X150349000Y-112199000I0J-250000D01*
G01*
X150349000Y-113099000D01*
G75*
G02*
X150099000Y-113349000I-250000J0D01*
G01*
X149574000Y-113349000D01*
G75*
G02*
X149324000Y-113099000I0J250000D01*
G01*
G37*
G36*
G01*
X151149000Y-113099000D02*
X151149000Y-112199000D01*
G75*
G02*
X151399000Y-111949000I250000J0D01*
G01*
X151924000Y-111949000D01*
G75*
G02*
X152174000Y-112199000I0J-250000D01*
G01*
X152174000Y-113099000D01*
G75*
G02*
X151924000Y-113349000I-250000J0D01*
G01*
X151399000Y-113349000D01*
G75*
G02*
X151149000Y-113099000I0J250000D01*
G01*
G37*
M02*
