%FSLAX45Y45*%
G04 Gerber Fmt 4.5, Leading zero omitted, Abs format (unit mm)*
G04 Created by KiCad (PCBNEW 6.0.6-3a73a75311~116~ubuntu22.04.1) date 2022-06-23 15:23:09*
%MOMM*%
%LPD*%
G01*
G04 APERTURE LIST*
%TA.AperFunction,Profile*%
%ADD10C,0.100000*%
%TD*%
%ADD11C,0.200000*%
%ADD12C,0.040000*%
%ADD13C,0.100000*%
%ADD14C,0.320000*%
G04 APERTURE END LIST*
D10*
X15773400Y-8763000D02*
G75*
G03*
X15265400Y-8255000I-508000J0D01*
G01*
X14376400Y-8255000D02*
X15265400Y-8255000D01*
X15265400Y-12192000D02*
X14376400Y-12192000D01*
X15773400Y-8763000D02*
X15773400Y-11684000D01*
X15265400Y-12192000D02*
G75*
G03*
X15773400Y-11684000I0J508000D01*
G01*
X13868400Y-11684000D02*
X13868400Y-8763000D01*
X14376400Y-8255000D02*
G75*
G03*
X13868400Y-8763000I0J-508000D01*
G01*
X13868400Y-11684000D02*
G75*
G03*
X14376400Y-12192000I508000J0D01*
G01*
D11*
D12*
X14021120Y-10711500D02*
X14061120Y-10751500D01*
X14061120Y-10711500D02*
X14021120Y-10751500D01*
X14292900Y-9949500D02*
X14332900Y-9989500D01*
X14332900Y-9949500D02*
X14292900Y-9989500D01*
X14293145Y-10711255D02*
X14333145Y-10751255D01*
X14333145Y-10711255D02*
X14293145Y-10751255D01*
X14498640Y-10457500D02*
X14538640Y-10497500D01*
X14538640Y-10457500D02*
X14498640Y-10497500D01*
X14546900Y-10711500D02*
X14586900Y-10751500D01*
X14586900Y-10711500D02*
X14546900Y-10751500D01*
X14727240Y-11062020D02*
X14767240Y-11102020D01*
X14767240Y-11062020D02*
X14727240Y-11102020D01*
X14737400Y-10228900D02*
X14777400Y-10268900D01*
X14777400Y-10228900D02*
X14737400Y-10268900D01*
X14788200Y-9964740D02*
X14828200Y-10004740D01*
X14828200Y-9964740D02*
X14788200Y-10004740D01*
X14808520Y-10660700D02*
X14848520Y-10700700D01*
X14848520Y-10660700D02*
X14808520Y-10700700D01*
X14827020Y-11067850D02*
X14867020Y-11107850D01*
X14867020Y-11067850D02*
X14827020Y-11107850D01*
X14940600Y-10198420D02*
X14980600Y-10238420D01*
X14980600Y-10198420D02*
X14940600Y-10238420D01*
X14991400Y-10965500D02*
X15031400Y-11005500D01*
X15031400Y-10965500D02*
X14991400Y-11005500D01*
X15052360Y-9949500D02*
X15092360Y-9989500D01*
X15092360Y-9949500D02*
X15052360Y-9989500D01*
D13*
X14172400Y-9080500D02*
G75*
G03*
X14172400Y-9080500I-50000J0D01*
G01*
X14172400Y-9334500D02*
G75*
G03*
X14172400Y-9334500I-50000J0D01*
G01*
X14172400Y-9588500D02*
G75*
G03*
X14172400Y-9588500I-50000J0D01*
G01*
X14172400Y-9842500D02*
G75*
G03*
X14172400Y-9842500I-50000J0D01*
G01*
X14172400Y-10096500D02*
G75*
G03*
X14172400Y-10096500I-50000J0D01*
G01*
X14172400Y-10350500D02*
G75*
G03*
X14172400Y-10350500I-50000J0D01*
G01*
X14172400Y-10604500D02*
G75*
G03*
X14172400Y-10604500I-50000J0D01*
G01*
X14172400Y-10858500D02*
G75*
G03*
X14172400Y-10858500I-50000J0D01*
G01*
X14172400Y-11112500D02*
G75*
G03*
X14172400Y-11112500I-50000J0D01*
G01*
X14172400Y-11366500D02*
G75*
G03*
X14172400Y-11366500I-50000J0D01*
G01*
X15569400Y-9080500D02*
G75*
G03*
X15569400Y-9080500I-50000J0D01*
G01*
X15569400Y-9334500D02*
G75*
G03*
X15569400Y-9334500I-50000J0D01*
G01*
X15569400Y-9588500D02*
G75*
G03*
X15569400Y-9588500I-50000J0D01*
G01*
X15569400Y-9842500D02*
G75*
G03*
X15569400Y-9842500I-50000J0D01*
G01*
X15569400Y-10096500D02*
G75*
G03*
X15569400Y-10096500I-50000J0D01*
G01*
X15569400Y-10350500D02*
G75*
G03*
X15569400Y-10350500I-50000J0D01*
G01*
D14*
X14757400Y-11651000D02*
X14757400Y-11971000D01*
X14597400Y-11811000D02*
X14917400Y-11811000D01*
X14820900Y-8476000D02*
X14820900Y-8796000D01*
X14660900Y-8636000D02*
X14980900Y-8636000D01*
D11*
X14121019Y-12507476D02*
X14121019Y-12307476D01*
X14168638Y-12307476D01*
X14197209Y-12317000D01*
X14216257Y-12336048D01*
X14225781Y-12355095D01*
X14235305Y-12393190D01*
X14235305Y-12421762D01*
X14225781Y-12459857D01*
X14216257Y-12478905D01*
X14197209Y-12497952D01*
X14168638Y-12507476D01*
X14121019Y-12507476D01*
X14321019Y-12507476D02*
X14321019Y-12374143D01*
X14321019Y-12412238D02*
X14330543Y-12393190D01*
X14340067Y-12383667D01*
X14359114Y-12374143D01*
X14378162Y-12374143D01*
X14444828Y-12507476D02*
X14444828Y-12374143D01*
X14444828Y-12307476D02*
X14435305Y-12317000D01*
X14444828Y-12326524D01*
X14454352Y-12317000D01*
X14444828Y-12307476D01*
X14444828Y-12326524D01*
X14568638Y-12507476D02*
X14549590Y-12497952D01*
X14540067Y-12478905D01*
X14540067Y-12307476D01*
X14673400Y-12507476D02*
X14654352Y-12497952D01*
X14644828Y-12478905D01*
X14644828Y-12307476D01*
X14901971Y-12507476D02*
X14901971Y-12307476D01*
X14968638Y-12450333D01*
X15035305Y-12307476D01*
X15035305Y-12507476D01*
X15216257Y-12507476D02*
X15216257Y-12402714D01*
X15206733Y-12383667D01*
X15187686Y-12374143D01*
X15149590Y-12374143D01*
X15130543Y-12383667D01*
X15216257Y-12497952D02*
X15197209Y-12507476D01*
X15149590Y-12507476D01*
X15130543Y-12497952D01*
X15121019Y-12478905D01*
X15121019Y-12459857D01*
X15130543Y-12440809D01*
X15149590Y-12431286D01*
X15197209Y-12431286D01*
X15216257Y-12421762D01*
X15311495Y-12374143D02*
X15311495Y-12574143D01*
X15311495Y-12383667D02*
X15330543Y-12374143D01*
X15368638Y-12374143D01*
X15387686Y-12383667D01*
X15397209Y-12393190D01*
X15406733Y-12412238D01*
X15406733Y-12469381D01*
X15397209Y-12488428D01*
X15387686Y-12497952D01*
X15368638Y-12507476D01*
X15330543Y-12507476D01*
X15311495Y-12497952D01*
X15492448Y-12488428D02*
X15501971Y-12497952D01*
X15492448Y-12507476D01*
X15482924Y-12497952D01*
X15492448Y-12488428D01*
X15492448Y-12507476D01*
X15492448Y-12383667D02*
X15501971Y-12393190D01*
X15492448Y-12402714D01*
X15482924Y-12393190D01*
X15492448Y-12383667D01*
X15492448Y-12402714D01*
D12*
X13823400Y-12817000D02*
X13863400Y-12857000D01*
X13863400Y-12817000D02*
X13823400Y-12857000D01*
D11*
X14159114Y-12727476D02*
X14178162Y-12727476D01*
X14197209Y-12737000D01*
X14206733Y-12746524D01*
X14216257Y-12765571D01*
X14225781Y-12803667D01*
X14225781Y-12851286D01*
X14216257Y-12889381D01*
X14206733Y-12908428D01*
X14197209Y-12917952D01*
X14178162Y-12927476D01*
X14159114Y-12927476D01*
X14140067Y-12917952D01*
X14130543Y-12908428D01*
X14121019Y-12889381D01*
X14111495Y-12851286D01*
X14111495Y-12803667D01*
X14121019Y-12765571D01*
X14130543Y-12746524D01*
X14140067Y-12737000D01*
X14159114Y-12727476D01*
X14311495Y-12908428D02*
X14321019Y-12917952D01*
X14311495Y-12927476D01*
X14301971Y-12917952D01*
X14311495Y-12908428D01*
X14311495Y-12927476D01*
X14492448Y-12794143D02*
X14492448Y-12927476D01*
X14444828Y-12717952D02*
X14397209Y-12860809D01*
X14521019Y-12860809D01*
X14635305Y-12727476D02*
X14654352Y-12727476D01*
X14673400Y-12737000D01*
X14682924Y-12746524D01*
X14692448Y-12765571D01*
X14701971Y-12803667D01*
X14701971Y-12851286D01*
X14692448Y-12889381D01*
X14682924Y-12908428D01*
X14673400Y-12917952D01*
X14654352Y-12927476D01*
X14635305Y-12927476D01*
X14616257Y-12917952D01*
X14606733Y-12908428D01*
X14597209Y-12889381D01*
X14587686Y-12851286D01*
X14587686Y-12803667D01*
X14597209Y-12765571D01*
X14606733Y-12746524D01*
X14616257Y-12737000D01*
X14635305Y-12727476D01*
X14825781Y-12727476D02*
X14844828Y-12727476D01*
X14863876Y-12737000D01*
X14873400Y-12746524D01*
X14882924Y-12765571D01*
X14892448Y-12803667D01*
X14892448Y-12851286D01*
X14882924Y-12889381D01*
X14873400Y-12908428D01*
X14863876Y-12917952D01*
X14844828Y-12927476D01*
X14825781Y-12927476D01*
X14806733Y-12917952D01*
X14797209Y-12908428D01*
X14787686Y-12889381D01*
X14778162Y-12851286D01*
X14778162Y-12803667D01*
X14787686Y-12765571D01*
X14797209Y-12746524D01*
X14806733Y-12737000D01*
X14825781Y-12727476D01*
X14978162Y-12927476D02*
X14978162Y-12794143D01*
X14978162Y-12813190D02*
X14987686Y-12803667D01*
X15006733Y-12794143D01*
X15035305Y-12794143D01*
X15054352Y-12803667D01*
X15063876Y-12822714D01*
X15063876Y-12927476D01*
X15063876Y-12822714D02*
X15073400Y-12803667D01*
X15092448Y-12794143D01*
X15121019Y-12794143D01*
X15140067Y-12803667D01*
X15149590Y-12822714D01*
X15149590Y-12927476D01*
X15244828Y-12927476D02*
X15244828Y-12794143D01*
X15244828Y-12813190D02*
X15254352Y-12803667D01*
X15273400Y-12794143D01*
X15301971Y-12794143D01*
X15321019Y-12803667D01*
X15330543Y-12822714D01*
X15330543Y-12927476D01*
X15330543Y-12822714D02*
X15340067Y-12803667D01*
X15359114Y-12794143D01*
X15387686Y-12794143D01*
X15406733Y-12803667D01*
X15416257Y-12822714D01*
X15416257Y-12927476D01*
X15806733Y-12717952D02*
X15635305Y-12975095D01*
X16063876Y-12727476D02*
X16082924Y-12727476D01*
X16101971Y-12737000D01*
X16111495Y-12746524D01*
X16121019Y-12765571D01*
X16130543Y-12803667D01*
X16130543Y-12851286D01*
X16121019Y-12889381D01*
X16111495Y-12908428D01*
X16101971Y-12917952D01*
X16082924Y-12927476D01*
X16063876Y-12927476D01*
X16044828Y-12917952D01*
X16035305Y-12908428D01*
X16025781Y-12889381D01*
X16016257Y-12851286D01*
X16016257Y-12803667D01*
X16025781Y-12765571D01*
X16035305Y-12746524D01*
X16044828Y-12737000D01*
X16063876Y-12727476D01*
X16216257Y-12908428D02*
X16225781Y-12917952D01*
X16216257Y-12927476D01*
X16206733Y-12917952D01*
X16216257Y-12908428D01*
X16216257Y-12927476D01*
X16349590Y-12727476D02*
X16368638Y-12727476D01*
X16387686Y-12737000D01*
X16397209Y-12746524D01*
X16406733Y-12765571D01*
X16416257Y-12803667D01*
X16416257Y-12851286D01*
X16406733Y-12889381D01*
X16397209Y-12908428D01*
X16387686Y-12917952D01*
X16368638Y-12927476D01*
X16349590Y-12927476D01*
X16330543Y-12917952D01*
X16321019Y-12908428D01*
X16311495Y-12889381D01*
X16301971Y-12851286D01*
X16301971Y-12803667D01*
X16311495Y-12765571D01*
X16321019Y-12746524D01*
X16330543Y-12737000D01*
X16349590Y-12727476D01*
X16606733Y-12927476D02*
X16492448Y-12927476D01*
X16549590Y-12927476D02*
X16549590Y-12727476D01*
X16530543Y-12756048D01*
X16511495Y-12775095D01*
X16492448Y-12784619D01*
X16787686Y-12727476D02*
X16692448Y-12727476D01*
X16682924Y-12822714D01*
X16692448Y-12813190D01*
X16711495Y-12803667D01*
X16759114Y-12803667D01*
X16778162Y-12813190D01*
X16787686Y-12822714D01*
X16797210Y-12841762D01*
X16797210Y-12889381D01*
X16787686Y-12908428D01*
X16778162Y-12917952D01*
X16759114Y-12927476D01*
X16711495Y-12927476D01*
X16692448Y-12917952D01*
X16682924Y-12908428D01*
X16863876Y-12727476D02*
X16997210Y-12727476D01*
X16911495Y-12927476D01*
X17063876Y-12727476D02*
X17063876Y-12765571D01*
X17140067Y-12727476D02*
X17140067Y-12765571D01*
X17435305Y-13003667D02*
X17425781Y-12994143D01*
X17406733Y-12965571D01*
X17397210Y-12946524D01*
X17387686Y-12917952D01*
X17378162Y-12870333D01*
X17378162Y-12832238D01*
X17387686Y-12784619D01*
X17397210Y-12756048D01*
X17406733Y-12737000D01*
X17425781Y-12708428D01*
X17435305Y-12698905D01*
X17616257Y-12927476D02*
X17501971Y-12927476D01*
X17559114Y-12927476D02*
X17559114Y-12727476D01*
X17540067Y-12756048D01*
X17521019Y-12775095D01*
X17501971Y-12784619D01*
X17682924Y-12727476D02*
X17806733Y-12727476D01*
X17740067Y-12803667D01*
X17768638Y-12803667D01*
X17787686Y-12813190D01*
X17797210Y-12822714D01*
X17806733Y-12841762D01*
X17806733Y-12889381D01*
X17797210Y-12908428D01*
X17787686Y-12917952D01*
X17768638Y-12927476D01*
X17711495Y-12927476D01*
X17692448Y-12917952D01*
X17682924Y-12908428D01*
X18044829Y-12927476D02*
X18044829Y-12727476D01*
X18130543Y-12927476D02*
X18130543Y-12822714D01*
X18121019Y-12803667D01*
X18101971Y-12794143D01*
X18073400Y-12794143D01*
X18054352Y-12803667D01*
X18044829Y-12813190D01*
X18254352Y-12927476D02*
X18235305Y-12917952D01*
X18225781Y-12908428D01*
X18216257Y-12889381D01*
X18216257Y-12832238D01*
X18225781Y-12813190D01*
X18235305Y-12803667D01*
X18254352Y-12794143D01*
X18282924Y-12794143D01*
X18301971Y-12803667D01*
X18311495Y-12813190D01*
X18321019Y-12832238D01*
X18321019Y-12889381D01*
X18311495Y-12908428D01*
X18301971Y-12917952D01*
X18282924Y-12927476D01*
X18254352Y-12927476D01*
X18435305Y-12927476D02*
X18416257Y-12917952D01*
X18406733Y-12898905D01*
X18406733Y-12727476D01*
X18587686Y-12917952D02*
X18568638Y-12927476D01*
X18530543Y-12927476D01*
X18511495Y-12917952D01*
X18501971Y-12898905D01*
X18501971Y-12822714D01*
X18511495Y-12803667D01*
X18530543Y-12794143D01*
X18568638Y-12794143D01*
X18587686Y-12803667D01*
X18597210Y-12822714D01*
X18597210Y-12841762D01*
X18501971Y-12860809D01*
X18673400Y-12917952D02*
X18692448Y-12927476D01*
X18730543Y-12927476D01*
X18749590Y-12917952D01*
X18759114Y-12898905D01*
X18759114Y-12889381D01*
X18749590Y-12870333D01*
X18730543Y-12860809D01*
X18701971Y-12860809D01*
X18682924Y-12851286D01*
X18673400Y-12832238D01*
X18673400Y-12822714D01*
X18682924Y-12803667D01*
X18701971Y-12794143D01*
X18730543Y-12794143D01*
X18749590Y-12803667D01*
X18825781Y-13003667D02*
X18835305Y-12994143D01*
X18854352Y-12965571D01*
X18863876Y-12946524D01*
X18873400Y-12917952D01*
X18882924Y-12870333D01*
X18882924Y-12832238D01*
X18873400Y-12784619D01*
X18863876Y-12756048D01*
X18854352Y-12737000D01*
X18835305Y-12708428D01*
X18825781Y-12698905D01*
D13*
X13863400Y-13101000D02*
G75*
G03*
X13863400Y-13101000I-50000J0D01*
G01*
D11*
X14225781Y-13191476D02*
X14111495Y-13191476D01*
X14168638Y-13191476D02*
X14168638Y-12991476D01*
X14149590Y-13020048D01*
X14130543Y-13039095D01*
X14111495Y-13048619D01*
X14311495Y-13172428D02*
X14321019Y-13181952D01*
X14311495Y-13191476D01*
X14301971Y-13181952D01*
X14311495Y-13172428D01*
X14311495Y-13191476D01*
X14444828Y-12991476D02*
X14463876Y-12991476D01*
X14482924Y-13001000D01*
X14492448Y-13010524D01*
X14501971Y-13029571D01*
X14511495Y-13067667D01*
X14511495Y-13115286D01*
X14501971Y-13153381D01*
X14492448Y-13172428D01*
X14482924Y-13181952D01*
X14463876Y-13191476D01*
X14444828Y-13191476D01*
X14425781Y-13181952D01*
X14416257Y-13172428D01*
X14406733Y-13153381D01*
X14397209Y-13115286D01*
X14397209Y-13067667D01*
X14406733Y-13029571D01*
X14416257Y-13010524D01*
X14425781Y-13001000D01*
X14444828Y-12991476D01*
X14635305Y-12991476D02*
X14654352Y-12991476D01*
X14673400Y-13001000D01*
X14682924Y-13010524D01*
X14692448Y-13029571D01*
X14701971Y-13067667D01*
X14701971Y-13115286D01*
X14692448Y-13153381D01*
X14682924Y-13172428D01*
X14673400Y-13181952D01*
X14654352Y-13191476D01*
X14635305Y-13191476D01*
X14616257Y-13181952D01*
X14606733Y-13172428D01*
X14597209Y-13153381D01*
X14587686Y-13115286D01*
X14587686Y-13067667D01*
X14597209Y-13029571D01*
X14606733Y-13010524D01*
X14616257Y-13001000D01*
X14635305Y-12991476D01*
X14825781Y-12991476D02*
X14844828Y-12991476D01*
X14863876Y-13001000D01*
X14873400Y-13010524D01*
X14882924Y-13029571D01*
X14892448Y-13067667D01*
X14892448Y-13115286D01*
X14882924Y-13153381D01*
X14873400Y-13172428D01*
X14863876Y-13181952D01*
X14844828Y-13191476D01*
X14825781Y-13191476D01*
X14806733Y-13181952D01*
X14797209Y-13172428D01*
X14787686Y-13153381D01*
X14778162Y-13115286D01*
X14778162Y-13067667D01*
X14787686Y-13029571D01*
X14797209Y-13010524D01*
X14806733Y-13001000D01*
X14825781Y-12991476D01*
X14978162Y-13191476D02*
X14978162Y-13058143D01*
X14978162Y-13077190D02*
X14987686Y-13067667D01*
X15006733Y-13058143D01*
X15035305Y-13058143D01*
X15054352Y-13067667D01*
X15063876Y-13086714D01*
X15063876Y-13191476D01*
X15063876Y-13086714D02*
X15073400Y-13067667D01*
X15092448Y-13058143D01*
X15121019Y-13058143D01*
X15140067Y-13067667D01*
X15149590Y-13086714D01*
X15149590Y-13191476D01*
X15244828Y-13191476D02*
X15244828Y-13058143D01*
X15244828Y-13077190D02*
X15254352Y-13067667D01*
X15273400Y-13058143D01*
X15301971Y-13058143D01*
X15321019Y-13067667D01*
X15330543Y-13086714D01*
X15330543Y-13191476D01*
X15330543Y-13086714D02*
X15340067Y-13067667D01*
X15359114Y-13058143D01*
X15387686Y-13058143D01*
X15406733Y-13067667D01*
X15416257Y-13086714D01*
X15416257Y-13191476D01*
X15806733Y-12981952D02*
X15635305Y-13239095D01*
X16063876Y-12991476D02*
X16082924Y-12991476D01*
X16101971Y-13001000D01*
X16111495Y-13010524D01*
X16121019Y-13029571D01*
X16130543Y-13067667D01*
X16130543Y-13115286D01*
X16121019Y-13153381D01*
X16111495Y-13172428D01*
X16101971Y-13181952D01*
X16082924Y-13191476D01*
X16063876Y-13191476D01*
X16044828Y-13181952D01*
X16035305Y-13172428D01*
X16025781Y-13153381D01*
X16016257Y-13115286D01*
X16016257Y-13067667D01*
X16025781Y-13029571D01*
X16035305Y-13010524D01*
X16044828Y-13001000D01*
X16063876Y-12991476D01*
X16216257Y-13172428D02*
X16225781Y-13181952D01*
X16216257Y-13191476D01*
X16206733Y-13181952D01*
X16216257Y-13172428D01*
X16216257Y-13191476D01*
X16349590Y-12991476D02*
X16368638Y-12991476D01*
X16387686Y-13001000D01*
X16397209Y-13010524D01*
X16406733Y-13029571D01*
X16416257Y-13067667D01*
X16416257Y-13115286D01*
X16406733Y-13153381D01*
X16397209Y-13172428D01*
X16387686Y-13181952D01*
X16368638Y-13191476D01*
X16349590Y-13191476D01*
X16330543Y-13181952D01*
X16321019Y-13172428D01*
X16311495Y-13153381D01*
X16301971Y-13115286D01*
X16301971Y-13067667D01*
X16311495Y-13029571D01*
X16321019Y-13010524D01*
X16330543Y-13001000D01*
X16349590Y-12991476D01*
X16482924Y-12991476D02*
X16606733Y-12991476D01*
X16540067Y-13067667D01*
X16568638Y-13067667D01*
X16587686Y-13077190D01*
X16597209Y-13086714D01*
X16606733Y-13105762D01*
X16606733Y-13153381D01*
X16597209Y-13172428D01*
X16587686Y-13181952D01*
X16568638Y-13191476D01*
X16511495Y-13191476D01*
X16492448Y-13181952D01*
X16482924Y-13172428D01*
X16701971Y-13191476D02*
X16740067Y-13191476D01*
X16759114Y-13181952D01*
X16768638Y-13172428D01*
X16787686Y-13143857D01*
X16797210Y-13105762D01*
X16797210Y-13029571D01*
X16787686Y-13010524D01*
X16778162Y-13001000D01*
X16759114Y-12991476D01*
X16721019Y-12991476D01*
X16701971Y-13001000D01*
X16692448Y-13010524D01*
X16682924Y-13029571D01*
X16682924Y-13077190D01*
X16692448Y-13096238D01*
X16701971Y-13105762D01*
X16721019Y-13115286D01*
X16759114Y-13115286D01*
X16778162Y-13105762D01*
X16787686Y-13096238D01*
X16797210Y-13077190D01*
X16968638Y-13058143D02*
X16968638Y-13191476D01*
X16921019Y-12981952D02*
X16873400Y-13124809D01*
X16997210Y-13124809D01*
X17063876Y-12991476D02*
X17063876Y-13029571D01*
X17140067Y-12991476D02*
X17140067Y-13029571D01*
X17435305Y-13267667D02*
X17425781Y-13258143D01*
X17406733Y-13229571D01*
X17397210Y-13210524D01*
X17387686Y-13181952D01*
X17378162Y-13134333D01*
X17378162Y-13096238D01*
X17387686Y-13048619D01*
X17397210Y-13020048D01*
X17406733Y-13001000D01*
X17425781Y-12972428D01*
X17435305Y-12962905D01*
X17616257Y-13191476D02*
X17501971Y-13191476D01*
X17559114Y-13191476D02*
X17559114Y-12991476D01*
X17540067Y-13020048D01*
X17521019Y-13039095D01*
X17501971Y-13048619D01*
X17787686Y-12991476D02*
X17749590Y-12991476D01*
X17730543Y-13001000D01*
X17721019Y-13010524D01*
X17701971Y-13039095D01*
X17692448Y-13077190D01*
X17692448Y-13153381D01*
X17701971Y-13172428D01*
X17711495Y-13181952D01*
X17730543Y-13191476D01*
X17768638Y-13191476D01*
X17787686Y-13181952D01*
X17797210Y-13172428D01*
X17806733Y-13153381D01*
X17806733Y-13105762D01*
X17797210Y-13086714D01*
X17787686Y-13077190D01*
X17768638Y-13067667D01*
X17730543Y-13067667D01*
X17711495Y-13077190D01*
X17701971Y-13086714D01*
X17692448Y-13105762D01*
X18044829Y-13191476D02*
X18044829Y-12991476D01*
X18130543Y-13191476D02*
X18130543Y-13086714D01*
X18121019Y-13067667D01*
X18101971Y-13058143D01*
X18073400Y-13058143D01*
X18054352Y-13067667D01*
X18044829Y-13077190D01*
X18254352Y-13191476D02*
X18235305Y-13181952D01*
X18225781Y-13172428D01*
X18216257Y-13153381D01*
X18216257Y-13096238D01*
X18225781Y-13077190D01*
X18235305Y-13067667D01*
X18254352Y-13058143D01*
X18282924Y-13058143D01*
X18301971Y-13067667D01*
X18311495Y-13077190D01*
X18321019Y-13096238D01*
X18321019Y-13153381D01*
X18311495Y-13172428D01*
X18301971Y-13181952D01*
X18282924Y-13191476D01*
X18254352Y-13191476D01*
X18435305Y-13191476D02*
X18416257Y-13181952D01*
X18406733Y-13162905D01*
X18406733Y-12991476D01*
X18587686Y-13181952D02*
X18568638Y-13191476D01*
X18530543Y-13191476D01*
X18511495Y-13181952D01*
X18501971Y-13162905D01*
X18501971Y-13086714D01*
X18511495Y-13067667D01*
X18530543Y-13058143D01*
X18568638Y-13058143D01*
X18587686Y-13067667D01*
X18597210Y-13086714D01*
X18597210Y-13105762D01*
X18501971Y-13124809D01*
X18673400Y-13181952D02*
X18692448Y-13191476D01*
X18730543Y-13191476D01*
X18749590Y-13181952D01*
X18759114Y-13162905D01*
X18759114Y-13153381D01*
X18749590Y-13134333D01*
X18730543Y-13124809D01*
X18701971Y-13124809D01*
X18682924Y-13115286D01*
X18673400Y-13096238D01*
X18673400Y-13086714D01*
X18682924Y-13067667D01*
X18701971Y-13058143D01*
X18730543Y-13058143D01*
X18749590Y-13067667D01*
X18825781Y-13267667D02*
X18835305Y-13258143D01*
X18854352Y-13229571D01*
X18863876Y-13210524D01*
X18873400Y-13181952D01*
X18882924Y-13134333D01*
X18882924Y-13096238D01*
X18873400Y-13048619D01*
X18863876Y-13020048D01*
X18854352Y-13001000D01*
X18835305Y-12972428D01*
X18825781Y-12962905D01*
X13763400Y-13265000D02*
X13763400Y-13465000D01*
X13663400Y-13365000D02*
X13863400Y-13365000D01*
X14101971Y-13255476D02*
X14225781Y-13255476D01*
X14159114Y-13331667D01*
X14187686Y-13331667D01*
X14206733Y-13341190D01*
X14216257Y-13350714D01*
X14225781Y-13369762D01*
X14225781Y-13417381D01*
X14216257Y-13436428D01*
X14206733Y-13445952D01*
X14187686Y-13455476D01*
X14130543Y-13455476D01*
X14111495Y-13445952D01*
X14101971Y-13436428D01*
X14311495Y-13436428D02*
X14321019Y-13445952D01*
X14311495Y-13455476D01*
X14301971Y-13445952D01*
X14311495Y-13436428D01*
X14311495Y-13455476D01*
X14397209Y-13274524D02*
X14406733Y-13265000D01*
X14425781Y-13255476D01*
X14473400Y-13255476D01*
X14492448Y-13265000D01*
X14501971Y-13274524D01*
X14511495Y-13293571D01*
X14511495Y-13312619D01*
X14501971Y-13341190D01*
X14387686Y-13455476D01*
X14511495Y-13455476D01*
X14635305Y-13255476D02*
X14654352Y-13255476D01*
X14673400Y-13265000D01*
X14682924Y-13274524D01*
X14692448Y-13293571D01*
X14701971Y-13331667D01*
X14701971Y-13379286D01*
X14692448Y-13417381D01*
X14682924Y-13436428D01*
X14673400Y-13445952D01*
X14654352Y-13455476D01*
X14635305Y-13455476D01*
X14616257Y-13445952D01*
X14606733Y-13436428D01*
X14597209Y-13417381D01*
X14587686Y-13379286D01*
X14587686Y-13331667D01*
X14597209Y-13293571D01*
X14606733Y-13274524D01*
X14616257Y-13265000D01*
X14635305Y-13255476D01*
X14825781Y-13255476D02*
X14844828Y-13255476D01*
X14863876Y-13265000D01*
X14873400Y-13274524D01*
X14882924Y-13293571D01*
X14892448Y-13331667D01*
X14892448Y-13379286D01*
X14882924Y-13417381D01*
X14873400Y-13436428D01*
X14863876Y-13445952D01*
X14844828Y-13455476D01*
X14825781Y-13455476D01*
X14806733Y-13445952D01*
X14797209Y-13436428D01*
X14787686Y-13417381D01*
X14778162Y-13379286D01*
X14778162Y-13331667D01*
X14787686Y-13293571D01*
X14797209Y-13274524D01*
X14806733Y-13265000D01*
X14825781Y-13255476D01*
X14978162Y-13455476D02*
X14978162Y-13322143D01*
X14978162Y-13341190D02*
X14987686Y-13331667D01*
X15006733Y-13322143D01*
X15035305Y-13322143D01*
X15054352Y-13331667D01*
X15063876Y-13350714D01*
X15063876Y-13455476D01*
X15063876Y-13350714D02*
X15073400Y-13331667D01*
X15092448Y-13322143D01*
X15121019Y-13322143D01*
X15140067Y-13331667D01*
X15149590Y-13350714D01*
X15149590Y-13455476D01*
X15244828Y-13455476D02*
X15244828Y-13322143D01*
X15244828Y-13341190D02*
X15254352Y-13331667D01*
X15273400Y-13322143D01*
X15301971Y-13322143D01*
X15321019Y-13331667D01*
X15330543Y-13350714D01*
X15330543Y-13455476D01*
X15330543Y-13350714D02*
X15340067Y-13331667D01*
X15359114Y-13322143D01*
X15387686Y-13322143D01*
X15406733Y-13331667D01*
X15416257Y-13350714D01*
X15416257Y-13455476D01*
X15806733Y-13245952D02*
X15635305Y-13503095D01*
X16063876Y-13255476D02*
X16082924Y-13255476D01*
X16101971Y-13265000D01*
X16111495Y-13274524D01*
X16121019Y-13293571D01*
X16130543Y-13331667D01*
X16130543Y-13379286D01*
X16121019Y-13417381D01*
X16111495Y-13436428D01*
X16101971Y-13445952D01*
X16082924Y-13455476D01*
X16063876Y-13455476D01*
X16044828Y-13445952D01*
X16035305Y-13436428D01*
X16025781Y-13417381D01*
X16016257Y-13379286D01*
X16016257Y-13331667D01*
X16025781Y-13293571D01*
X16035305Y-13274524D01*
X16044828Y-13265000D01*
X16063876Y-13255476D01*
X16216257Y-13436428D02*
X16225781Y-13445952D01*
X16216257Y-13455476D01*
X16206733Y-13445952D01*
X16216257Y-13436428D01*
X16216257Y-13455476D01*
X16416257Y-13455476D02*
X16301971Y-13455476D01*
X16359114Y-13455476D02*
X16359114Y-13255476D01*
X16340067Y-13284048D01*
X16321019Y-13303095D01*
X16301971Y-13312619D01*
X16492448Y-13274524D02*
X16501971Y-13265000D01*
X16521019Y-13255476D01*
X16568638Y-13255476D01*
X16587686Y-13265000D01*
X16597209Y-13274524D01*
X16606733Y-13293571D01*
X16606733Y-13312619D01*
X16597209Y-13341190D01*
X16482924Y-13455476D01*
X16606733Y-13455476D01*
X16778162Y-13255476D02*
X16740067Y-13255476D01*
X16721019Y-13265000D01*
X16711495Y-13274524D01*
X16692448Y-13303095D01*
X16682924Y-13341190D01*
X16682924Y-13417381D01*
X16692448Y-13436428D01*
X16701971Y-13445952D01*
X16721019Y-13455476D01*
X16759114Y-13455476D01*
X16778162Y-13445952D01*
X16787686Y-13436428D01*
X16797210Y-13417381D01*
X16797210Y-13369762D01*
X16787686Y-13350714D01*
X16778162Y-13341190D01*
X16759114Y-13331667D01*
X16721019Y-13331667D01*
X16701971Y-13341190D01*
X16692448Y-13350714D01*
X16682924Y-13369762D01*
X16921019Y-13255476D02*
X16940067Y-13255476D01*
X16959114Y-13265000D01*
X16968638Y-13274524D01*
X16978162Y-13293571D01*
X16987686Y-13331667D01*
X16987686Y-13379286D01*
X16978162Y-13417381D01*
X16968638Y-13436428D01*
X16959114Y-13445952D01*
X16940067Y-13455476D01*
X16921019Y-13455476D01*
X16901971Y-13445952D01*
X16892448Y-13436428D01*
X16882924Y-13417381D01*
X16873400Y-13379286D01*
X16873400Y-13331667D01*
X16882924Y-13293571D01*
X16892448Y-13274524D01*
X16901971Y-13265000D01*
X16921019Y-13255476D01*
X17063876Y-13255476D02*
X17063876Y-13293571D01*
X17140067Y-13255476D02*
X17140067Y-13293571D01*
X17435305Y-13531667D02*
X17425781Y-13522143D01*
X17406733Y-13493571D01*
X17397210Y-13474524D01*
X17387686Y-13445952D01*
X17378162Y-13398333D01*
X17378162Y-13360238D01*
X17387686Y-13312619D01*
X17397210Y-13284048D01*
X17406733Y-13265000D01*
X17425781Y-13236428D01*
X17435305Y-13226905D01*
X17501971Y-13274524D02*
X17511495Y-13265000D01*
X17530543Y-13255476D01*
X17578162Y-13255476D01*
X17597210Y-13265000D01*
X17606733Y-13274524D01*
X17616257Y-13293571D01*
X17616257Y-13312619D01*
X17606733Y-13341190D01*
X17492448Y-13455476D01*
X17616257Y-13455476D01*
X17854352Y-13455476D02*
X17854352Y-13255476D01*
X17940067Y-13455476D02*
X17940067Y-13350714D01*
X17930543Y-13331667D01*
X17911495Y-13322143D01*
X17882924Y-13322143D01*
X17863876Y-13331667D01*
X17854352Y-13341190D01*
X18063876Y-13455476D02*
X18044829Y-13445952D01*
X18035305Y-13436428D01*
X18025781Y-13417381D01*
X18025781Y-13360238D01*
X18035305Y-13341190D01*
X18044829Y-13331667D01*
X18063876Y-13322143D01*
X18092448Y-13322143D01*
X18111495Y-13331667D01*
X18121019Y-13341190D01*
X18130543Y-13360238D01*
X18130543Y-13417381D01*
X18121019Y-13436428D01*
X18111495Y-13445952D01*
X18092448Y-13455476D01*
X18063876Y-13455476D01*
X18244829Y-13455476D02*
X18225781Y-13445952D01*
X18216257Y-13426905D01*
X18216257Y-13255476D01*
X18397210Y-13445952D02*
X18378162Y-13455476D01*
X18340067Y-13455476D01*
X18321019Y-13445952D01*
X18311495Y-13426905D01*
X18311495Y-13350714D01*
X18321019Y-13331667D01*
X18340067Y-13322143D01*
X18378162Y-13322143D01*
X18397210Y-13331667D01*
X18406733Y-13350714D01*
X18406733Y-13369762D01*
X18311495Y-13388809D01*
X18482924Y-13445952D02*
X18501971Y-13455476D01*
X18540067Y-13455476D01*
X18559114Y-13445952D01*
X18568638Y-13426905D01*
X18568638Y-13417381D01*
X18559114Y-13398333D01*
X18540067Y-13388809D01*
X18511495Y-13388809D01*
X18492448Y-13379286D01*
X18482924Y-13360238D01*
X18482924Y-13350714D01*
X18492448Y-13331667D01*
X18511495Y-13322143D01*
X18540067Y-13322143D01*
X18559114Y-13331667D01*
X18635305Y-13531667D02*
X18644829Y-13522143D01*
X18663876Y-13493571D01*
X18673400Y-13474524D01*
X18682924Y-13445952D01*
X18692448Y-13398333D01*
X18692448Y-13360238D01*
X18682924Y-13312619D01*
X18673400Y-13284048D01*
X18663876Y-13265000D01*
X18644829Y-13236428D01*
X18635305Y-13226905D01*
M02*
