%FSLAX45Y45*%
G04 Gerber Fmt 4.5, Leading zero omitted, Abs format (unit mm)*
G04 Created by KiCad (PCBNEW 6.0.6-3a73a75311~116~ubuntu22.04.1) date 2022-06-23 15:23:09*
%MOMM*%
%LPD*%
G01*
G04 APERTURE LIST*
%TA.AperFunction,Profile*%
%ADD10C,0.100000*%
%TD*%
%ADD11C,0.200000*%
G04 APERTURE END LIST*
D10*
X15773400Y-8763000D02*
G75*
G03*
X15265400Y-8255000I-508000J0D01*
G01*
X14376400Y-8255000D02*
X15265400Y-8255000D01*
X15265400Y-12192000D02*
X14376400Y-12192000D01*
X15773400Y-8763000D02*
X15773400Y-11684000D01*
X15265400Y-12192000D02*
G75*
G03*
X15773400Y-11684000I0J508000D01*
G01*
X13868400Y-11684000D02*
X13868400Y-8763000D01*
X14376400Y-8255000D02*
G75*
G03*
X13868400Y-8763000I0J-508000D01*
G01*
X13868400Y-11684000D02*
G75*
G03*
X14376400Y-12192000I508000J0D01*
G01*
D11*
X14121019Y-12507476D02*
X14121019Y-12307476D01*
X14168638Y-12307476D01*
X14197209Y-12317000D01*
X14216257Y-12336048D01*
X14225781Y-12355095D01*
X14235305Y-12393190D01*
X14235305Y-12421762D01*
X14225781Y-12459857D01*
X14216257Y-12478905D01*
X14197209Y-12497952D01*
X14168638Y-12507476D01*
X14121019Y-12507476D01*
X14321019Y-12507476D02*
X14321019Y-12374143D01*
X14321019Y-12412238D02*
X14330543Y-12393190D01*
X14340067Y-12383667D01*
X14359114Y-12374143D01*
X14378162Y-12374143D01*
X14444828Y-12507476D02*
X14444828Y-12374143D01*
X14444828Y-12307476D02*
X14435305Y-12317000D01*
X14444828Y-12326524D01*
X14454352Y-12317000D01*
X14444828Y-12307476D01*
X14444828Y-12326524D01*
X14568638Y-12507476D02*
X14549590Y-12497952D01*
X14540067Y-12478905D01*
X14540067Y-12307476D01*
X14673400Y-12507476D02*
X14654352Y-12497952D01*
X14644828Y-12478905D01*
X14644828Y-12307476D01*
X14901971Y-12507476D02*
X14901971Y-12307476D01*
X14968638Y-12450333D01*
X15035305Y-12307476D01*
X15035305Y-12507476D01*
X15216257Y-12507476D02*
X15216257Y-12402714D01*
X15206733Y-12383667D01*
X15187686Y-12374143D01*
X15149590Y-12374143D01*
X15130543Y-12383667D01*
X15216257Y-12497952D02*
X15197209Y-12507476D01*
X15149590Y-12507476D01*
X15130543Y-12497952D01*
X15121019Y-12478905D01*
X15121019Y-12459857D01*
X15130543Y-12440809D01*
X15149590Y-12431286D01*
X15197209Y-12431286D01*
X15216257Y-12421762D01*
X15311495Y-12374143D02*
X15311495Y-12574143D01*
X15311495Y-12383667D02*
X15330543Y-12374143D01*
X15368638Y-12374143D01*
X15387686Y-12383667D01*
X15397209Y-12393190D01*
X15406733Y-12412238D01*
X15406733Y-12469381D01*
X15397209Y-12488428D01*
X15387686Y-12497952D01*
X15368638Y-12507476D01*
X15330543Y-12507476D01*
X15311495Y-12497952D01*
X15492448Y-12488428D02*
X15501971Y-12497952D01*
X15492448Y-12507476D01*
X15482924Y-12497952D01*
X15492448Y-12488428D01*
X15492448Y-12507476D01*
X15492448Y-12383667D02*
X15501971Y-12393190D01*
X15492448Y-12402714D01*
X15482924Y-12393190D01*
X15492448Y-12383667D01*
X15492448Y-12402714D01*
M02*
