M48
; DRILL file {KiCad 6.0.6-3a73a75311~116~ubuntu22.04.1} date Sat 16 Jul 2022 09:42:50 AM EDT
; FORMAT={-:-/ absolute / metric / decimal}
; #@! TF.CreationDate,2022-07-16T09:42:50-04:00
; #@! TF.GenerationSoftware,Kicad,Pcbnew,6.0.6-3a73a75311~116~ubuntu22.04.1
; #@! TF.FileFunction,Plated,1,2,PTH
FMAT,2
METRIC
; #@! TA.AperFunction,Plated,PTH,ViaDrill
T1C0.400
; #@! TA.AperFunction,Plated,PTH,ComponentDrill
T2C1.000
; #@! TA.AperFunction,Plated,PTH,ComponentDrill
T3C3.200
%
G90
G05
T1
X139.522Y-107.315
X142.24Y-99.695
X142.242Y-107.313
X144.297Y-104.775
X144.78Y-107.315
X146.583Y-110.82
X146.685Y-102.489
X147.193Y-99.847
X147.396Y-106.807
X147.581Y-110.878
X148.717Y-102.184
X149.225Y-109.855
X149.835Y-99.695
T2
X140.335Y-90.805
X140.335Y-93.345
X140.335Y-95.885
X140.335Y-98.425
X140.335Y-100.965
X140.335Y-103.505
X140.335Y-106.045
X140.335Y-108.585
X140.335Y-111.125
X140.335Y-113.665
X154.305Y-90.805
X154.305Y-93.345
X154.305Y-95.885
X154.305Y-98.425
X154.305Y-100.965
X154.305Y-103.505
T3
X147.32Y-86.36
X147.32Y-118.11
T0
M30
