G04 #@! TF.GenerationSoftware,KiCad,Pcbnew,6.0.6-3a73a75311~116~ubuntu22.04.1*
G04 #@! TF.CreationDate,2022-06-23T15:23:09-04:00*
G04 #@! TF.ProjectId,ltc4332_breakout,6c746334-3333-4325-9f62-7265616b6f75,0*
G04 #@! TF.SameCoordinates,Original*
G04 #@! TF.FileFunction,Legend,Bot*
G04 #@! TF.FilePolarity,Positive*
%FSLAX46Y46*%
G04 Gerber Fmt 4.6, Leading zero omitted, Abs format (unit mm)*
G04 Created by KiCad (PCBNEW 6.0.6-3a73a75311~116~ubuntu22.04.1) date 2022-06-23 15:23:09*
%MOMM*%
%LPD*%
G01*
G04 APERTURE LIST*
%ADD10C,0.150000*%
%ADD11R,1.700000X1.700000*%
%ADD12O,1.700000X1.700000*%
%ADD13C,5.600000*%
G04 APERTURE END LIST*
D10*
X142494000Y-90805000D02*
X145034000Y-90805000D01*
X151130000Y-90805000D02*
X153670000Y-90805000D01*
G36*
X149814324Y-89784545D02*
G01*
X149913862Y-89799310D01*
X150011473Y-89823760D01*
X150106219Y-89857661D01*
X150197184Y-89900684D01*
X150283495Y-89952417D01*
X150364320Y-90012361D01*
X150438880Y-90079938D01*
X150506457Y-90154498D01*
X150566401Y-90235322D01*
X150618133Y-90321633D01*
X150661157Y-90412599D01*
X150695057Y-90507344D01*
X150719508Y-90604956D01*
X150734273Y-90704494D01*
X150739210Y-90805000D01*
X150734273Y-90905506D01*
X150719508Y-91005044D01*
X150695057Y-91102656D01*
X150661157Y-91197401D01*
X150618133Y-91288367D01*
X150566401Y-91374678D01*
X150506457Y-91455502D01*
X150438880Y-91530062D01*
X150364320Y-91597639D01*
X150283495Y-91657583D01*
X150197184Y-91709316D01*
X150106219Y-91752339D01*
X150011473Y-91786240D01*
X149913862Y-91810690D01*
X149814324Y-91825455D01*
X149713818Y-91830393D01*
X146450182Y-91830393D01*
X146349676Y-91825455D01*
X146250138Y-91810690D01*
X146152527Y-91786240D01*
X146057781Y-91752339D01*
X145966816Y-91709316D01*
X145880505Y-91657583D01*
X145799680Y-91597639D01*
X145725120Y-91530062D01*
X145657543Y-91455502D01*
X145597599Y-91374678D01*
X145545867Y-91288367D01*
X145502843Y-91197401D01*
X145468943Y-91102656D01*
X145444492Y-91005044D01*
X145444489Y-91005025D01*
X146962812Y-91005025D01*
X146985037Y-91130438D01*
X147053300Y-91229656D01*
X147105687Y-91266963D01*
X147170775Y-91294744D01*
X147248959Y-91312008D01*
X147340637Y-91317763D01*
X147417631Y-91312206D01*
X147495419Y-91298713D01*
X147564475Y-91281250D01*
X147613687Y-91263788D01*
X147575587Y-91100275D01*
X147481131Y-91133613D01*
X147417433Y-91146709D01*
X147342225Y-91151075D01*
X147257095Y-91140359D01*
X147201731Y-91108213D01*
X147161250Y-91001850D01*
X147176728Y-90935770D01*
X147223162Y-90893106D01*
X147293409Y-90869889D01*
X147380325Y-90862150D01*
X147440650Y-90862150D01*
X147440650Y-90700225D01*
X147367625Y-90700225D01*
X147307300Y-90693875D01*
X147253325Y-90673237D01*
X147214431Y-90635137D01*
X147199350Y-90574812D01*
X147231894Y-90489881D01*
X147321587Y-90458925D01*
X147431919Y-90477181D01*
X147526375Y-90522425D01*
X147596225Y-90379550D01*
X147482719Y-90321606D01*
X147458326Y-90314462D01*
X147697825Y-90314462D01*
X147719058Y-90415269D01*
X147744656Y-90527187D01*
X147774422Y-90647639D01*
X147808156Y-90774044D01*
X147832762Y-90860827D01*
X147858956Y-90948669D01*
X147886737Y-91037569D01*
X147915665Y-91126028D01*
X147945299Y-91212547D01*
X147975637Y-91297125D01*
X148177250Y-91297125D01*
X148216541Y-91180444D01*
X148258213Y-91049475D01*
X148271765Y-91005025D01*
X148550313Y-91005025D01*
X148572538Y-91130438D01*
X148640800Y-91229656D01*
X148693188Y-91266963D01*
X148758275Y-91294744D01*
X148836459Y-91312008D01*
X148928138Y-91317763D01*
X149005131Y-91312206D01*
X149082919Y-91298713D01*
X149151975Y-91281250D01*
X149201188Y-91263788D01*
X149163088Y-91100275D01*
X149068631Y-91133613D01*
X149004933Y-91146709D01*
X148929725Y-91151075D01*
X148844595Y-91140359D01*
X148789231Y-91108213D01*
X148748750Y-91001850D01*
X148764228Y-90935770D01*
X148810663Y-90893106D01*
X148880909Y-90869889D01*
X148967825Y-90862150D01*
X149028150Y-90862150D01*
X149028150Y-90700225D01*
X148955125Y-90700225D01*
X148894800Y-90693875D01*
X148840825Y-90673237D01*
X148801931Y-90635137D01*
X148786850Y-90574812D01*
X148819394Y-90489881D01*
X148909088Y-90458925D01*
X149019419Y-90477181D01*
X149113875Y-90522425D01*
X149183725Y-90379550D01*
X149070219Y-90321606D01*
X148995011Y-90299580D01*
X148910675Y-90292237D01*
X148833483Y-90297397D01*
X148767006Y-90312875D01*
X148666200Y-90370819D01*
X148607463Y-90458925D01*
X148588413Y-90568462D01*
X148621750Y-90681175D01*
X148710650Y-90763725D01*
X148642983Y-90803016D01*
X148592381Y-90857388D01*
X148560830Y-90925253D01*
X148550313Y-91005025D01*
X148271765Y-91005025D01*
X148286258Y-90957488D01*
X148313246Y-90865678D01*
X148339175Y-90774044D01*
X148363693Y-90684174D01*
X148386447Y-90597655D01*
X148407438Y-90514487D01*
X148433631Y-90403362D01*
X148451888Y-90314462D01*
X148245513Y-90314462D01*
X148233606Y-90396814D01*
X148216938Y-90491469D01*
X148196895Y-90593862D01*
X148174869Y-90699431D01*
X148151056Y-90805794D01*
X148125656Y-90910569D01*
X148099661Y-91009192D01*
X148074062Y-91097100D01*
X148048662Y-91010383D01*
X148023262Y-90912156D01*
X147998656Y-90807381D01*
X147975637Y-90701019D01*
X147954206Y-90595252D01*
X147934362Y-90492262D01*
X147916900Y-90397012D01*
X147902612Y-90314462D01*
X147697825Y-90314462D01*
X147458326Y-90314462D01*
X147407511Y-90299580D01*
X147323175Y-90292237D01*
X147245983Y-90297397D01*
X147179506Y-90312875D01*
X147078700Y-90370819D01*
X147019962Y-90458925D01*
X147000912Y-90568462D01*
X147034250Y-90681175D01*
X147123150Y-90763725D01*
X147055483Y-90803016D01*
X147004881Y-90857388D01*
X146973330Y-90925253D01*
X146962812Y-91005025D01*
X145444489Y-91005025D01*
X145429727Y-90905506D01*
X145424790Y-90805000D01*
X145429727Y-90704494D01*
X145444492Y-90604956D01*
X145468943Y-90507344D01*
X145502843Y-90412599D01*
X145545867Y-90321633D01*
X145597599Y-90235322D01*
X145657543Y-90154498D01*
X145725120Y-90079938D01*
X145799680Y-90012361D01*
X145880505Y-89952417D01*
X145966816Y-89900684D01*
X146057781Y-89857661D01*
X146152527Y-89823760D01*
X146250138Y-89799310D01*
X146349676Y-89784545D01*
X146450182Y-89779607D01*
X149713818Y-89779607D01*
X149814324Y-89784545D01*
G37*
G36*
X142584443Y-103505000D02*
G01*
X143268039Y-102479607D01*
X146545961Y-102479607D01*
X147229557Y-103505000D01*
X146545961Y-104530393D01*
X143268039Y-104530393D01*
X142912527Y-103997125D01*
X143780669Y-103997125D01*
X144377569Y-103997125D01*
X144377569Y-103835200D01*
X144171194Y-103835200D01*
X144171194Y-103728838D01*
X144572831Y-103728838D01*
X144595255Y-103851273D01*
X144662525Y-103942356D01*
X144732640Y-103984249D01*
X144823392Y-104009384D01*
X144934781Y-104017763D01*
X145044716Y-104011214D01*
X145130044Y-103991569D01*
X145239581Y-103943150D01*
X145182431Y-103784400D01*
X145080038Y-103832025D01*
X145013958Y-103848694D01*
X144934781Y-103854250D01*
X144853025Y-103843931D01*
X144801431Y-103815356D01*
X144775237Y-103774081D01*
X144768336Y-103728838D01*
X145366581Y-103728838D01*
X145389005Y-103851273D01*
X145456275Y-103942356D01*
X145526390Y-103984249D01*
X145617142Y-104009384D01*
X145728531Y-104017763D01*
X145838466Y-104011214D01*
X145923794Y-103991569D01*
X146033331Y-103943150D01*
X145976181Y-103784400D01*
X145873788Y-103832025D01*
X145807708Y-103848694D01*
X145728531Y-103854250D01*
X145646775Y-103843931D01*
X145595181Y-103815356D01*
X145568988Y-103774081D01*
X145561844Y-103727250D01*
X145579306Y-103673275D01*
X145623756Y-103631206D01*
X145684081Y-103597869D01*
X145750756Y-103570088D01*
X145842831Y-103533575D01*
X145929350Y-103481187D01*
X145993644Y-103402606D01*
X146019044Y-103285925D01*
X145996620Y-103162894D01*
X145929350Y-103070025D01*
X145862058Y-103026810D01*
X145779772Y-103000881D01*
X145682494Y-102992237D01*
X145597761Y-102997397D01*
X145524538Y-103012875D01*
X145411031Y-103058912D01*
X145468181Y-103209725D01*
X145556288Y-103171625D01*
X145668206Y-103155750D01*
X145754637Y-103168274D01*
X145806495Y-103205844D01*
X145823781Y-103268462D01*
X145807906Y-103318469D01*
X145767425Y-103356569D01*
X145711863Y-103385937D01*
X145650744Y-103409750D01*
X145554700Y-103448644D01*
X145462625Y-103505794D01*
X145393569Y-103594694D01*
X145373328Y-103654820D01*
X145366581Y-103728838D01*
X144768336Y-103728838D01*
X144768094Y-103727250D01*
X144785556Y-103673275D01*
X144830006Y-103631206D01*
X144890331Y-103597869D01*
X144957006Y-103570088D01*
X145049081Y-103533575D01*
X145135600Y-103481187D01*
X145199894Y-103402606D01*
X145225294Y-103285925D01*
X145202870Y-103162894D01*
X145135600Y-103070025D01*
X145068308Y-103026810D01*
X144986022Y-103000881D01*
X144888744Y-102992237D01*
X144804011Y-102997397D01*
X144730787Y-103012875D01*
X144617281Y-103058912D01*
X144674431Y-103209725D01*
X144762537Y-103171625D01*
X144874456Y-103155750D01*
X144960887Y-103168274D01*
X145012745Y-103205844D01*
X145030031Y-103268462D01*
X145014156Y-103318469D01*
X144973675Y-103356569D01*
X144918113Y-103385937D01*
X144856994Y-103409750D01*
X144760950Y-103448644D01*
X144668875Y-103505794D01*
X144599819Y-103594694D01*
X144579578Y-103654820D01*
X144572831Y-103728838D01*
X144171194Y-103728838D01*
X144171194Y-103285925D01*
X144272794Y-103342281D01*
X144369631Y-103381175D01*
X144433131Y-103219250D01*
X144350581Y-103182737D01*
X144261681Y-103133525D01*
X144177544Y-103076375D01*
X144109281Y-103014462D01*
X143975931Y-103014462D01*
X143975931Y-103835200D01*
X143780669Y-103835200D01*
X143780669Y-103997125D01*
X142912527Y-103997125D01*
X142584443Y-103505000D01*
G37*
G36*
X153017899Y-102484545D02*
G01*
X153117437Y-102499310D01*
X153215048Y-102523760D01*
X153309794Y-102557661D01*
X153400759Y-102600684D01*
X153487070Y-102652417D01*
X153567895Y-102712361D01*
X153642455Y-102779938D01*
X153710032Y-102854498D01*
X153769976Y-102935322D01*
X153821708Y-103021633D01*
X153864732Y-103112599D01*
X153898632Y-103207344D01*
X153923083Y-103304956D01*
X153937848Y-103404494D01*
X153942785Y-103505000D01*
X153937848Y-103605506D01*
X153923083Y-103705044D01*
X153898632Y-103802656D01*
X153864732Y-103897401D01*
X153821708Y-103988367D01*
X153769976Y-104074678D01*
X153710032Y-104155502D01*
X153642455Y-104230062D01*
X153567895Y-104297639D01*
X153487070Y-104357583D01*
X153400759Y-104409316D01*
X153309794Y-104452339D01*
X153215048Y-104486240D01*
X153117437Y-104510690D01*
X153017899Y-104525455D01*
X152917393Y-104530393D01*
X149596607Y-104530393D01*
X149496101Y-104525455D01*
X149396563Y-104510690D01*
X149298952Y-104486240D01*
X149204206Y-104452339D01*
X149113241Y-104409316D01*
X149026930Y-104357583D01*
X148946105Y-104297639D01*
X148871545Y-104230062D01*
X148803968Y-104155502D01*
X148744024Y-104074678D01*
X148692292Y-103988367D01*
X148649268Y-103897401D01*
X148615368Y-103802656D01*
X148590917Y-103705044D01*
X148576152Y-103605506D01*
X148571215Y-103505000D01*
X150109237Y-103505000D01*
X150117770Y-103631405D01*
X150143369Y-103737569D01*
X150184048Y-103824683D01*
X150237825Y-103893938D01*
X150303905Y-103946127D01*
X150381494Y-103982044D01*
X150469005Y-104002880D01*
X150564850Y-104009825D01*
X150667244Y-104004269D01*
X150709177Y-103997125D01*
X150933150Y-103997125D01*
X151090312Y-103997125D01*
X151136085Y-103888205D01*
X151184504Y-103779461D01*
X151235569Y-103670894D01*
X151289279Y-103562326D01*
X151345635Y-103453583D01*
X151404638Y-103344662D01*
X151404638Y-103997125D01*
X151580850Y-103997125D01*
X151580850Y-103063675D01*
X151711025Y-103063675D01*
X151761825Y-103219250D01*
X151847550Y-103179562D01*
X151952325Y-103162100D01*
X152069800Y-103187500D01*
X152148381Y-103258144D01*
X152192831Y-103366094D01*
X152202952Y-103432173D01*
X152206325Y-103505000D01*
X152200151Y-103612156D01*
X152181631Y-103698675D01*
X152150763Y-103764556D01*
X152082103Y-103827064D01*
X151987250Y-103847900D01*
X151949150Y-103846313D01*
X151911050Y-103841550D01*
X151911050Y-103482775D01*
X151715788Y-103482775D01*
X151715788Y-103973313D01*
X151824531Y-104001888D01*
X151906089Y-104013794D01*
X152003125Y-104017763D01*
X152090636Y-104009627D01*
X152169019Y-103985219D01*
X152237480Y-103944738D01*
X152295225Y-103888381D01*
X152341659Y-103816150D01*
X152376188Y-103728044D01*
X152397619Y-103624261D01*
X152404763Y-103505000D01*
X152396428Y-103386930D01*
X152371425Y-103283544D01*
X152332134Y-103195239D01*
X152280938Y-103122412D01*
X152218628Y-103065461D01*
X152146000Y-103024781D01*
X152065434Y-103000373D01*
X151979313Y-102992237D01*
X151876919Y-103000969D01*
X151798338Y-103020812D01*
X151743569Y-103044625D01*
X151711025Y-103063675D01*
X151580850Y-103063675D01*
X151580850Y-103014462D01*
X151423688Y-103014462D01*
X151379238Y-103087289D01*
X151334788Y-103166069D01*
X151290933Y-103247627D01*
X151248269Y-103328787D01*
X151207787Y-103408559D01*
X151170481Y-103485950D01*
X151137342Y-103557388D01*
X151109362Y-103619300D01*
X151109362Y-103014462D01*
X150933150Y-103014462D01*
X150933150Y-103997125D01*
X150709177Y-103997125D01*
X150774400Y-103986013D01*
X150774400Y-103027162D01*
X150648987Y-103008112D01*
X150539450Y-103003350D01*
X150446780Y-103010494D01*
X150362444Y-103031925D01*
X150288427Y-103068636D01*
X150226712Y-103121619D01*
X150177302Y-103191072D01*
X150140194Y-103277194D01*
X150116977Y-103381373D01*
X150109237Y-103505000D01*
X148571215Y-103505000D01*
X148576152Y-103404494D01*
X148590917Y-103304956D01*
X148615368Y-103207344D01*
X148649268Y-103112599D01*
X148692292Y-103021633D01*
X148744024Y-102935322D01*
X148803968Y-102854498D01*
X148871545Y-102779938D01*
X148946105Y-102712361D01*
X149026930Y-102652417D01*
X149113241Y-102600684D01*
X149204206Y-102557661D01*
X149298952Y-102523760D01*
X149396563Y-102499310D01*
X149496101Y-102484545D01*
X149596607Y-102479607D01*
X152917393Y-102479607D01*
X153017899Y-102484545D01*
G37*
G36*
X150550562Y-103174006D02*
G01*
X150579137Y-103177975D01*
X150579137Y-103838375D01*
X150561675Y-103839963D01*
X150544212Y-103839963D01*
X150432294Y-103814563D01*
X150359269Y-103744713D01*
X150319581Y-103639144D01*
X150310652Y-103575048D01*
X150307675Y-103505000D01*
X150317200Y-103381175D01*
X150350537Y-103274812D01*
X150415625Y-103200994D01*
X150521987Y-103173212D01*
X150550562Y-103174006D01*
G37*
G36*
X147231938Y-106045000D02*
G01*
X146548343Y-107070393D01*
X143265657Y-107070393D01*
X142910145Y-106537125D01*
X143778287Y-106537125D01*
X144419637Y-106537125D01*
X144423606Y-106497438D01*
X144422812Y-106464100D01*
X144415470Y-106387900D01*
X144393444Y-106318050D01*
X144367847Y-106268838D01*
X144575212Y-106268838D01*
X144597636Y-106391273D01*
X144664906Y-106482356D01*
X144735021Y-106524249D01*
X144825773Y-106549384D01*
X144937163Y-106557763D01*
X145047097Y-106551214D01*
X145132425Y-106531569D01*
X145241963Y-106483150D01*
X145184813Y-106324400D01*
X145082419Y-106372025D01*
X145016339Y-106388694D01*
X144937163Y-106394250D01*
X144855406Y-106383931D01*
X144803812Y-106355356D01*
X144777619Y-106314081D01*
X144770717Y-106268838D01*
X145368963Y-106268838D01*
X145391386Y-106391273D01*
X145458656Y-106482356D01*
X145528771Y-106524249D01*
X145619523Y-106549384D01*
X145730913Y-106557763D01*
X145840847Y-106551214D01*
X145926175Y-106531569D01*
X146035713Y-106483150D01*
X145978563Y-106324400D01*
X145876169Y-106372025D01*
X145810089Y-106388694D01*
X145730913Y-106394250D01*
X145649156Y-106383931D01*
X145597563Y-106355356D01*
X145571369Y-106314081D01*
X145564225Y-106267250D01*
X145581688Y-106213275D01*
X145626138Y-106171206D01*
X145686463Y-106137869D01*
X145753138Y-106110088D01*
X145845213Y-106073575D01*
X145931731Y-106021187D01*
X145996025Y-105942606D01*
X146021425Y-105825925D01*
X145999002Y-105702894D01*
X145931731Y-105610025D01*
X145864439Y-105566810D01*
X145782153Y-105540881D01*
X145684875Y-105532237D01*
X145600142Y-105537397D01*
X145526919Y-105552875D01*
X145413413Y-105598912D01*
X145470563Y-105749725D01*
X145558669Y-105711625D01*
X145670588Y-105695750D01*
X145757018Y-105708274D01*
X145808876Y-105745844D01*
X145826163Y-105808462D01*
X145810288Y-105858469D01*
X145769806Y-105896569D01*
X145714244Y-105925937D01*
X145653125Y-105949750D01*
X145557081Y-105988644D01*
X145465006Y-106045794D01*
X145395950Y-106134694D01*
X145375709Y-106194820D01*
X145368963Y-106268838D01*
X144770717Y-106268838D01*
X144770475Y-106267250D01*
X144787937Y-106213275D01*
X144832387Y-106171206D01*
X144892712Y-106137869D01*
X144959388Y-106110088D01*
X145051463Y-106073575D01*
X145137981Y-106021187D01*
X145202275Y-105942606D01*
X145227675Y-105825925D01*
X145205252Y-105702894D01*
X145137981Y-105610025D01*
X145070689Y-105566810D01*
X144988403Y-105540881D01*
X144891125Y-105532237D01*
X144806392Y-105537397D01*
X144733169Y-105552875D01*
X144619662Y-105598912D01*
X144676812Y-105749725D01*
X144764919Y-105711625D01*
X144876837Y-105695750D01*
X144963268Y-105708274D01*
X145015126Y-105745844D01*
X145032413Y-105808462D01*
X145016538Y-105858469D01*
X144976056Y-105896569D01*
X144920494Y-105925937D01*
X144859375Y-105949750D01*
X144763331Y-105988644D01*
X144671256Y-106045794D01*
X144602200Y-106134694D01*
X144581959Y-106194820D01*
X144575212Y-106268838D01*
X144367847Y-106268838D01*
X144360106Y-106253955D01*
X144318831Y-106195019D01*
X144272000Y-106140647D01*
X144221994Y-106090244D01*
X144171987Y-106042817D01*
X144125156Y-105997375D01*
X144050544Y-105911650D01*
X144021175Y-105827512D01*
X144057687Y-105734644D01*
X144149762Y-105702100D01*
X144246600Y-105724325D01*
X144346612Y-105798937D01*
X144443450Y-105662412D01*
X144374989Y-105604469D01*
X144296606Y-105563987D01*
X144213461Y-105540175D01*
X144130712Y-105532237D01*
X144014825Y-105549700D01*
X143916400Y-105602087D01*
X143848137Y-105690194D01*
X143822737Y-105813225D01*
X143841787Y-105910856D01*
X143892588Y-106002137D01*
X143964025Y-106087863D01*
X144044987Y-106167238D01*
X144092612Y-106212481D01*
X144143412Y-106266456D01*
X144183894Y-106322813D01*
X144200562Y-106375200D01*
X143778287Y-106375200D01*
X143778287Y-106537125D01*
X142910145Y-106537125D01*
X142582062Y-106045000D01*
X143265657Y-105019607D01*
X146548343Y-105019607D01*
X147231938Y-106045000D01*
G37*
G36*
X153932158Y-94348961D02*
G01*
X150521150Y-94348961D01*
X150179396Y-93836331D01*
X151844066Y-93836331D01*
X152053616Y-93836331D01*
X152099654Y-93609319D01*
X152361591Y-93609319D01*
X152406041Y-93836331D01*
X152609241Y-93836331D01*
X152581238Y-93722190D01*
X152553107Y-93612176D01*
X152524850Y-93506290D01*
X152496465Y-93404531D01*
X152467954Y-93306900D01*
X152432533Y-93188979D01*
X152397707Y-93074133D01*
X152363476Y-92962363D01*
X152329841Y-92853669D01*
X152117116Y-92853669D01*
X152082241Y-92963256D01*
X152047465Y-93076117D01*
X152012788Y-93192253D01*
X151978210Y-93311662D01*
X151950746Y-93410119D01*
X151923600Y-93511815D01*
X151896771Y-93616748D01*
X151870260Y-93724921D01*
X151844066Y-93836331D01*
X150179396Y-93836331D01*
X149851842Y-93345000D01*
X150521150Y-92341039D01*
X153932158Y-92341039D01*
X153932158Y-94348961D01*
G37*
G36*
X152257610Y-93149737D02*
G01*
X152283010Y-93248162D01*
X152305235Y-93345794D01*
X152325079Y-93447394D01*
X152132991Y-93447394D01*
X152152041Y-93345794D01*
X152173473Y-93248162D01*
X152198873Y-93149737D01*
X152228241Y-93044169D01*
X152257610Y-93149737D01*
G37*
G36*
X142470143Y-93345000D02*
G01*
X142689747Y-93015594D01*
X143652081Y-93015594D01*
X143910844Y-93015594D01*
X143910844Y-93836331D01*
X144107694Y-93836331D01*
X144479169Y-93836331D01*
X144636331Y-93836331D01*
X144682104Y-93727411D01*
X144730523Y-93618667D01*
X144781588Y-93510100D01*
X144835298Y-93401533D01*
X144891654Y-93292789D01*
X144950656Y-93183869D01*
X144950656Y-93836331D01*
X145126869Y-93836331D01*
X145284031Y-93836331D01*
X145907919Y-93836331D01*
X145907919Y-93674406D01*
X145693606Y-93674406D01*
X145693606Y-93015594D01*
X145907919Y-93015594D01*
X145907919Y-92853669D01*
X145284031Y-92853669D01*
X145284031Y-93015594D01*
X145496756Y-93015594D01*
X145496756Y-93674406D01*
X145284031Y-93674406D01*
X145284031Y-93836331D01*
X145126869Y-93836331D01*
X145126869Y-92853669D01*
X144969706Y-92853669D01*
X144925256Y-92926495D01*
X144880806Y-93005275D01*
X144836952Y-93086833D01*
X144794288Y-93167994D01*
X144753806Y-93247766D01*
X144716500Y-93325156D01*
X144683361Y-93396594D01*
X144655381Y-93458506D01*
X144655381Y-92853669D01*
X144479169Y-92853669D01*
X144479169Y-93836331D01*
X144107694Y-93836331D01*
X144107694Y-93015594D01*
X144366456Y-93015594D01*
X144366456Y-92853669D01*
X143652081Y-92853669D01*
X143652081Y-93015594D01*
X142689747Y-93015594D01*
X143139451Y-92341039D01*
X146420549Y-92341039D01*
X147089857Y-93345000D01*
X146420549Y-94348961D01*
X143139451Y-94348961D01*
X142470143Y-93345000D01*
G37*
G36*
X144454562Y-113334006D02*
G01*
X144483137Y-113337975D01*
X144483137Y-113998375D01*
X144465675Y-113999963D01*
X144448212Y-113999963D01*
X144336294Y-113974563D01*
X144263269Y-113904713D01*
X144223581Y-113799144D01*
X144214652Y-113735048D01*
X144211675Y-113665000D01*
X144221200Y-113541175D01*
X144254537Y-113434812D01*
X144319625Y-113360994D01*
X144425987Y-113333212D01*
X144454562Y-113334006D01*
G37*
G36*
X146921899Y-112644545D02*
G01*
X147021437Y-112659310D01*
X147119048Y-112683760D01*
X147213794Y-112717661D01*
X147304759Y-112760684D01*
X147391070Y-112812417D01*
X147471895Y-112872361D01*
X147546455Y-112939938D01*
X147614032Y-113014498D01*
X147673976Y-113095322D01*
X147725708Y-113181633D01*
X147768732Y-113272599D01*
X147802632Y-113367344D01*
X147827083Y-113464956D01*
X147841848Y-113564494D01*
X147846785Y-113665000D01*
X147841848Y-113765506D01*
X147827083Y-113865044D01*
X147802632Y-113962656D01*
X147768732Y-114057401D01*
X147725708Y-114148367D01*
X147673976Y-114234678D01*
X147614032Y-114315502D01*
X147546455Y-114390062D01*
X147471895Y-114457639D01*
X147391070Y-114517583D01*
X147304759Y-114569316D01*
X147213794Y-114612339D01*
X147119048Y-114646240D01*
X147021437Y-114670690D01*
X146921899Y-114685455D01*
X146821393Y-114690393D01*
X143500607Y-114690393D01*
X143400101Y-114685455D01*
X143300563Y-114670690D01*
X143202952Y-114646240D01*
X143108206Y-114612339D01*
X143017241Y-114569316D01*
X142930930Y-114517583D01*
X142850105Y-114457639D01*
X142775545Y-114390062D01*
X142707968Y-114315502D01*
X142648024Y-114234678D01*
X142596292Y-114148367D01*
X142553268Y-114057401D01*
X142519368Y-113962656D01*
X142494917Y-113865044D01*
X142480152Y-113765506D01*
X142475215Y-113665000D01*
X144013237Y-113665000D01*
X144021770Y-113791405D01*
X144047369Y-113897569D01*
X144088048Y-113984683D01*
X144141825Y-114053938D01*
X144207905Y-114106127D01*
X144285494Y-114142044D01*
X144373005Y-114162880D01*
X144468850Y-114169825D01*
X144571244Y-114164269D01*
X144613177Y-114157125D01*
X144837150Y-114157125D01*
X144994312Y-114157125D01*
X145040085Y-114048205D01*
X145088504Y-113939461D01*
X145139569Y-113830894D01*
X145193279Y-113722326D01*
X145249635Y-113613583D01*
X145308638Y-113504662D01*
X145308638Y-114157125D01*
X145484850Y-114157125D01*
X145484850Y-113223675D01*
X145615025Y-113223675D01*
X145665825Y-113379250D01*
X145751550Y-113339562D01*
X145856325Y-113322100D01*
X145973800Y-113347500D01*
X146052381Y-113418144D01*
X146096831Y-113526094D01*
X146106952Y-113592173D01*
X146110325Y-113665000D01*
X146104151Y-113772156D01*
X146085631Y-113858675D01*
X146054763Y-113924556D01*
X145986103Y-113987064D01*
X145891250Y-114007900D01*
X145853150Y-114006313D01*
X145815050Y-114001550D01*
X145815050Y-113642775D01*
X145619788Y-113642775D01*
X145619788Y-114133313D01*
X145728531Y-114161888D01*
X145810089Y-114173794D01*
X145907125Y-114177763D01*
X145994636Y-114169627D01*
X146073019Y-114145219D01*
X146141480Y-114104738D01*
X146199225Y-114048381D01*
X146245659Y-113976150D01*
X146280188Y-113888044D01*
X146301619Y-113784261D01*
X146308763Y-113665000D01*
X146300428Y-113546930D01*
X146275425Y-113443544D01*
X146236134Y-113355239D01*
X146184938Y-113282412D01*
X146122628Y-113225461D01*
X146050000Y-113184781D01*
X145969434Y-113160373D01*
X145883313Y-113152237D01*
X145780919Y-113160969D01*
X145702338Y-113180812D01*
X145647569Y-113204625D01*
X145615025Y-113223675D01*
X145484850Y-113223675D01*
X145484850Y-113174462D01*
X145327688Y-113174462D01*
X145283238Y-113247289D01*
X145238788Y-113326069D01*
X145194933Y-113407627D01*
X145152269Y-113488787D01*
X145111787Y-113568559D01*
X145074481Y-113645950D01*
X145041342Y-113717388D01*
X145013362Y-113779300D01*
X145013362Y-113174462D01*
X144837150Y-113174462D01*
X144837150Y-114157125D01*
X144613177Y-114157125D01*
X144678400Y-114146013D01*
X144678400Y-113187162D01*
X144552987Y-113168112D01*
X144443450Y-113163350D01*
X144350780Y-113170494D01*
X144266444Y-113191925D01*
X144192427Y-113228636D01*
X144130712Y-113281619D01*
X144081302Y-113351072D01*
X144044194Y-113437194D01*
X144020977Y-113541373D01*
X144013237Y-113665000D01*
X142475215Y-113665000D01*
X142480152Y-113564494D01*
X142494917Y-113464956D01*
X142519368Y-113367344D01*
X142553268Y-113272599D01*
X142596292Y-113181633D01*
X142648024Y-113095322D01*
X142707968Y-113014498D01*
X142775545Y-112939938D01*
X142850105Y-112872361D01*
X142930930Y-112812417D01*
X143017241Y-112760684D01*
X143108206Y-112717661D01*
X143202952Y-112683760D01*
X143300563Y-112659310D01*
X143400101Y-112644545D01*
X143500607Y-112639607D01*
X146821393Y-112639607D01*
X146921899Y-112644545D01*
G37*
G36*
X153873420Y-100965000D02*
G01*
X153204113Y-101968961D01*
X149910580Y-101968961D01*
X149910580Y-101456331D01*
X151233496Y-101456331D01*
X151881196Y-101456331D01*
X151881196Y-101343619D01*
X151845081Y-101273570D01*
X151806584Y-101199950D01*
X151764515Y-101121964D01*
X151717684Y-101038819D01*
X151666288Y-100949522D01*
X151610527Y-100853081D01*
X151549607Y-100748703D01*
X151482734Y-100635594D01*
X151860559Y-100635594D01*
X151860559Y-100473669D01*
X151247784Y-100473669D01*
X151247784Y-100610194D01*
X151313268Y-100711794D01*
X151373196Y-100807044D01*
X151428362Y-100896936D01*
X151479559Y-100982463D01*
X151527382Y-101064219D01*
X151572427Y-101142800D01*
X151615091Y-101219198D01*
X151655771Y-101294406D01*
X151233496Y-101294406D01*
X151233496Y-101456331D01*
X149910580Y-101456331D01*
X149910580Y-99961039D01*
X153204113Y-99961039D01*
X153873420Y-100965000D01*
G37*
G36*
X151787356Y-112811804D02*
G01*
X151890621Y-112844170D01*
X151962289Y-112907362D01*
X151989261Y-113010626D01*
X151988491Y-113038369D01*
X151984638Y-113066112D01*
X151343473Y-113066112D01*
X151341931Y-113049158D01*
X151341931Y-113032204D01*
X151366591Y-112923545D01*
X151434407Y-112852647D01*
X151536901Y-112814115D01*
X151667138Y-112802556D01*
X151787356Y-112811804D01*
G37*
G36*
X151908345Y-111311385D02*
G01*
X151953812Y-111346063D01*
X151980399Y-111399622D01*
X151989261Y-111467823D01*
X151988491Y-111494024D01*
X151984638Y-111524850D01*
X151697963Y-111524850D01*
X151697963Y-111483236D01*
X151707403Y-111399622D01*
X151735724Y-111342981D01*
X151842841Y-111299825D01*
X151908345Y-111311385D01*
G37*
G36*
X152939695Y-119832655D02*
G01*
X152868364Y-119813855D01*
X152797516Y-119793309D01*
X152727194Y-119771031D01*
X152657439Y-119747034D01*
X152588294Y-119721332D01*
X152519801Y-119693941D01*
X152452001Y-119664877D01*
X152384934Y-119634159D01*
X152318642Y-119601803D01*
X152253163Y-119567831D01*
X152188538Y-119532261D01*
X152124806Y-119495117D01*
X152062004Y-119456419D01*
X152000170Y-119416192D01*
X151939343Y-119374460D01*
X151879558Y-119331248D01*
X151820851Y-119286581D01*
X151763259Y-119240487D01*
X151706815Y-119192993D01*
X151651553Y-119144129D01*
X151597507Y-119093923D01*
X151544710Y-119042406D01*
X151493193Y-118989608D01*
X151442987Y-118935563D01*
X151394122Y-118880301D01*
X151346629Y-118823857D01*
X151300535Y-118766264D01*
X151255868Y-118707558D01*
X151212656Y-118647773D01*
X151170923Y-118586945D01*
X151130696Y-118525112D01*
X151091999Y-118462310D01*
X151054854Y-118398577D01*
X151019285Y-118333952D01*
X150985313Y-118268474D01*
X150952957Y-118202181D01*
X150922238Y-118135115D01*
X150893175Y-118067314D01*
X150865784Y-117998821D01*
X150840082Y-117929677D01*
X150816085Y-117859922D01*
X150793807Y-117789599D01*
X150773261Y-117718751D01*
X150754460Y-117647420D01*
X150737416Y-117575650D01*
X150722138Y-117503482D01*
X150708636Y-117430961D01*
X150696917Y-117358131D01*
X150686990Y-117285035D01*
X150678859Y-117211717D01*
X150672530Y-117138222D01*
X150668006Y-117064594D01*
X150665291Y-116990877D01*
X150664386Y-116917116D01*
X150664386Y-116404486D01*
X151189346Y-116404486D01*
X151289528Y-116359018D01*
X151350408Y-116327422D01*
X151415912Y-116292744D01*
X151484691Y-116255561D01*
X151555396Y-116216452D01*
X151625716Y-116177149D01*
X151693339Y-116139388D01*
X152143388Y-116389073D01*
X152143388Y-116184085D01*
X151889821Y-116058582D01*
X153153389Y-116058582D01*
X153159840Y-116166892D01*
X153179195Y-116250959D01*
X153226899Y-116358878D01*
X153383303Y-116302572D01*
X153336381Y-116201692D01*
X153319959Y-116136589D01*
X153314485Y-116058582D01*
X153324651Y-115978034D01*
X153352804Y-115927203D01*
X153393469Y-115901396D01*
X153439608Y-115894358D01*
X153492785Y-115911563D01*
X153534232Y-115955356D01*
X153567077Y-116014789D01*
X153594448Y-116080479D01*
X153630421Y-116171193D01*
X153682034Y-116256433D01*
X153759454Y-116319777D01*
X153874411Y-116344802D01*
X153995624Y-116322709D01*
X154014927Y-116308727D01*
X155158096Y-116308727D01*
X156140759Y-116308727D01*
X156140759Y-116111877D01*
X155320021Y-116111877D01*
X155320021Y-115691189D01*
X155158096Y-115691189D01*
X155158096Y-116308727D01*
X154014927Y-116308727D01*
X154087120Y-116256433D01*
X154129697Y-116190135D01*
X154155243Y-116109066D01*
X154163758Y-116013225D01*
X154158675Y-115929745D01*
X154143426Y-115857603D01*
X154098069Y-115745774D01*
X153949485Y-115802080D01*
X153987022Y-115888884D01*
X154002662Y-115999149D01*
X153974900Y-116114106D01*
X153891615Y-116152425D01*
X153842348Y-116136784D01*
X153804811Y-116096901D01*
X153775876Y-116042160D01*
X153752416Y-115981944D01*
X153714097Y-115887320D01*
X153657791Y-115796606D01*
X153570205Y-115728570D01*
X153510967Y-115708628D01*
X153438044Y-115701981D01*
X153317417Y-115724073D01*
X153227681Y-115790350D01*
X153186407Y-115859428D01*
X153161643Y-115948839D01*
X153153389Y-116058582D01*
X151889821Y-116058582D01*
X151838218Y-116033041D01*
X152143388Y-115874291D01*
X152143388Y-115683175D01*
X151697963Y-115926694D01*
X151630147Y-115885466D01*
X151559249Y-115845007D01*
X151487773Y-115806283D01*
X151418224Y-115770256D01*
X151351949Y-115737697D01*
X151290299Y-115709376D01*
X151189346Y-115667762D01*
X151189346Y-115872750D01*
X151272189Y-115905309D01*
X151363509Y-115944419D01*
X151459067Y-115987767D01*
X151554625Y-116033041D01*
X151461957Y-116077738D01*
X151365821Y-116122435D01*
X151272767Y-116164049D01*
X151189346Y-116199498D01*
X151189346Y-116404486D01*
X150664386Y-116404486D01*
X150664386Y-115361051D01*
X151189346Y-115361051D01*
X151986179Y-115361051D01*
X151986179Y-115612277D01*
X152143388Y-115612277D01*
X152143388Y-115554962D01*
X153173721Y-115554962D01*
X154129349Y-115554962D01*
X154140298Y-115491618D01*
X154147336Y-115420454D01*
X154151246Y-115350072D01*
X154151780Y-115329239D01*
X155158096Y-115329239D01*
X155978834Y-115329239D01*
X155978834Y-115588002D01*
X156140759Y-115588002D01*
X156140759Y-114873627D01*
X155978834Y-114873627D01*
X155978834Y-115132389D01*
X155158096Y-115132389D01*
X155158096Y-115329239D01*
X154151780Y-115329239D01*
X154152810Y-115289075D01*
X154144382Y-115175248D01*
X154119096Y-115079841D01*
X154076954Y-115002856D01*
X154015696Y-114946376D01*
X153933062Y-114912489D01*
X153829054Y-114901193D01*
X153724002Y-114912576D01*
X153640326Y-114946724D01*
X153578025Y-115003638D01*
X153535014Y-115081405D01*
X153509208Y-115178115D01*
X153500606Y-115293767D01*
X153500606Y-115362585D01*
X153173721Y-115362585D01*
X153173721Y-115554962D01*
X152143388Y-115554962D01*
X152143388Y-114918709D01*
X151986179Y-114918709D01*
X151986179Y-115169935D01*
X151189346Y-115169935D01*
X151189346Y-115361051D01*
X150664386Y-115361051D01*
X150664386Y-114783078D01*
X151189346Y-114783078D01*
X152143388Y-114783078D01*
X152143388Y-114205104D01*
X151986179Y-114205104D01*
X151986179Y-114593503D01*
X151771943Y-114593503D01*
X151771943Y-114255966D01*
X151614735Y-114255966D01*
X151614735Y-114593503D01*
X151346555Y-114593503D01*
X151346555Y-114171197D01*
X151189346Y-114171197D01*
X151189346Y-114783078D01*
X150664386Y-114783078D01*
X150664386Y-114158274D01*
X153173721Y-114158274D01*
X153173721Y-114772942D01*
X153333253Y-114772942D01*
X153333253Y-114561797D01*
X153982330Y-114561797D01*
X153982330Y-114772942D01*
X154141862Y-114772942D01*
X154141862Y-114364039D01*
X155137459Y-114364039D01*
X155152275Y-114491745D01*
X155196725Y-114597578D01*
X155270809Y-114681539D01*
X155344528Y-114729462D01*
X155432337Y-114763693D01*
X155534235Y-114784231D01*
X155650221Y-114791077D01*
X155765712Y-114782743D01*
X155867709Y-114757739D01*
X155955617Y-114717854D01*
X156028840Y-114664871D01*
X156086784Y-114599783D01*
X156128853Y-114523583D01*
X156154451Y-114438057D01*
X156162984Y-114344989D01*
X156154253Y-114250533D01*
X156134409Y-114176714D01*
X156110596Y-114123533D01*
X156091546Y-114090989D01*
X155935971Y-114141789D01*
X155976453Y-114229896D01*
X155993121Y-114348164D01*
X155976453Y-114437858D01*
X155920890Y-114515646D01*
X155816909Y-114571208D01*
X155743884Y-114587282D01*
X155654984Y-114592639D01*
X155551532Y-114586201D01*
X155465542Y-114566887D01*
X155397015Y-114534696D01*
X155329745Y-114458297D01*
X155307321Y-114344989D01*
X155324784Y-114218783D01*
X155359709Y-114138614D01*
X155205721Y-114089402D01*
X155158890Y-114201321D01*
X155142817Y-114277322D01*
X155137459Y-114364039D01*
X154141862Y-114364039D01*
X154141862Y-114158274D01*
X153982330Y-114158274D01*
X153982330Y-114367856D01*
X153333253Y-114367856D01*
X153333253Y-114158274D01*
X153173721Y-114158274D01*
X150664386Y-114158274D01*
X150664386Y-114038648D01*
X151189346Y-114038648D01*
X152143388Y-114038648D01*
X152143388Y-113886063D01*
X152072682Y-113842908D01*
X151996197Y-113799753D01*
X151917015Y-113757175D01*
X151838218Y-113715754D01*
X151760769Y-113676452D01*
X151685633Y-113640232D01*
X151616276Y-113608058D01*
X151571344Y-113587752D01*
X155158096Y-113587752D01*
X155389871Y-113587752D01*
X155389871Y-113997327D01*
X155532746Y-113997327D01*
X155598826Y-113962799D01*
X155673240Y-113919539D01*
X155752813Y-113869533D01*
X155834371Y-113814764D01*
X155916326Y-113756027D01*
X155997090Y-113694114D01*
X156073092Y-113630614D01*
X156140759Y-113567114D01*
X156140759Y-113392489D01*
X155550209Y-113392489D01*
X155550209Y-113286127D01*
X155389871Y-113286127D01*
X155389871Y-113392489D01*
X155158096Y-113392489D01*
X155158096Y-113587752D01*
X151571344Y-113587752D01*
X151556167Y-113580893D01*
X152143388Y-113580893D01*
X152143388Y-113409813D01*
X151189346Y-113409813D01*
X151189346Y-113562398D01*
X151295094Y-113606838D01*
X151400670Y-113653846D01*
X151506076Y-113703424D01*
X151611481Y-113755570D01*
X151717057Y-113810285D01*
X151822805Y-113867568D01*
X151189346Y-113867568D01*
X151189346Y-114038648D01*
X150664386Y-114038648D01*
X150664386Y-113052240D01*
X151177016Y-113052240D01*
X151182411Y-113151652D01*
X151200135Y-113255687D01*
X152131057Y-113255687D01*
X152149553Y-113133927D01*
X152154176Y-113027580D01*
X152147241Y-112937609D01*
X152139794Y-112908302D01*
X155137459Y-112908302D01*
X155143015Y-112985296D01*
X155156509Y-113063083D01*
X155173971Y-113132139D01*
X155191434Y-113181352D01*
X155354946Y-113143252D01*
X155321609Y-113048796D01*
X155308512Y-112985097D01*
X155304146Y-112909889D01*
X155314862Y-112824760D01*
X155347009Y-112769396D01*
X155453371Y-112728914D01*
X155519451Y-112744393D01*
X155562115Y-112790827D01*
X155585332Y-112861074D01*
X155593071Y-112947989D01*
X155593071Y-113008314D01*
X155754996Y-113008314D01*
X155754996Y-112935289D01*
X155761346Y-112874964D01*
X155781984Y-112820989D01*
X155820084Y-112782096D01*
X155880409Y-112767014D01*
X155965340Y-112799558D01*
X155996296Y-112889252D01*
X155978040Y-112999583D01*
X155932796Y-113094039D01*
X156075671Y-113163889D01*
X156133615Y-113050383D01*
X156155642Y-112975175D01*
X156162984Y-112890839D01*
X156157824Y-112813647D01*
X156142346Y-112747171D01*
X156084403Y-112646364D01*
X155996296Y-112587627D01*
X155886759Y-112568577D01*
X155774046Y-112601914D01*
X155691496Y-112690814D01*
X155652206Y-112623147D01*
X155597834Y-112572546D01*
X155529968Y-112540994D01*
X155450196Y-112530477D01*
X155324784Y-112552702D01*
X155225565Y-112620964D01*
X155188259Y-112673352D01*
X155160478Y-112738439D01*
X155143213Y-112816624D01*
X155137459Y-112908302D01*
X152139794Y-112908302D01*
X152126434Y-112855729D01*
X152090792Y-112783868D01*
X152039352Y-112723952D01*
X151971922Y-112675980D01*
X151888309Y-112639953D01*
X151787163Y-112617412D01*
X151667138Y-112609898D01*
X151544415Y-112618182D01*
X151441343Y-112643035D01*
X151356766Y-112682530D01*
X151289528Y-112734740D01*
X151238859Y-112798895D01*
X151203988Y-112874225D01*
X151183759Y-112959187D01*
X151177016Y-113052240D01*
X150664386Y-113052240D01*
X150664386Y-112471185D01*
X151189346Y-112471185D01*
X152143388Y-112471185D01*
X152143388Y-112114552D01*
X155137459Y-112114552D01*
X155143015Y-112191546D01*
X155156509Y-112269333D01*
X155173971Y-112338389D01*
X155191434Y-112387602D01*
X155354946Y-112349502D01*
X155321609Y-112255046D01*
X155308512Y-112191347D01*
X155304146Y-112116139D01*
X155314862Y-112031010D01*
X155347009Y-111975646D01*
X155453371Y-111935164D01*
X155519451Y-111950643D01*
X155562115Y-111997077D01*
X155585332Y-112067324D01*
X155593071Y-112154239D01*
X155593071Y-112214564D01*
X155754996Y-112214564D01*
X155754996Y-112141539D01*
X155761346Y-112081214D01*
X155781984Y-112027239D01*
X155820084Y-111988346D01*
X155880409Y-111973264D01*
X155965340Y-112005808D01*
X155996296Y-112095502D01*
X155978040Y-112205833D01*
X155932796Y-112300289D01*
X156075671Y-112370139D01*
X156133615Y-112256633D01*
X156155642Y-112181425D01*
X156162984Y-112097089D01*
X156157824Y-112019897D01*
X156142346Y-111953421D01*
X156084403Y-111852614D01*
X155996296Y-111793877D01*
X155886759Y-111774827D01*
X155774046Y-111808164D01*
X155691496Y-111897064D01*
X155652206Y-111829397D01*
X155597834Y-111778796D01*
X155529968Y-111747244D01*
X155450196Y-111736727D01*
X155324784Y-111758952D01*
X155225565Y-111827214D01*
X155188259Y-111879602D01*
X155160478Y-111944689D01*
X155143213Y-112022874D01*
X155137459Y-112114552D01*
X152143388Y-112114552D01*
X152143388Y-111893211D01*
X151986179Y-111893211D01*
X151986179Y-112281609D01*
X151771943Y-112281609D01*
X151771943Y-111944073D01*
X151614735Y-111944073D01*
X151614735Y-112281609D01*
X151346555Y-112281609D01*
X151346555Y-111859304D01*
X151189346Y-111859304D01*
X151189346Y-112471185D01*
X150664386Y-112471185D01*
X150664386Y-111043976D01*
X151189346Y-111043976D01*
X151189346Y-111242799D01*
X151280088Y-111281138D01*
X151367362Y-111325256D01*
X151453480Y-111373999D01*
X151540754Y-111426209D01*
X151540754Y-111524850D01*
X151189346Y-111524850D01*
X151189346Y-111714425D01*
X152129516Y-111714425D01*
X152141076Y-111653545D01*
X152148782Y-111586500D01*
X152149951Y-111566864D01*
X155158096Y-111566864D01*
X155197784Y-111570833D01*
X155231121Y-111570039D01*
X155307321Y-111562697D01*
X155377171Y-111540671D01*
X155441267Y-111507333D01*
X155500203Y-111466058D01*
X155554574Y-111419227D01*
X155604978Y-111369221D01*
X155652404Y-111319214D01*
X155697846Y-111272383D01*
X155783571Y-111197771D01*
X155867709Y-111168402D01*
X155960578Y-111204914D01*
X155993121Y-111296989D01*
X155970896Y-111393827D01*
X155896284Y-111493839D01*
X156032809Y-111590677D01*
X156090753Y-111522216D01*
X156131234Y-111443833D01*
X156155046Y-111360688D01*
X156162984Y-111277939D01*
X156145521Y-111162052D01*
X156093134Y-111063627D01*
X156005028Y-110995364D01*
X155881996Y-110969964D01*
X155784365Y-110989014D01*
X155693084Y-111039814D01*
X155607359Y-111111252D01*
X155527984Y-111192214D01*
X155482740Y-111239839D01*
X155428765Y-111290639D01*
X155372409Y-111331121D01*
X155320021Y-111347789D01*
X155320021Y-110925514D01*
X155158096Y-110925514D01*
X155158096Y-111566864D01*
X152149951Y-111566864D01*
X152152635Y-111521767D01*
X152154176Y-111467823D01*
X152149553Y-111389989D01*
X152135681Y-111319862D01*
X152078655Y-111205808D01*
X151980784Y-111132598D01*
X151916244Y-111113525D01*
X151841300Y-111107168D01*
X151761925Y-111115645D01*
X151690256Y-111141075D01*
X151630533Y-111186157D01*
X151586992Y-111253587D01*
X151498369Y-111198102D01*
X151396646Y-111141075D01*
X151290299Y-111087902D01*
X151189346Y-111043976D01*
X150664386Y-111043976D01*
X150664386Y-110412884D01*
X150665291Y-110339123D01*
X150668006Y-110265406D01*
X150672530Y-110191778D01*
X150678859Y-110118283D01*
X150686990Y-110044965D01*
X150696917Y-109971869D01*
X150708636Y-109899039D01*
X150722138Y-109826518D01*
X150737416Y-109754350D01*
X150754460Y-109682580D01*
X150773261Y-109611249D01*
X150793807Y-109540401D01*
X150816085Y-109470078D01*
X150840082Y-109400323D01*
X150865784Y-109331179D01*
X150893175Y-109262686D01*
X150922238Y-109194885D01*
X150952957Y-109127819D01*
X150985313Y-109061526D01*
X151019285Y-108996048D01*
X151054854Y-108931423D01*
X151091999Y-108867690D01*
X151130696Y-108804888D01*
X151170923Y-108743055D01*
X151212656Y-108682227D01*
X151255868Y-108622442D01*
X151300535Y-108563736D01*
X151346629Y-108506143D01*
X151394122Y-108449699D01*
X151442987Y-108394437D01*
X151493193Y-108340392D01*
X151544710Y-108287594D01*
X151597507Y-108236077D01*
X151651553Y-108185871D01*
X151706815Y-108137007D01*
X151763259Y-108089513D01*
X151820851Y-108043419D01*
X151879558Y-107998752D01*
X151939343Y-107955540D01*
X152000170Y-107913808D01*
X152062004Y-107873581D01*
X152124806Y-107834883D01*
X152188538Y-107797739D01*
X152253163Y-107762169D01*
X152318642Y-107728197D01*
X152384934Y-107695841D01*
X152452001Y-107665123D01*
X152519801Y-107636059D01*
X152588294Y-107608668D01*
X152657439Y-107582966D01*
X152727194Y-107558969D01*
X152797516Y-107536691D01*
X152868364Y-107516145D01*
X152939695Y-107497345D01*
X153011466Y-107480300D01*
X153083634Y-107465022D01*
X153156155Y-107451520D01*
X153228985Y-107439801D01*
X153302081Y-107429874D01*
X153375398Y-107421743D01*
X153448893Y-107415414D01*
X153522522Y-107410891D01*
X153596239Y-107408175D01*
X153670000Y-107407270D01*
X153743761Y-107408175D01*
X153817478Y-107410891D01*
X153891107Y-107415414D01*
X153964602Y-107421743D01*
X154037919Y-107429874D01*
X154111015Y-107439801D01*
X154183845Y-107451520D01*
X154256366Y-107465022D01*
X154328534Y-107480300D01*
X154400305Y-107497345D01*
X154471636Y-107516145D01*
X154542484Y-107536691D01*
X154612806Y-107558969D01*
X154682561Y-107582966D01*
X154751706Y-107608668D01*
X154820199Y-107636059D01*
X154887999Y-107665123D01*
X154955066Y-107695841D01*
X155021358Y-107728197D01*
X155086837Y-107762169D01*
X155151462Y-107797739D01*
X155215194Y-107834883D01*
X155277996Y-107873581D01*
X155339830Y-107913808D01*
X155400657Y-107955540D01*
X155460442Y-107998752D01*
X155519149Y-108043419D01*
X155576741Y-108089513D01*
X155633185Y-108137007D01*
X155688447Y-108185871D01*
X155742493Y-108236077D01*
X155795290Y-108287594D01*
X155846807Y-108340392D01*
X155897013Y-108394437D01*
X155945878Y-108449699D01*
X155993371Y-108506143D01*
X156039465Y-108563736D01*
X156084132Y-108622442D01*
X156127344Y-108682227D01*
X156169077Y-108743055D01*
X156209304Y-108804888D01*
X156248001Y-108867690D01*
X156285146Y-108931423D01*
X156320715Y-108996048D01*
X156354687Y-109061526D01*
X156387043Y-109127819D01*
X156417762Y-109194885D01*
X156446825Y-109262686D01*
X156474216Y-109331179D01*
X156499918Y-109400323D01*
X156523915Y-109470078D01*
X156546193Y-109540401D01*
X156566739Y-109611249D01*
X156585540Y-109682580D01*
X156602584Y-109754350D01*
X156617862Y-109826518D01*
X156631364Y-109899039D01*
X156643083Y-109971869D01*
X156653010Y-110044965D01*
X156661141Y-110118283D01*
X156667470Y-110191778D01*
X156671994Y-110265406D01*
X156674709Y-110339123D01*
X156675614Y-110412884D01*
X156675614Y-116917116D01*
X156674709Y-116990877D01*
X156671994Y-117064594D01*
X156667470Y-117138222D01*
X156661141Y-117211717D01*
X156653010Y-117285035D01*
X156643083Y-117358131D01*
X156631364Y-117430961D01*
X156617862Y-117503482D01*
X156602584Y-117575650D01*
X156585540Y-117647420D01*
X156566739Y-117718751D01*
X156546193Y-117789599D01*
X156523915Y-117859922D01*
X156499918Y-117929677D01*
X156474216Y-117998821D01*
X156446825Y-118067314D01*
X156417762Y-118135115D01*
X156387043Y-118202181D01*
X156354687Y-118268474D01*
X156320715Y-118333952D01*
X156285146Y-118398577D01*
X156248001Y-118462310D01*
X156209304Y-118525112D01*
X156169077Y-118586945D01*
X156127344Y-118647773D01*
X156084132Y-118707558D01*
X156039465Y-118766264D01*
X155993371Y-118823857D01*
X155945878Y-118880301D01*
X155897013Y-118935563D01*
X155846807Y-118989608D01*
X155795290Y-119042406D01*
X155742493Y-119093923D01*
X155688447Y-119144129D01*
X155633185Y-119192993D01*
X155576741Y-119240487D01*
X155519149Y-119286581D01*
X155460442Y-119331248D01*
X155400657Y-119374460D01*
X155339830Y-119416192D01*
X155277996Y-119456419D01*
X155215194Y-119495117D01*
X155151462Y-119532261D01*
X155086837Y-119567831D01*
X155021358Y-119601803D01*
X154955066Y-119634159D01*
X154887999Y-119664877D01*
X154820199Y-119693941D01*
X154751706Y-119721332D01*
X154682561Y-119747034D01*
X154612806Y-119771031D01*
X154542484Y-119793309D01*
X154471636Y-119813855D01*
X154400305Y-119832655D01*
X154328534Y-119849700D01*
X154256366Y-119864978D01*
X154183845Y-119878480D01*
X154111015Y-119890199D01*
X154037919Y-119900126D01*
X153964602Y-119908257D01*
X153891107Y-119914586D01*
X153817478Y-119919109D01*
X153743761Y-119921825D01*
X153670000Y-119922730D01*
X153596239Y-119921825D01*
X153522522Y-119919109D01*
X153448893Y-119914586D01*
X153375398Y-119908257D01*
X153302081Y-119900126D01*
X153228985Y-119890199D01*
X153156155Y-119878480D01*
X153083634Y-119864978D01*
X153011466Y-119849700D01*
X152939695Y-119832655D01*
G37*
G36*
X155818496Y-113646489D02*
G01*
X155731978Y-113706021D01*
X155640696Y-113762377D01*
X155550209Y-113810002D01*
X155550209Y-113587752D01*
X155896284Y-113587752D01*
X155818496Y-113646489D01*
G37*
G36*
X153902759Y-115109797D02*
G01*
X153950267Y-115144401D01*
X153976660Y-115198165D01*
X153985458Y-115267178D01*
X153984676Y-115314882D01*
X153980766Y-115362585D01*
X153667958Y-115362585D01*
X153667958Y-115284383D01*
X153677146Y-115203444D01*
X153704713Y-115145183D01*
X153754566Y-115109992D01*
X153830618Y-115098262D01*
X153902759Y-115109797D01*
G37*
G36*
X142537303Y-110099607D02*
G01*
X145831101Y-110099607D01*
X146514697Y-111125000D01*
X145831101Y-112150393D01*
X142537303Y-112150393D01*
X142537303Y-111569500D01*
X143049934Y-111569500D01*
X143161852Y-111616331D01*
X143237854Y-111632405D01*
X143324571Y-111637763D01*
X143452277Y-111622946D01*
X143558110Y-111578496D01*
X143642071Y-111504413D01*
X143689994Y-111430693D01*
X143721903Y-111348838D01*
X143857971Y-111348838D01*
X143880395Y-111471273D01*
X143947665Y-111562356D01*
X144017780Y-111604249D01*
X144108532Y-111629384D01*
X144219921Y-111637763D01*
X144329856Y-111631214D01*
X144415184Y-111611569D01*
X144524721Y-111563150D01*
X144467571Y-111404400D01*
X144365177Y-111452025D01*
X144299098Y-111468694D01*
X144219921Y-111474250D01*
X144138165Y-111463931D01*
X144086571Y-111435356D01*
X144060377Y-111394081D01*
X144053476Y-111348838D01*
X144651721Y-111348838D01*
X144674145Y-111471273D01*
X144741415Y-111562356D01*
X144811530Y-111604249D01*
X144902282Y-111629384D01*
X145013671Y-111637763D01*
X145123606Y-111631214D01*
X145208934Y-111611569D01*
X145318471Y-111563150D01*
X145261321Y-111404400D01*
X145158927Y-111452025D01*
X145092848Y-111468694D01*
X145013671Y-111474250D01*
X144931915Y-111463931D01*
X144880321Y-111435356D01*
X144854127Y-111394081D01*
X144846984Y-111347250D01*
X144864446Y-111293275D01*
X144908896Y-111251206D01*
X144969221Y-111217869D01*
X145035896Y-111190088D01*
X145127971Y-111153575D01*
X145214490Y-111101187D01*
X145278784Y-111022606D01*
X145304184Y-110905925D01*
X145281760Y-110782894D01*
X145214490Y-110690025D01*
X145147198Y-110646810D01*
X145064912Y-110620881D01*
X144967634Y-110612237D01*
X144882901Y-110617397D01*
X144809677Y-110632875D01*
X144696171Y-110678912D01*
X144753321Y-110829725D01*
X144841427Y-110791625D01*
X144953346Y-110775750D01*
X145039777Y-110788274D01*
X145091635Y-110825844D01*
X145108921Y-110888462D01*
X145093046Y-110938469D01*
X145052565Y-110976569D01*
X144997002Y-111005937D01*
X144935884Y-111029750D01*
X144839840Y-111068644D01*
X144747765Y-111125794D01*
X144678709Y-111214694D01*
X144658468Y-111274820D01*
X144651721Y-111348838D01*
X144053476Y-111348838D01*
X144053234Y-111347250D01*
X144070696Y-111293275D01*
X144115146Y-111251206D01*
X144175471Y-111217869D01*
X144242146Y-111190088D01*
X144334221Y-111153575D01*
X144420740Y-111101187D01*
X144485034Y-111022606D01*
X144510434Y-110905925D01*
X144488010Y-110782894D01*
X144420740Y-110690025D01*
X144353448Y-110646810D01*
X144271162Y-110620881D01*
X144173884Y-110612237D01*
X144089151Y-110617397D01*
X144015927Y-110632875D01*
X143902421Y-110678912D01*
X143959571Y-110829725D01*
X144047677Y-110791625D01*
X144159596Y-110775750D01*
X144246027Y-110788274D01*
X144297885Y-110825844D01*
X144315171Y-110888462D01*
X144299296Y-110938469D01*
X144258815Y-110976569D01*
X144203252Y-111005937D01*
X144142134Y-111029750D01*
X144046090Y-111068644D01*
X143954015Y-111125794D01*
X143884959Y-111214694D01*
X143864718Y-111274820D01*
X143857971Y-111348838D01*
X143721903Y-111348838D01*
X143724224Y-111342884D01*
X143744763Y-111240987D01*
X143751609Y-111125000D01*
X143743274Y-111009509D01*
X143718271Y-110907512D01*
X143678385Y-110819605D01*
X143625402Y-110746381D01*
X143560315Y-110688437D01*
X143484115Y-110646369D01*
X143398588Y-110620770D01*
X143305521Y-110612237D01*
X143211065Y-110620969D01*
X143137246Y-110640812D01*
X143084065Y-110664625D01*
X143051521Y-110683675D01*
X143102321Y-110839250D01*
X143190427Y-110798769D01*
X143308696Y-110782100D01*
X143398390Y-110798769D01*
X143476177Y-110854331D01*
X143531740Y-110958312D01*
X143547813Y-111031337D01*
X143553171Y-111120237D01*
X143546733Y-111223690D01*
X143527418Y-111309679D01*
X143495227Y-111378206D01*
X143418829Y-111445477D01*
X143305521Y-111467900D01*
X143179315Y-111450438D01*
X143099146Y-111415513D01*
X143049934Y-111569500D01*
X142537303Y-111569500D01*
X142537303Y-110099607D01*
G37*
G36*
X142590793Y-108585000D02*
G01*
X143274389Y-107559607D01*
X146539611Y-107559607D01*
X147223207Y-108585000D01*
X146539611Y-109610393D01*
X143274389Y-109610393D01*
X142724143Y-108785025D01*
X143787019Y-108785025D01*
X143809244Y-108910438D01*
X143877506Y-109009656D01*
X143929894Y-109046963D01*
X143994981Y-109074744D01*
X144073166Y-109092008D01*
X144164844Y-109097763D01*
X144241837Y-109092206D01*
X144319625Y-109078713D01*
X144388681Y-109061250D01*
X144437894Y-109043788D01*
X144399794Y-108880275D01*
X144305337Y-108913613D01*
X144241639Y-108926709D01*
X144166431Y-108931075D01*
X144081302Y-108920359D01*
X144025937Y-108888213D01*
X143995727Y-108808838D01*
X144566481Y-108808838D01*
X144588905Y-108931273D01*
X144656175Y-109022356D01*
X144726290Y-109064249D01*
X144817042Y-109089384D01*
X144928431Y-109097763D01*
X145038366Y-109091214D01*
X145123694Y-109071569D01*
X145233231Y-109023150D01*
X145176081Y-108864400D01*
X145073688Y-108912025D01*
X145007608Y-108928694D01*
X144928431Y-108934250D01*
X144846675Y-108923931D01*
X144795081Y-108895356D01*
X144768887Y-108854081D01*
X144761986Y-108808838D01*
X145360231Y-108808838D01*
X145382655Y-108931273D01*
X145449925Y-109022356D01*
X145520040Y-109064249D01*
X145610792Y-109089384D01*
X145722181Y-109097763D01*
X145832116Y-109091214D01*
X145917444Y-109071569D01*
X146026981Y-109023150D01*
X145969831Y-108864400D01*
X145867438Y-108912025D01*
X145801358Y-108928694D01*
X145722181Y-108934250D01*
X145640425Y-108923931D01*
X145588831Y-108895356D01*
X145562638Y-108854081D01*
X145555494Y-108807250D01*
X145572956Y-108753275D01*
X145617406Y-108711206D01*
X145677731Y-108677869D01*
X145744406Y-108650088D01*
X145836481Y-108613575D01*
X145923000Y-108561187D01*
X145987294Y-108482606D01*
X146012694Y-108365925D01*
X145990270Y-108242894D01*
X145923000Y-108150025D01*
X145855708Y-108106810D01*
X145773422Y-108080881D01*
X145676144Y-108072237D01*
X145591411Y-108077397D01*
X145518188Y-108092875D01*
X145404681Y-108138912D01*
X145461831Y-108289725D01*
X145549938Y-108251625D01*
X145661856Y-108235750D01*
X145748287Y-108248274D01*
X145800145Y-108285844D01*
X145817431Y-108348462D01*
X145801556Y-108398469D01*
X145761075Y-108436569D01*
X145705513Y-108465937D01*
X145644394Y-108489750D01*
X145548350Y-108528644D01*
X145456275Y-108585794D01*
X145387219Y-108674694D01*
X145366978Y-108734820D01*
X145360231Y-108808838D01*
X144761986Y-108808838D01*
X144761744Y-108807250D01*
X144779206Y-108753275D01*
X144823656Y-108711206D01*
X144883981Y-108677869D01*
X144950656Y-108650088D01*
X145042731Y-108613575D01*
X145129250Y-108561187D01*
X145193544Y-108482606D01*
X145218944Y-108365925D01*
X145196520Y-108242894D01*
X145129250Y-108150025D01*
X145061958Y-108106810D01*
X144979672Y-108080881D01*
X144882394Y-108072237D01*
X144797661Y-108077397D01*
X144724437Y-108092875D01*
X144610931Y-108138912D01*
X144668081Y-108289725D01*
X144756187Y-108251625D01*
X144868106Y-108235750D01*
X144954537Y-108248274D01*
X145006395Y-108285844D01*
X145023681Y-108348462D01*
X145007806Y-108398469D01*
X144967325Y-108436569D01*
X144911763Y-108465937D01*
X144850644Y-108489750D01*
X144754600Y-108528644D01*
X144662525Y-108585794D01*
X144593469Y-108674694D01*
X144573228Y-108734820D01*
X144566481Y-108808838D01*
X143995727Y-108808838D01*
X143985456Y-108781850D01*
X144000934Y-108715770D01*
X144047369Y-108673106D01*
X144117616Y-108649889D01*
X144204531Y-108642150D01*
X144264856Y-108642150D01*
X144264856Y-108480225D01*
X144191831Y-108480225D01*
X144131506Y-108473875D01*
X144077531Y-108453237D01*
X144038637Y-108415137D01*
X144023556Y-108354812D01*
X144056100Y-108269881D01*
X144145794Y-108238925D01*
X144256125Y-108257181D01*
X144350581Y-108302425D01*
X144420431Y-108159550D01*
X144306925Y-108101606D01*
X144231717Y-108079580D01*
X144147381Y-108072237D01*
X144070189Y-108077397D01*
X144003712Y-108092875D01*
X143902906Y-108150819D01*
X143844169Y-108238925D01*
X143825119Y-108348462D01*
X143858456Y-108461175D01*
X143947356Y-108543725D01*
X143879689Y-108583016D01*
X143829087Y-108637388D01*
X143797536Y-108705253D01*
X143787019Y-108785025D01*
X142724143Y-108785025D01*
X142590793Y-108585000D01*
G37*
G36*
X148011400Y-100965000D02*
G01*
X147327805Y-101990393D01*
X143248195Y-101990393D01*
X142892683Y-101457125D01*
X143760825Y-101457125D01*
X144384712Y-101457125D01*
X144384712Y-101295200D01*
X144170400Y-101295200D01*
X144170400Y-101188838D01*
X144533937Y-101188838D01*
X144556361Y-101311273D01*
X144623631Y-101402356D01*
X144693746Y-101444249D01*
X144784498Y-101469384D01*
X144895887Y-101477763D01*
X145005822Y-101471214D01*
X145091150Y-101451569D01*
X145200687Y-101403150D01*
X145143537Y-101244400D01*
X145041144Y-101292025D01*
X144975064Y-101308694D01*
X144895887Y-101314250D01*
X144814131Y-101303931D01*
X144762537Y-101275356D01*
X144736344Y-101234081D01*
X144729200Y-101187250D01*
X144746662Y-101133275D01*
X144791112Y-101091206D01*
X144851437Y-101057869D01*
X144918112Y-101030088D01*
X145010187Y-100993575D01*
X145057379Y-100965000D01*
X145307050Y-100965000D01*
X145312805Y-101084211D01*
X145330069Y-101187845D01*
X145358842Y-101275902D01*
X145399125Y-101348381D01*
X145468975Y-101420260D01*
X145555758Y-101463387D01*
X145659475Y-101477763D01*
X145765749Y-101463387D01*
X145778542Y-101457125D01*
X146094450Y-101457125D01*
X146273838Y-101457125D01*
X146264313Y-100693537D01*
X146384963Y-101109463D01*
X146527838Y-101109463D01*
X146643725Y-100693537D01*
X146635788Y-101457125D01*
X146815175Y-101457125D01*
X146810214Y-101334094D01*
X146804856Y-101206300D01*
X146799102Y-101076522D01*
X146792950Y-100947537D01*
X146786005Y-100820934D01*
X146777869Y-100698300D01*
X146768542Y-100582016D01*
X146758025Y-100474462D01*
X146596100Y-100474462D01*
X146568319Y-100560187D01*
X146532600Y-100672900D01*
X146494500Y-100795137D01*
X146457988Y-100909437D01*
X146418300Y-100787994D01*
X146378613Y-100667344D01*
X146343688Y-100558600D01*
X146315113Y-100474462D01*
X146153188Y-100474462D01*
X146142273Y-100601462D01*
X146131756Y-100725287D01*
X146122231Y-100846930D01*
X146114294Y-100967381D01*
X146107745Y-101087634D01*
X146102388Y-101208681D01*
X146098022Y-101331514D01*
X146094450Y-101457125D01*
X145778542Y-101457125D01*
X145853856Y-101420260D01*
X145923794Y-101348381D01*
X145963729Y-101275902D01*
X145992255Y-101187845D01*
X146009370Y-101084211D01*
X146015075Y-100965000D01*
X146009221Y-100845789D01*
X145991659Y-100742155D01*
X145962390Y-100654098D01*
X145921413Y-100581619D01*
X145850857Y-100509740D01*
X145764074Y-100466613D01*
X145661063Y-100452237D01*
X145554876Y-100466613D01*
X145467035Y-100509740D01*
X145397538Y-100581619D01*
X145357949Y-100654098D01*
X145329672Y-100742155D01*
X145312705Y-100845789D01*
X145307050Y-100965000D01*
X145057379Y-100965000D01*
X145096706Y-100941187D01*
X145161000Y-100862606D01*
X145186400Y-100745925D01*
X145163977Y-100622894D01*
X145096706Y-100530025D01*
X145029414Y-100486810D01*
X144947128Y-100460881D01*
X144849850Y-100452237D01*
X144765117Y-100457397D01*
X144691894Y-100472875D01*
X144578387Y-100518912D01*
X144635537Y-100669725D01*
X144723644Y-100631625D01*
X144835562Y-100615750D01*
X144921993Y-100628274D01*
X144973851Y-100665844D01*
X144991137Y-100728462D01*
X144975262Y-100778469D01*
X144934781Y-100816569D01*
X144879219Y-100845937D01*
X144818100Y-100869750D01*
X144722056Y-100908644D01*
X144629981Y-100965794D01*
X144560925Y-101054694D01*
X144540684Y-101114820D01*
X144533937Y-101188838D01*
X144170400Y-101188838D01*
X144170400Y-100636387D01*
X144384712Y-100636387D01*
X144384712Y-100474462D01*
X143760825Y-100474462D01*
X143760825Y-100636387D01*
X143973550Y-100636387D01*
X143973550Y-101295200D01*
X143760825Y-101295200D01*
X143760825Y-101457125D01*
X142892683Y-101457125D01*
X142564600Y-100965000D01*
X143248195Y-99939607D01*
X147327805Y-99939607D01*
X148011400Y-100965000D01*
G37*
G36*
X145742025Y-100649087D02*
G01*
X145788856Y-100722906D01*
X145811081Y-100831650D01*
X145815248Y-100895944D01*
X145816638Y-100965000D01*
X145815248Y-101034255D01*
X145811081Y-101099144D01*
X145788856Y-101207888D01*
X145742025Y-101280913D01*
X145661063Y-101307900D01*
X145580894Y-101280913D01*
X145533269Y-101207094D01*
X145511044Y-101098350D01*
X145506877Y-101034056D01*
X145505488Y-100965000D01*
X145506877Y-100895745D01*
X145511044Y-100830856D01*
X145533269Y-100722112D01*
X145580100Y-100649087D01*
X145661063Y-100622100D01*
X145742025Y-100649087D01*
G37*
G36*
X147253369Y-95885000D02*
G01*
X146569774Y-96910393D01*
X143244226Y-96910393D01*
X142888714Y-96377125D01*
X143756856Y-96377125D01*
X143977519Y-96377125D01*
X144027525Y-96257269D01*
X144061855Y-96193769D01*
X144099756Y-96131856D01*
X144140436Y-96072722D01*
X144183100Y-96017556D01*
X144266444Y-95927863D01*
X144266444Y-96377125D01*
X144461706Y-96377125D01*
X144461706Y-96329500D01*
X144582356Y-96329500D01*
X144694275Y-96376331D01*
X144770277Y-96392405D01*
X144856994Y-96397763D01*
X144984699Y-96382946D01*
X145090533Y-96338496D01*
X145174494Y-96264413D01*
X145222416Y-96190693D01*
X145254326Y-96108838D01*
X145390394Y-96108838D01*
X145412817Y-96231273D01*
X145480088Y-96322356D01*
X145550202Y-96364249D01*
X145640954Y-96389384D01*
X145752344Y-96397763D01*
X145862278Y-96391214D01*
X145947606Y-96371569D01*
X146057144Y-96323150D01*
X145999994Y-96164400D01*
X145897600Y-96212025D01*
X145831520Y-96228694D01*
X145752344Y-96234250D01*
X145670588Y-96223931D01*
X145618994Y-96195356D01*
X145592800Y-96154081D01*
X145585656Y-96107250D01*
X145603119Y-96053275D01*
X145647569Y-96011206D01*
X145707894Y-95977869D01*
X145774569Y-95950088D01*
X145866644Y-95913575D01*
X145953163Y-95861187D01*
X146017456Y-95782606D01*
X146042856Y-95665925D01*
X146020433Y-95542894D01*
X145953163Y-95450025D01*
X145885870Y-95406810D01*
X145803585Y-95380881D01*
X145706306Y-95372237D01*
X145621573Y-95377397D01*
X145548350Y-95392875D01*
X145434844Y-95438912D01*
X145491994Y-95589725D01*
X145580100Y-95551625D01*
X145692019Y-95535750D01*
X145778449Y-95548274D01*
X145830308Y-95585844D01*
X145847594Y-95648462D01*
X145831719Y-95698469D01*
X145791238Y-95736569D01*
X145735675Y-95765937D01*
X145674556Y-95789750D01*
X145578513Y-95828644D01*
X145486438Y-95885794D01*
X145417381Y-95974694D01*
X145397141Y-96034820D01*
X145390394Y-96108838D01*
X145254326Y-96108838D01*
X145256647Y-96102884D01*
X145277185Y-96000987D01*
X145284031Y-95885000D01*
X145275697Y-95769509D01*
X145250694Y-95667512D01*
X145210808Y-95579605D01*
X145157825Y-95506381D01*
X145092738Y-95448437D01*
X145016538Y-95406369D01*
X144931011Y-95380770D01*
X144837944Y-95372237D01*
X144743487Y-95380969D01*
X144669669Y-95400812D01*
X144616487Y-95424625D01*
X144583944Y-95443675D01*
X144634744Y-95599250D01*
X144722850Y-95558769D01*
X144841119Y-95542100D01*
X144930813Y-95558769D01*
X145008600Y-95614331D01*
X145064163Y-95718312D01*
X145080236Y-95791337D01*
X145085594Y-95880237D01*
X145079156Y-95983690D01*
X145059841Y-96069679D01*
X145027650Y-96138206D01*
X144951252Y-96205477D01*
X144837944Y-96227900D01*
X144711737Y-96210438D01*
X144631569Y-96175513D01*
X144582356Y-96329500D01*
X144461706Y-96329500D01*
X144461706Y-95394462D01*
X144266444Y-95394462D01*
X144266444Y-95802450D01*
X144193419Y-95704025D01*
X144121187Y-95596075D01*
X144058481Y-95489712D01*
X144010856Y-95394462D01*
X143790194Y-95394462D01*
X143843375Y-95492094D01*
X143876514Y-95548053D01*
X143914019Y-95606394D01*
X143955095Y-95666520D01*
X143998950Y-95727837D01*
X144045186Y-95788559D01*
X144093406Y-95846900D01*
X144043797Y-95898097D01*
X143993394Y-95956438D01*
X143943983Y-96020533D01*
X143897350Y-96088994D01*
X143854289Y-96160431D01*
X143815594Y-96233456D01*
X143782653Y-96306283D01*
X143756856Y-96377125D01*
X142888714Y-96377125D01*
X142560631Y-95885000D01*
X143244226Y-94859607D01*
X146569774Y-94859607D01*
X147253369Y-95885000D01*
G37*
G36*
X153926602Y-98425000D02*
G01*
X153257294Y-99428961D01*
X149857398Y-99428961D01*
X149857398Y-97933669D01*
X151180315Y-97933669D01*
X151210477Y-98013441D01*
X151240640Y-98090831D01*
X151271596Y-98166634D01*
X151304140Y-98241644D01*
X151338668Y-98316058D01*
X151375577Y-98390075D01*
X151415265Y-98464886D01*
X151458127Y-98541681D01*
X151458127Y-98916331D01*
X151654977Y-98916331D01*
X151654977Y-98543269D01*
X151710805Y-98441404D01*
X151761869Y-98341127D01*
X151808171Y-98242437D01*
X151851475Y-98142866D01*
X151893543Y-98039943D01*
X151934377Y-97933669D01*
X151724827Y-97933669D01*
X151686331Y-98048961D01*
X151643865Y-98166237D01*
X151598621Y-98279545D01*
X151551790Y-98382931D01*
X151511309Y-98290856D01*
X151465271Y-98173381D01*
X151442649Y-98111072D01*
X151420821Y-98047969D01*
X151381927Y-97933669D01*
X151180315Y-97933669D01*
X149857398Y-97933669D01*
X149857398Y-97421039D01*
X153257294Y-97421039D01*
X153926602Y-98425000D01*
G37*
G36*
X153882945Y-96900868D02*
G01*
X150578300Y-96900868D01*
X150030172Y-96078675D01*
X151901216Y-96078675D01*
X151908757Y-96160233D01*
X151931379Y-96227106D01*
X152013135Y-96322356D01*
X152069491Y-96352916D01*
X152135373Y-96373156D01*
X152208596Y-96384467D01*
X152286979Y-96388238D01*
X152353257Y-96386452D01*
X152421916Y-96381094D01*
X152491369Y-96372164D01*
X152560029Y-96359663D01*
X152560029Y-95405575D01*
X152437791Y-95388906D01*
X152306029Y-95381762D01*
X152205223Y-95387517D01*
X152125054Y-95404781D01*
X152015516Y-95465106D01*
X151961541Y-95548450D01*
X151947254Y-95640525D01*
X151955787Y-95706406D01*
X151981385Y-95764350D01*
X152072666Y-95850075D01*
X151988727Y-95892938D01*
X151936935Y-95948500D01*
X151910146Y-96012000D01*
X151901216Y-96078675D01*
X150030172Y-96078675D01*
X149901055Y-95885000D01*
X150578300Y-94869132D01*
X153882945Y-94869132D01*
X153882945Y-96900868D01*
G37*
G36*
X152321904Y-95553212D02*
G01*
X152364766Y-95557975D01*
X152364766Y-95783400D01*
X152288566Y-95783400D01*
X152175854Y-95750856D01*
X152137754Y-95661162D01*
X152148866Y-95604806D01*
X152179029Y-95571469D01*
X152223479Y-95555594D01*
X152275866Y-95551625D01*
X152321904Y-95553212D01*
G37*
G36*
X152364766Y-96212025D02*
G01*
X152319523Y-96216788D01*
X152271104Y-96218375D01*
X152206016Y-96212819D01*
X152149660Y-96192181D01*
X152109179Y-96149319D01*
X152093304Y-96078675D01*
X152138548Y-95976281D01*
X152259991Y-95945325D01*
X152364766Y-95945325D01*
X152364766Y-96212025D01*
G37*
G36*
X144175162Y-98109087D02*
G01*
X144221994Y-98182906D01*
X144244219Y-98291650D01*
X144248386Y-98355944D01*
X144249775Y-98425000D01*
X144248386Y-98494255D01*
X144244219Y-98559144D01*
X144221994Y-98667888D01*
X144175162Y-98740913D01*
X144094200Y-98767900D01*
X144014031Y-98740913D01*
X143966406Y-98667094D01*
X143944181Y-98558350D01*
X143940014Y-98494056D01*
X143938625Y-98425000D01*
X143940014Y-98355745D01*
X143944181Y-98290856D01*
X143966406Y-98182112D01*
X144013237Y-98109087D01*
X144094200Y-98082100D01*
X144175162Y-98109087D01*
G37*
G36*
X148032038Y-98425000D02*
G01*
X147348443Y-99450393D01*
X143227557Y-99450393D01*
X142543962Y-98425000D01*
X143740187Y-98425000D01*
X143745942Y-98544211D01*
X143763206Y-98647845D01*
X143791980Y-98735902D01*
X143832262Y-98808381D01*
X143902112Y-98880260D01*
X143988896Y-98923387D01*
X144092612Y-98937763D01*
X144198887Y-98923387D01*
X144286993Y-98880260D01*
X144356931Y-98808381D01*
X144396867Y-98735902D01*
X144425070Y-98648838D01*
X144554575Y-98648838D01*
X144576998Y-98771273D01*
X144644269Y-98862356D01*
X144714383Y-98904249D01*
X144805135Y-98929384D01*
X144916525Y-98937763D01*
X145026459Y-98931214D01*
X145087655Y-98917125D01*
X145368963Y-98917125D01*
X145992850Y-98917125D01*
X146115088Y-98917125D01*
X146294475Y-98917125D01*
X146284950Y-98153537D01*
X146405600Y-98569463D01*
X146548475Y-98569463D01*
X146664363Y-98153537D01*
X146656425Y-98917125D01*
X146835813Y-98917125D01*
X146830852Y-98794094D01*
X146825494Y-98666300D01*
X146819739Y-98536522D01*
X146813588Y-98407537D01*
X146806642Y-98280934D01*
X146798506Y-98158300D01*
X146789180Y-98042016D01*
X146778663Y-97934462D01*
X146616738Y-97934462D01*
X146588956Y-98020187D01*
X146553238Y-98132900D01*
X146515138Y-98255137D01*
X146478625Y-98369437D01*
X146438938Y-98247994D01*
X146399250Y-98127344D01*
X146364325Y-98018600D01*
X146335750Y-97934462D01*
X146173825Y-97934462D01*
X146162911Y-98061462D01*
X146152394Y-98185287D01*
X146142869Y-98306930D01*
X146134931Y-98427381D01*
X146128383Y-98547634D01*
X146123025Y-98668681D01*
X146118659Y-98791514D01*
X146115088Y-98917125D01*
X145992850Y-98917125D01*
X145992850Y-98755200D01*
X145778538Y-98755200D01*
X145778538Y-98096387D01*
X145992850Y-98096387D01*
X145992850Y-97934462D01*
X145368963Y-97934462D01*
X145368963Y-98096387D01*
X145581688Y-98096387D01*
X145581688Y-98755200D01*
X145368963Y-98755200D01*
X145368963Y-98917125D01*
X145087655Y-98917125D01*
X145111787Y-98911569D01*
X145221325Y-98863150D01*
X145164175Y-98704400D01*
X145061781Y-98752025D01*
X144995702Y-98768694D01*
X144916525Y-98774250D01*
X144834769Y-98763931D01*
X144783175Y-98735356D01*
X144756981Y-98694081D01*
X144749837Y-98647250D01*
X144767300Y-98593275D01*
X144811750Y-98551206D01*
X144872075Y-98517869D01*
X144938750Y-98490088D01*
X145030825Y-98453575D01*
X145117344Y-98401187D01*
X145181637Y-98322606D01*
X145207037Y-98205925D01*
X145184614Y-98082894D01*
X145117344Y-97990025D01*
X145050051Y-97946810D01*
X144967766Y-97920881D01*
X144870487Y-97912237D01*
X144785755Y-97917397D01*
X144712531Y-97932875D01*
X144599025Y-97978912D01*
X144656175Y-98129725D01*
X144744281Y-98091625D01*
X144856200Y-98075750D01*
X144942631Y-98088274D01*
X144994489Y-98125844D01*
X145011775Y-98188462D01*
X144995900Y-98238469D01*
X144955419Y-98276569D01*
X144899856Y-98305937D01*
X144838737Y-98329750D01*
X144742694Y-98368644D01*
X144650619Y-98425794D01*
X144581562Y-98514694D01*
X144561322Y-98574820D01*
X144554575Y-98648838D01*
X144425070Y-98648838D01*
X144425392Y-98647845D01*
X144442507Y-98544211D01*
X144448212Y-98425000D01*
X144442359Y-98305789D01*
X144424797Y-98202155D01*
X144395527Y-98114098D01*
X144354550Y-98041619D01*
X144283994Y-97969740D01*
X144197211Y-97926613D01*
X144094200Y-97912237D01*
X143988014Y-97926613D01*
X143900172Y-97969740D01*
X143830675Y-98041619D01*
X143791087Y-98114098D01*
X143762809Y-98202155D01*
X143745843Y-98305789D01*
X143740187Y-98425000D01*
X142543962Y-98425000D01*
X143227557Y-97399607D01*
X147348443Y-97399607D01*
X148032038Y-98425000D01*
G37*
%LPC*%
D11*
X141224000Y-90805000D03*
D12*
X141224000Y-93345000D03*
X141224000Y-95885000D03*
X141224000Y-98425000D03*
X141224000Y-100965000D03*
X141224000Y-103505000D03*
X141224000Y-106045000D03*
X141224000Y-108585000D03*
X141224000Y-111125000D03*
X141224000Y-113665000D03*
D11*
X155194000Y-90805000D03*
D12*
X155194000Y-93345000D03*
X155194000Y-95885000D03*
X155194000Y-98425000D03*
X155194000Y-100965000D03*
X155194000Y-103505000D03*
D13*
X147574000Y-118110000D03*
X148209000Y-86360000D03*
M02*
